<svg width="39" height="22" viewBox="0 0 39 22" fill="none" xmlns="http://www.w3.org/2000/svg">
<path fill-rule="evenodd" clip-rule="evenodd" d="M17.7468 16.9947L19.022 15.1225L20.253 15.2737C20.253 15.2737 21.2402 16.0236 21.4594 16.2422C21.9155 16.6973 21.9222 16.9597 21.9222 16.9597L17.7468 16.9947Z" stroke="#0F1010" stroke-width="0.3"/>
<path fill-rule="evenodd" clip-rule="evenodd" d="M18.2842 12.6243C18.2842 12.6243 19.2773 11.1718 21.0037 11.2462C22.7302 11.3206 25.6492 17.0875 25.6492 17.0875L17.329 17.0654L18.2842 12.6243Z" stroke="#0F1010" stroke-width="0.3"/>
<path fill-rule="evenodd" clip-rule="evenodd" d="M17.101 8.72107C17.101 8.72107 18.3832 5.95321 20.2529 4.55155C22.1226 3.14989 23.9171 4.72383 23.9171 4.72383C23.9171 4.72383 24.8879 6.24742 25.0983 8.75697C25.2288 10.3141 26.3709 11.2048 28.9004 12.2136C29.364 12.3984 30.0175 12.9569 30.5733 14.0505C31.1291 15.1441 31.1697 17.1543 31.1697 17.1543L15.714 17.0928L17.101 8.72107Z" stroke="#0F1010" stroke-width="0.3"/>
<path fill-rule="evenodd" clip-rule="evenodd" d="M13.7712 7.75051C13.7712 7.75051 18.1012 0.926788 21.9666 0.941018C25.832 0.955248 27.032 6.79989 29.7272 8.46784C32.4224 10.1358 33.297 8.98261 35.6322 11.7662C37.9675 14.5497 37.141 17.3468 37.141 17.3468L12.4221 17.0663L13.7712 7.75051Z" stroke="#0F1010" stroke-width="0.3"/>
<path fill-rule="evenodd" clip-rule="evenodd" d="M0.999498 19.6317C0.999498 19.6317 5.58456 14.7853 6.76681 10.7101C7.16302 9.34437 9.79231 8.1036 11.3924 8.06532C13.7778 8.00824 14.3381 7.37146 14.3381 7.37146C14.3381 7.37146 14.9307 6.7591 15.5118 6.82894C16.0929 6.89879 17.2676 7.90891 17.8392 12.2199C17.9427 13.0005 18.6226 13.343 19.0146 13.7847C19.6199 14.4669 19.9949 14.9845 20.2684 15.7313C20.7225 16.9714 20.5611 19.6262 20.5611 19.6262L0.999498 19.6317Z" fill="#F5F3EF" stroke="#0F1010" stroke-width="0.3"/>
<path fill-rule="evenodd" clip-rule="evenodd" d="M3.85144 19.6648C3.85144 19.6648 8.88088 14.4589 9.36174 13.4791C9.84261 12.4993 11.1348 9.50358 13.459 9.78296C14.1743 9.86894 14.7306 10.7166 14.7306 12.1565C14.7306 13.1647 15.286 15.2593 16.9218 15.7176C18.5576 16.1758 18.4081 19.6217 18.4081 19.6217L3.85144 19.6648Z" fill="#F5F3EF" stroke="#0F1010" stroke-width="0.3"/>
<path fill-rule="evenodd" clip-rule="evenodd" d="M9.21467 19.6036C9.21467 19.6036 11.1111 15.4843 13.043 15.3693C14.9749 15.2544 17.4325 19.6071 17.4325 19.6071L9.21467 19.6036Z" fill="#F5F3EF" stroke="#0F1010" stroke-width="0.3" stroke-linecap="round" stroke-linejoin="round"/>
<path fill-rule="evenodd" clip-rule="evenodd" d="M11.7435 19.6516C11.7435 19.6516 12.2052 18.5482 12.974 18.4531C13.2589 18.4179 13.3788 18.6894 13.7258 19.0144C13.9404 19.2154 14.5813 19.6411 14.5813 19.6411L11.7435 19.6516Z" fill="#F5F3EF" stroke="#0F1010" stroke-width="0.3" stroke-linecap="round"/>
</svg>
