<?xml version="1.0" encoding="UTF-8"?>
<svg width="15px" height="7px" viewBox="0 0 15 7" version="1.1" xmlns="http://www.w3.org/2000/svg" xmlns:xlink="http://www.w3.org/1999/xlink">
    <title>编组 27</title>
    <g id="页面-1" stroke="none" stroke-width="1" fill="none" fill-rule="evenodd">
        <g id="3.3" transform="translate(-367.000000, -650.000000)">
            <g id="编组-27" transform="translate(367.100000, 650.000000)">
                <g id="编组" fill="#000000">
                    <path d="M0.587893702,0 C0.782704538,-3.578617e-17 0.940629923,0.157925386 0.940629923,0.352736221 L0.940629923,6.64726378 C0.940629923,6.84207461 0.782704538,7 0.587893702,7 C0.393082866,7 0.235157481,6.84207461 0.235157481,6.64726378 L0.235157481,0.352736221 C0.235157481,0.157925386 0.393082866,3.578617e-17 0.587893702,0 Z" id="矩形"></path>
                    <path d="M14.0878937,0 C14.2827045,-3.578617e-17 14.4406299,0.157925386 14.4406299,0.352736221 L14.4406299,6.64726378 C14.4406299,6.84207461 14.2827045,7 14.0878937,7 C13.8930829,7 13.7351575,6.84207461 13.7351575,6.64726378 L13.7351575,0.352736221 C13.7351575,0.157925386 13.8930829,3.578617e-17 14.0878937,0 Z" id="矩形"></path>
                </g>
                <rect id="矩形" stroke="#000000" stroke-width="0.5" x="0.65" y="1.25" width="13.5" height="4.5"></rect>
            </g>
        </g>
    </g>
</svg>