<?xml version="1.0" encoding="UTF-8"?>
<svg width="32px" height="19px" viewBox="0 0 32 19" version="1.1" xmlns="http://www.w3.org/2000/svg" xmlns:xlink="http://www.w3.org/1999/xlink">
    <title>编组</title>
    <defs>
        <filter x="-15.6%" y="-33.2%" width="131.1%" height="166.4%" filterUnits="objectBoundingBox" id="filter-1">
            <feOffset dx="0" dy="1" in="SourceAlpha" result="shadowOffsetOuter1"></feOffset>
            <feGaussianBlur stdDeviation="0.5" in="shadowOffsetOuter1" result="shadowBlurOuter1"></feGaussianBlur>
            <feColorMatrix values="0 0 0 0 0.690585371   0 0 0 0 0.690585371   0 0 0 0 0.690585371  0 0 0 0.5 0" type="matrix" in="shadowBlurOuter1" result="shadowMatrixOuter1"></feColorMatrix>
            <feMerge>
                <feMergeNode in="shadowMatrixOuter1"></feMergeNode>
                <feMergeNode in="SourceGraphic"></feMergeNode>
            </feMerge>
        </filter>
    </defs>
    <g id="页面-1" stroke="none" stroke-width="1" fill="none" fill-rule="evenodd">
        <g id="3.3" transform="translate(-801.000000, -59.000000)">
            <g id="编组-17" transform="translate(696.000000, 56.000000)">
                <g id="编组" filter="url(#filter-1)" transform="translate(108.085325, 6.888889)">
                    <g id="编组-139" transform="translate(0.402625, 1.607407)">
                        <polygon id="矩形" fill="#000000" transform="translate(12.012207, 4.305556) rotate(90.000000) translate(-12.012207, -4.305556) " points="7.70665186 -7.70665186 16.317763 -7.70665186 16.317763 16.317763 7.70665186 16.317763"></polygon>
                        <polygon id="矩形" fill="#FFFFFF" transform="translate(12.715942, 4.305556) rotate(90.000000) translate(-12.715942, -4.305556) " points="9.19973838 -7.4038231 16.2321458 -7.4038231 16.2321458 16.0149342 9.19973838 16.0149342"></polygon>
                    </g>
                    <path d="M1.00656342,0 C1.3401092,-6.12713653e-17 1.61050148,0.270392277 1.61050148,0.603938055 L1.61050148,11.4516175 C1.61050148,11.7851633 1.3401092,12.0555556 1.00656342,12.0555556 C0.673017647,12.0555556 0.40262537,11.7851633 0.40262537,11.4516175 L0.40262537,0.603938055 C0.40262537,0.270392277 0.673017647,6.12713653e-17 1.00656342,0 Z" id="矩形" fill="#000000"></path>
                    <path d="M24.6757178,0 C25.0092636,-6.12713653e-17 25.2796558,0.270392277 25.2796558,0.603938055 L25.2796558,11.4516175 C25.2796558,11.7851633 25.0092636,12.0555556 24.6757178,12.0555556 C24.342172,12.0555556 24.0717797,11.7851633 24.0717797,11.4516175 L24.0717797,0.603938055 C24.0717797,0.270392277 24.342172,6.12713653e-17 24.6757178,0 Z" id="矩形" fill="#000000"></path>
                </g>
            </g>
        </g>
    </g>
</svg>