<?xml version="1.0" encoding="UTF-8"?>
<svg width="18px" height="18px" viewBox="0 0 18 18" version="1.1" xmlns="http://www.w3.org/2000/svg" xmlns:xlink="http://www.w3.org/1999/xlink">
    <title>编组 126</title>
    <g id="页面-1" stroke="none" stroke-width="1" fill="none" fill-rule="evenodd">
        <g id="编组-17" transform="translate(-46.000000, -3.000000)">
            <g id="编组-148" transform="translate(3.644049, 3.444444)">
                <g id="编组-126" transform="translate(42.803802, 0.000000)">
                    <g id="编组-145">
                        <rect id="矩形" fill="#37542D" x="0" y="0" width="17.1215208" height="17.2222222" rx="8.5607604"></rect>
                        <path d="M10.2863189,7.42226744 C10.4531341,7.42226744 10.5883635,7.56548445 10.5883635,7.74213574 C10.5883635,7.91877809 10.4531341,8.06200404 10.2863104,8.06200404 L6.84363105,8.06200404 C6.67680734,8.06200404 6.541578,7.91877809 6.541578,7.74213574 C6.541578,7.56549338 6.67680734,7.42226744 6.84363105,7.42226744 L10.2863104,7.42226744 L10.2863189,7.42226744 Z M10.2863189,9.24528444 C10.4531341,9.24528444 10.5883635,9.38849252 10.5883635,9.56514381 C10.5883635,9.74178616 10.4531341,9.88500317 10.2863104,9.88500317 L6.84363105,9.88500317 C6.67680734,9.88500317 6.541578,9.74178616 6.541578,9.56513487 C6.541578,9.38849252 6.67680734,9.24528444 6.84363105,9.24528444 L10.2863104,9.24528444 L10.2863189,9.24528444 Z M11.4301249,3.76736111 C11.9130952,3.76736111 12.3060931,4.1836009 12.3060931,4.6951132 L12.3060931,11.9889146 C12.3060931,12.5004269 11.9130952,12.9166667 11.4301249,12.9166667 L5.69139594,12.9166667 C5.20842557,12.9166667 4.81542773,12.5004269 4.81542773,11.9889146 L4.81542773,4.6951132 C4.81542773,4.1836009 5.20842557,3.76736111 5.69139594,3.76736111 L11.4301249,3.76736111 Z M6.85430905,4.40723173 L6.85430905,5.2869053 L10.2672117,5.2869053 L10.2672117,4.40723173 L6.85430905,4.40723173 Z M6.25011841,4.40723173 L5.69139594,4.40723173 C5.54166718,4.40723173 5.41960991,4.53650141 5.41960991,4.6951132 L5.41960991,11.9889146 C5.41960991,12.1477229 5.54156572,12.276796 5.69139594,12.276796 L11.4301249,12.276796 C11.5802172,12.276796 11.7019109,12.1479106 11.7019109,11.9889146 L11.7019109,4.6951132 C11.7019109,4.5363942 11.5800396,4.40723173 11.4301249,4.40723173 L10.8714108,4.40723173 L10.8714108,5.30292552 C10.8714108,5.64698944 10.6072508,5.92677592 10.2823875,5.92677592 L6.83913327,5.92677592 C6.51427005,5.92677592 6.25010996,5.64698944 6.25010996,5.30292552 L6.25010996,4.40723173 L6.25011841,4.40723173 Z" id="形状" fill="#FFFFFF" fill-rule="nonzero"></path>
                    </g>
                    <g id="shijiangongdanguanli" transform="translate(4.815428, 3.767361)"></g>
                </g>
            </g>
        </g>
    </g>
</svg>