<?xml version="1.0" encoding="UTF-8"?>
<svg width="38px" height="38px" viewBox="0 0 38 38" version="1.1" xmlns="http://www.w3.org/2000/svg" xmlns:xlink="http://www.w3.org/1999/xlink">
    <title>编组 6</title>
    <g id="页面-2" stroke="none" stroke-width="1" fill="none" fill-rule="evenodd">
        <g id="分析面板-六法分析" transform="translate(-1563.000000, -322.000000)" fill-rule="nonzero">
            <g id="编组-6" transform="translate(1564.408867, 323.030075)">
                <ellipse id="Oval" stroke="#978778" stroke-width="1.1592" fill="#FFFFFF" cx="17.8288177" cy="17.8308271" rx="17.8288177" ry="17.8308271"></ellipse>
                <g id="shiren" transform="translate(9.646627, 5.792021)" fill="#000000">
                    <path d="M11.2536983,23.7999558 L11.2129292,23.5856154 C11.1752784,23.3879253 11.1375178,23.1902561 11.0996475,22.9926079 C11.0191042,22.5716506 10.9357655,22.1363599 10.8558856,21.7074896 C10.3519214,19.003157 9.56837733,16.390891 8.52621819,13.9404168 C8.29238206,14.0524794 8.05622439,14.1632626 7.82646281,14.2710369 C7.18232967,14.5731794 6.51623664,14.8856515 5.88816478,15.2327611 C5.13915954,15.6467292 4.4083476,16.1349003 3.70158021,16.6070083 C3.62345322,16.6591778 3.54534991,16.711371 3.46724661,16.7634694 C2.95004023,17.1081625 2.43584237,17.4809304 1.93860598,17.841426 C1.79251467,17.9473286 1.64642335,18.0532313 1.50002407,18.1586601 C1.49327264,18.1641803 1.48119115,18.1822809 1.47839582,18.1915208 C1.1096023,19.6660556 0.953087732,21.0276749 1.00003973,22.3536854 C1.0071465,22.5541897 1.01643266,22.7522775 1.02623999,22.961998 C1.0308357,23.0597743 1.03545509,23.158759 1.03993235,23.2595679 L1.051469,23.5189939 L0.078032237,23.5763045 L0,22.6383907 L0,21.1991093 L0.00424036746,21.1757255 C0.00710676111,21.1598045 0.0105890741,21.1438836 0.0141187654,21.1279626 C0.0169140914,21.1154059 0.0206806748,21.098253 0.0212018373,21.0921879 C0.0554564258,20.2392805 0.214624185,19.3998063 0.368556631,18.5879095 C0.392956511,18.4591442 0.417403769,18.3303078 0.441353554,18.2013766 C0.668651463,16.9779282 1.17567149,15.8682956 1.99138553,14.809032 C2.47715634,14.1782122 3.01518554,13.5628157 3.59438657,12.975281 C3.34190703,12.9506888 3.07540349,12.9032103 2.78876413,12.8319925 C1.64597325,12.5480691 0.890429788,11.8671173 0.543122373,10.8079958 C0.214079334,9.80457385 0.181056584,8.7467317 0.445001691,7.66384724 C0.631246211,6.89978432 1.06629844,6.19682274 1.81409553,5.45154748 C1.89653396,5.36936037 1.97980151,5.29210117 2.06610128,5.21337307 C2.03921373,5.19477096 2.0117856,5.17696278 1.98385236,5.15997159 C1.3371371,4.76941105 1.20016613,3.99587138 1.34661278,3.44240553 C1.52120222,2.78237362 1.98029898,2.33372062 2.71113461,2.10883735 C3.02928061,2.01094253 3.36881797,1.96535937 3.77968352,1.96535937 C4.01747574,1.96535937 4.25706835,1.98109077 4.4601322,1.99649049 C4.86445953,2.02714777 5.28255029,2.0588475 5.69812999,2.09710987 C5.71569111,2.09875989 5.7333185,2.09960579 5.75095691,2.09964491 C5.86594431,2.09964491 5.95018312,2.06685535 6.04048636,1.89933011 C6.19171824,1.61869987 6.3732486,1.33143591 6.58000797,1.04552238 C6.94143416,0.54567123 7.40064937,0.219552592 7.94486145,0.0761693733 C8.01640284,0.057310642 8.08723356,0.041768773 8.15574274,0.0267244333 C8.1858754,0.0200907087 8.21600807,0.0135043679 8.24609336,0.00663372458 L8.27506526,0 L8.85798549,0 L8.88712321,0.00672849207 C8.97261755,0.0263927471 9.0609309,0.0452751703 9.14635417,0.0635652966 C9.34145845,0.105262994 9.54319571,0.148382204 9.74206657,0.207043283 C10.4380791,0.412285983 11.0290536,0.747502301 11.498621,1.20340502 C12.4030985,2.08166277 12.6958497,3.15514156 12.3687255,4.39403701 C12.0718998,5.51821641 11.6173987,6.68463842 10.9497422,8.03081067 C11.4678724,7.81343773 11.9368713,7.66493707 12.396205,7.57144893 C12.6085313,7.52823496 12.818465,7.50629628 13.0201786,7.50629628 C13.7671939,7.50629628 14.4436865,7.80403206 15.0309182,8.39111668 C15.7476587,9.10767739 16.2507227,10.0231077 16.568916,11.1896719 C16.7045604,11.6871064 16.9260545,11.8635872 17.4152839,11.8641795 L17.4196901,11.8641795 C17.6703219,11.8641795 17.9165238,11.8392083 18.1514496,11.7899292 C18.4549794,11.7262928 18.716295,11.5370895 18.9988361,11.1764281 C19.4234651,10.6344528 19.6704724,9.9921898 19.8382157,9.49321525 C19.9328304,9.21177949 20.0153398,8.92989358 20.1027293,8.63149443 C20.1421681,8.49611215 20.18214,8.36088579 20.2226441,8.22581848 L20.2914138,7.99752359 L21.1810619,8.17139825 L21.1810619,8.50886529 L21.1703544,8.54523232 C21.1473048,8.6236998 21.124421,8.70216729 21.1014898,8.78065846 C21.0524295,8.94882338 21.0016872,9.12267435 20.9501869,9.29382445 C20.7358944,10.0056705 20.4488997,10.8330618 19.9451724,11.572343 C19.5045059,12.2191074 19.018356,12.5948369 18.4151815,12.7547807 C18.1247045,12.831803 17.8329956,12.8708235 17.5481567,12.8708235 C17.370914,12.8708235 17.1932924,12.8556607 17.0202428,12.8257142 C16.2992618,12.7009528 15.8155283,12.2433205 15.6213953,11.5022861 C15.3920838,10.6270846 15.0346611,9.91090298 14.5286834,9.31280164 C14.4217503,9.18640549 14.299822,9.07142883 14.1946656,8.97566628 C13.8457947,8.65793456 13.4591158,8.50348724 13.0124322,8.50348724 C12.8463709,8.50348724 12.6696494,8.52554437 12.4871952,8.56911373 C11.6658905,8.76525875 10.8850943,9.0965896 10.1074489,9.5796669 C10.2319593,9.6627543 10.3519688,9.74107963 10.4765977,9.81014144 C11.2689068,10.2494125 11.8872424,10.9174996 12.3669962,11.8526652 C12.8193889,12.7345005 13.0631745,13.71904 13.1122822,14.8625045 C13.1446653,15.6164984 13.2702181,16.2203332 13.5074181,16.7628771 C13.9642881,17.8078783 14.7564314,18.4154327 15.9290707,18.6202963 C16.2274836,18.6724184 16.4922578,18.697745 16.7385307,18.697745 C17.0649917,18.697745 17.3599696,18.6536071 17.6402603,18.5627487 C18.2130415,18.3771229 18.7064403,18.0503409 19.1487177,17.5637335 C19.1664372,17.5442588 19.1839436,17.5247367 19.2036293,17.502798 L19.3981176,17.2866333 L20.1751946,17.8674159 L20.0103888,18.0794345 C19.999705,18.0931521 19.9900161,18.1061116 19.9808957,18.1183603 C19.9585805,18.1481883 19.9355309,18.1790115 19.9071749,18.2102373 C19.0136182,19.1941609 17.9377256,19.6930169 16.709393,19.6930169 C16.4996488,19.6930169 16.2821582,19.6783754 16.0630094,19.6494713 C15.2103639,19.5370533 14.5157017,19.2800202 13.9393671,18.863754 C13.1374401,18.2844877 12.6067783,17.4615741 12.317083,16.3479139 C12.1914592,15.8647419 12.1546698,15.3750782 12.119136,14.9015251 C12.1093998,14.7714567 12.0992845,14.6369342 12.0875346,14.5057286 C11.9675725,13.1683934 11.5361447,12.117493 10.7684724,11.2930158 C10.5713782,11.0813289 10.3189224,10.9031423 10.0772925,10.7387918 C9.64946548,10.4478082 9.2107888,10.1562086 8.78651516,9.87420427 C8.2527974,9.51944216 7.70088634,9.1525735 7.1633783,8.78215105 C5.90053055,7.91190116 4.62574343,7.01497421 3.39293358,6.14754364 L2.91043188,5.80811017 C2.82112358,5.89873159 2.73032286,5.98812103 2.6420332,6.07502282 C2.42582184,6.28777584 2.22157352,6.48873031 2.03582648,6.70835398 C1.46008407,7.38911627 1.21582469,8.23728535 1.28914278,9.30133477 C1.31714341,9.70788732 1.37184179,10.0591667 1.45634118,10.3751926 C1.65668077,11.124614 2.11561171,11.5950872 2.85935795,11.8134552 C3.28652167,11.9389037 3.63321317,11.9973041 3.95031685,11.9973041 C4.17216624,11.9973041 4.37842814,11.9691819 4.58092345,11.9113026 C4.64578449,11.8927756 4.71436474,11.8658142 4.78694846,11.8372655 C4.82551448,11.8221027 4.86483856,11.8066556 4.90544185,11.7916113 L5.08737494,11.7241842 L5.62222978,12.4190195 L5.44882481,12.5825408 C5.3525282,12.6733517 5.2561842,12.7631913 5.16017186,12.8527703 C4.9573449,13.0419499 4.74760069,13.2375737 4.54844556,13.4333397 C3.8534517,14.1163053 2.96908634,15.0408333 2.29332812,16.1371747 C2.22569544,16.2468918 2.16332177,16.3594756 2.10310381,16.4750208 C4.23513215,14.9465633 6.17992101,13.8378784 8.14603016,13.0271899 L7.22366733,10.8959637 L8.0961407,10.499575 L8.2075984,10.7326082 C10.288766,15.0843316 11.5818175,19.2342712 12.1606158,23.4195354 L12.1935201,23.6574729 L11.5848734,23.7999558 L11.2536983,23.7999558 L11.2536983,23.7999558 Z M3.72351641,2.96380599 C3.34479712,2.96380599 3.04872945,3.02090341 2.79172528,3.14355624 C2.54035914,3.2634845 2.39114084,3.42584491 2.3221105,3.6544478 C2.24526273,3.9089459 2.30671252,4.16692671 2.47151831,4.28185599 C4.47558311,5.67889199 6.47992667,7.07552796 8.48454888,8.47176382 L9.21573985,8.98106802 C9.25411636,8.93060433 9.29384315,8.88497378 9.33233811,8.84074106 C9.38625473,8.7788105 9.43721021,8.72033896 9.47025665,8.66347846 C10.3830727,7.09493428 11.0204308,5.59386456 11.4186937,4.07448102 C11.6498292,3.19290641 11.4084836,2.43706457 10.7013846,1.8279465 C10.1936065,1.39047606 9.56896956,1.12420309 8.79184523,1.01389373 C8.70860137,1.00204779 8.62675517,0.996053746 8.5485808,0.996053746 C8.13200615,0.996053746 7.78647543,1.16196794 7.49220814,1.50324937 C7.39234319,1.61923315 7.30051547,1.74190292 7.217366,1.87040234 C7.11093041,2.03482394 7.00740859,2.20784569 6.90727432,2.37518139 C6.87119567,2.43547721 6.83511701,2.49577303 6.79877777,2.55590301 C6.59571392,2.89201961 6.27486734,3.07492088 5.87094273,3.08482408 C5.82576742,3.08591391 5.77921813,3.08648251 5.73266885,3.08648251 C5.58120008,3.08648251 5.42504085,3.08079646 5.25528401,3.06906899 C5.07856256,3.05684398 4.90018285,3.04149164 4.72767807,3.02666053 C4.47020012,3.00448494 4.20398084,2.9815512 3.94422873,2.9693262 C3.86503572,2.96560657 3.79283102,2.96380599 3.72351641,2.96380599 L3.72351641,2.96380599 Z" id="Shape"></path>
                </g>
            </g>
        </g>
    </g>
</svg>