<?xml version="1.0" encoding="UTF-8"?>
<svg width="18px" height="18px" viewBox="0 0 18 18" version="1.1" xmlns="http://www.w3.org/2000/svg" xmlns:xlink="http://www.w3.org/1999/xlink">
    <title>编组 141</title>
    <g id="页面-1" stroke="none" stroke-width="1" fill="none" fill-rule="evenodd">
        <g id="编组-17" transform="translate(-3.000000, -3.000000)">
            <g id="编组-141" transform="translate(3.644049, 3.444444)">
                <g id="编组-147">
                    <rect id="矩形" fill="#37542D" x="0" y="0" width="17.1215208" height="17.2222222" rx="8.5607604"></rect>
                    <path d="M2.16302207,12.6117921 L2.1401901,12.6117921 C2.1401901,12.6117921 3.42146664,13.4118618 4.87331144,13.4118618 C4.99955881,13.4118618 5.12580618,13.4041565 5.25339662,13.3913143 C5.54081085,13.3617772 5.8309112,13.2988504 6.11698238,13.1858389 C6.35738961,13.0908066 6.59376767,12.9623844 6.82208739,12.7928673 C6.98056813,12.6747189 7.30961714,12.2984421 7.44929509,11.9979344 L6.43797304,11.0309159 C6.43528692,11.0309159 4.75915158,12.6117921 2.16302207,12.6117921 Z M6.55750513,12.4679593 C6.08340595,12.8211201 5.51663582,13.0009111 4.87465449,13.0009111 C4.47710957,13.0009111 4.09030911,12.9328474 3.74514342,12.8390992 C5.02373384,12.5385915 5.9531294,11.9388602 6.41514107,11.5908363 L6.91341528,12.0672823 C6.78582484,12.2445048 6.63003021,12.414022 6.55750513,12.4679593 Z M14.0396766,4.18986986 C14.0396766,4.18986986 11.3871387,6.85462872 10.8512589,7.36574874 C10.3167221,7.87686875 8.80712588,9.07761551 7.74745378,9.7698107 C6.68643861,10.4607217 6.67703721,10.7933349 6.67703721,10.7933349 L7.18336977,11.2774863 L7.68970232,11.7616377 C7.68970232,11.7616377 8.03621107,11.7526481 8.76011888,10.7381134 C9.48268364,9.72357874 10.7384421,8.28139841 11.2743219,7.77027839 C11.8088587,7.25915838 14.5957023,4.72153742 14.5957023,4.72153742 L14.3176894,4.45570364 L14.0396766,4.18986986 L14.0396766,4.18986986 Z M15.0335389,4.08970062 L14.8643137,3.92917297 L14.6964316,3.76736111 L14.5272064,3.92917297 L14.4063312,3.81230885 L14.237106,3.97283649 L14.5272064,4.25151248 L14.8186498,4.52890424 L14.9865319,4.36709238 L14.8643137,4.25151248 L15.0335389,4.08970062 Z" id="形状" fill="#FFFFFF" fill-rule="nonzero"></path>
                </g>
                <g id="maobi" transform="translate(2.140190, 3.767361)"></g>
            </g>
        </g>
    </g>
</svg>