<?xml version="1.0" encoding="UTF-8"?>
<svg width="343px" height="22px" viewBox="0 0 343 22" version="1.1" xmlns="http://www.w3.org/2000/svg" xmlns:xlink="http://www.w3.org/1999/xlink">
    <title>编组 18</title>
    <g id="页面-1" stroke="none" stroke-width="1" fill="none" fill-rule="evenodd">
        <g id="3.3" transform="translate(-1070.000000, -77.000000)">
            <g id="编组-18" transform="translate(1071.000000, 79.000000)">
                <g id="编组-13" transform="translate(58.136367, 1.338403)">
                    <g id="编组-6" fill-rule="nonzero">
                        <ellipse id="Oval" stroke="#978778" stroke-width="0.6048" cx="7.4954435" cy="7.35899855" rx="7.4954435" ry="7.35899855"></ellipse>
                        <g id="shiren" transform="translate(4.055555, 2.390437)" fill="#000000">
                            <path d="M4.73118641,9.82253037 L4.71404659,9.7340695 C4.69821773,9.65248038 4.68234273,9.57089989 4.66642161,9.48932807 C4.63256027,9.31559393 4.59752374,9.13594414 4.56394126,8.95894417 C4.35206885,7.84283332 4.02265774,6.76471947 3.58452185,5.75337907 C3.48621441,5.79962865 3.38693096,5.84535022 3.2903365,5.88982999 C3.0195354,6.01452785 2.7395021,6.14348888 2.47545334,6.28674524 C2.16056278,6.4575949 1.85332089,6.65906901 1.55618761,6.85391369 C1.52334211,6.87544468 1.49050657,6.89698544 1.45767103,6.9184871 C1.24023141,7.06074611 1.02405662,7.21459195 0.81501263,7.36337284 C0.75359413,7.40708016 0.692175631,7.45078747 0.630627662,7.49429923 C0.627789285,7.49657749 0.622710083,7.50404782 0.621534896,7.50786121 C0.466489785,8.11641962 0.40068923,8.67837643 0.4204284,9.22563703 C0.423416166,9.3083876 0.42732018,9.39014082 0.431443296,9.476695 C0.433375384,9.51704849 0.435317432,9.55790065 0.437199724,9.59950572 L0.442049863,9.70657398 L0.0328056651,9.73022678 L0,9.34313834 L0,8.74912949 L0.00178270008,8.73947868 C0.00298776549,8.73290791 0.00445177058,8.72633715 0.00593569411,8.71976638 C0.00711088187,8.71458408 0.00869439758,8.70750487 0.00891350038,8.70500172 C0.02331453,8.35299647 0.0902305178,8.00653531 0.154945518,7.67145565 C0.165203513,7.61831264 0.175481426,7.56514029 0.185550196,7.51192883 C0.281108896,7.00699686 0.494266045,6.54903804 0.837201768,6.11186708 C1.0414255,5.85152009 1.26761926,5.59753852 1.51112215,5.3550558 C1.4049768,5.34490632 1.2929356,5.32531136 1.17242906,5.29591892 C0.691986406,5.17874028 0.374347097,4.89770321 0.228334998,4.46059092 C0.0900014558,4.04646652 0.0761183055,3.60988224 0.187083916,3.16296269 C0.26538329,2.84762466 0.448284334,2.55750389 0.762666978,2.24991975 C0.797325058,2.21600013 0.83233171,2.18411432 0.868613142,2.15162229 C0.857309302,2.14394497 0.845778194,2.13659532 0.834034736,2.12958285 C0.562148077,1.96839378 0.504563877,1.64914458 0.566131764,1.4207225 C0.639531203,1.14831933 0.832540854,0.963154797 1.1397927,0.870342747 C1.273545,0.829940368 1.41629048,0.811127643 1.58902316,0.811127643 C1.68899379,0.811127643 1.78972132,0.817620184 1.87509174,0.823975834 C2.04507568,0.836628467 2.22084593,0.849711329 2.39556049,0.865502675 C2.40294339,0.866183658 2.41035416,0.866532769 2.41776955,0.866548913 C2.46611159,0.866548913 2.50152657,0.853016267 2.53949111,0.78387657 C2.60307076,0.668057066 2.67938825,0.549499744 2.76631231,0.431499763 C2.91826011,0.225205134 3.11131955,0.0906120169 3.34011267,0.031436024 C3.37018951,0.0236527969 3.39996758,0.0172384791 3.42876964,0.0110294977 C3.44143776,0.00829167912 3.45410589,0.00557341639 3.46675409,0.00273781858 L3.47893422,0 L3.7240007,0 L3.73625054,0.00277693027 C3.77219336,0.0108926068 3.80932133,0.0186856118 3.84523427,0.0262341687 C3.92725839,0.043443314 4.01207109,0.0612391348 4.09567873,0.0854492733 C4.38829052,0.170155425 4.63674314,0.308503264 4.83415477,0.496659846 C5.21440768,0.859127469 5.3374837,1.30216518 5.19995685,1.81347236 C5.07516785,2.27743483 4.88409029,2.75883133 4.60339968,3.31441295 C4.8212277,3.2247005 5.0184003,3.16341247 5.21150955,3.12482879 C5.30077402,3.10699386 5.38903261,3.0979395 5.47383536,3.0979395 C5.78788935,3.0979395 6.07229474,3.22081866 6.31917381,3.46311561 C6.62049992,3.7588489 6.83199388,4.13665809 6.9657661,4.61811326 C7.02279258,4.82341054 7.11591127,4.8962463 7.32158905,4.89649074 L7.32344146,4.89649074 C7.42880999,4.89649074 7.53231615,4.88618481 7.63108171,4.86584673 C7.75868918,4.83958323 7.86854932,4.76149673 7.98733291,4.6126474 C8.1658519,4.38896763 8.26969667,4.1238979 8.34021789,3.91796505 C8.37999501,3.8018131 8.41468297,3.68547536 8.45142253,3.56232242 C8.46800304,3.50644851 8.4848077,3.45063895 8.50183609,3.39489503 L8.5307477,3.30067496 L8.90476614,3.37243514 L8.90476614,3.51171189 L8.90026458,3.526721 C8.89057426,3.55910548 8.88095365,3.59148996 8.87131313,3.62388422 C8.85068759,3.69328793 8.82935494,3.76503833 8.8077036,3.83567405 C8.71761251,4.12946154 8.59695658,4.47093596 8.38518377,4.77604628 C8.19992239,5.04297382 7.99553931,5.1980419 7.74195769,5.26405267 C7.61983776,5.2958407 7.49719994,5.31194494 7.3774503,5.31194494 C7.30293543,5.31194494 7.22826121,5.30568706 7.15550912,5.29332777 C6.85240031,5.24183722 6.64903308,5.05296685 6.56741728,4.74713296 C6.47101205,4.38592669 6.32074736,4.09034984 6.10802842,3.84350616 C6.06307251,3.79134094 6.01181241,3.74388868 5.96760344,3.70436631 C5.82093403,3.57323458 5.65836971,3.5094923 5.47057869,3.5094923 C5.40076457,3.5094923 5.3264688,3.51859554 5.24976291,3.53657715 C4.90447681,3.61752857 4.57622097,3.75427283 4.24928971,3.95364469 C4.30163536,3.98793587 4.35208876,4.02026169 4.40448421,4.04876433 C4.73758023,4.23005681 4.99753574,4.50578448 5.19922983,4.89173867 C5.38942102,5.25568276 5.49191134,5.66201415 5.5125568,6.13393585 C5.52617105,6.44511827 5.57895491,6.6943282 5.67867656,6.91824265 C5.87075004,7.3495273 6.20377634,7.60027237 6.69676761,7.68482207 C6.82222388,7.7063335 6.93353807,7.7167861 7.0370741,7.7167861 C7.17432209,7.7167861 7.29833427,7.69856983 7.41617174,7.6610715 C7.65697568,7.58446147 7.86440628,7.44959457 8.05034489,7.2487658 C8.05779438,7.24072834 8.06515424,7.23267134 8.07343035,7.22361698 L8.15519554,7.1344032 L8.48188778,7.37409922 L8.41260149,7.46160186 C8.40810989,7.46726328 8.40403657,7.4726118 8.40020227,7.47766699 C8.39082068,7.48997739 8.38113036,7.50269847 8.36920918,7.51558577 C7.99354746,7.92166294 7.54122965,8.12754689 7.02482426,8.12754689 C6.93664534,8.12754689 6.84520976,8.12150414 6.75307703,8.10957507 C6.39461489,8.06317882 6.10257077,7.95709813 5.86027295,7.78530001 C5.52313349,7.54622979 5.30003704,7.20660339 5.17824576,6.74698232 C5.12543202,6.54757135 5.10996536,6.34548123 5.09502653,6.15004009 C5.09093329,6.09635929 5.08668071,6.04084024 5.08174093,5.9866901 C5.03130745,5.43475565 4.84993017,5.0010363 4.52719174,4.66076456 C4.44433104,4.57339882 4.33819565,4.49985906 4.23661163,4.4320296 C4.05674815,4.31193714 3.87232334,4.19159046 3.69395374,4.07520384 C3.46957255,3.92878921 3.23754268,3.77737807 3.01156802,3.62450023 C2.48065205,3.26533755 1.94471664,2.89516492 1.42642896,2.53716581 L1.2235796,2.3970775 C1.18603335,2.43447806 1.14785966,2.47137016 1.11074166,2.50723558 C1.01984387,2.59504134 0.933975492,2.67797768 0.855885261,2.76861904 C0.61383642,3.04957789 0.51114692,3.39962755 0.541970701,3.83877365 C0.553742497,4.00656282 0.576738332,4.15154009 0.612262863,4.28196781 C0.696487973,4.59126308 0.889427909,4.78543309 1.20210753,4.87555621 C1.38169215,4.92733031 1.52744531,4.9514329 1.66075941,4.9514329 C1.75402749,4.9514329 1.8407424,4.9398265 1.9258738,4.91593903 C1.95314214,4.9082927 1.98197407,4.89716542 2.01248912,4.88538302 C2.02870273,4.87912515 2.04523503,4.87274995 2.06230513,4.86654096 L2.13879193,4.83871299 L2.36365116,5.12547993 L2.29074968,5.19296716 C2.25026546,5.23044594 2.20976132,5.26752383 2.1693966,5.30449416 C2.08412578,5.38257088 1.99594686,5.46330719 1.91221971,5.54410217 C1.62003616,5.82597037 1.24823863,6.20753428 0.964141964,6.66000769 C0.935708396,6.70528925 0.909485774,6.75175395 0.884169441,6.79944088 C1.78049909,6.16862792 2.59811107,5.71106022 3.42468636,5.37647923 L3.03691423,4.49689635 L3.40371224,4.33330191 L3.45057036,4.42947756 C4.32551757,6.22548655 4.86913154,7.93821696 5.11246512,9.66552626 L5.12629848,9.76372594 L4.87041628,9.82253037 L4.73118641,9.82253037 L4.73118641,9.82253037 Z M1.56540985,1.22319867 C1.40619183,1.22319867 1.28172152,1.24676347 1.17367396,1.29738378 C1.06799669,1.34687963 1.00526358,1.41388774 0.976242415,1.50823492 C0.94393471,1.61326937 0.969768923,1.71974118 1.0390552,1.76717389 C1.88158748,2.34374759 2.72423696,2.92015619 3.56700359,3.49639966 L3.87440482,3.70659568 C3.89053875,3.6857687 3.90724036,3.66693642 3.92342409,3.64868104 C3.94609127,3.62312155 3.96751355,3.59898963 3.98140666,3.57552261 C4.36516522,2.92816541 4.63311799,2.30865574 4.80055236,1.68158773 C4.89772446,1.31775119 4.79625994,1.0058061 4.49898723,0.754415687 C4.28551139,0.573866329 4.02290672,0.463972247 3.69619456,0.418446236 C3.66119787,0.413557274 3.62678877,0.411083459 3.59392335,0.411083459 C3.4187905,0.411083459 3.27352534,0.479558257 3.14981193,0.620409245 C3.10782754,0.668277157 3.06922209,0.718904456 3.03426508,0.771937725 C2.98951831,0.839796514 2.94599653,0.91120469 2.90389891,0.980266163 C2.88873102,1.00515098 2.87356313,1.03003579 2.85828569,1.05485216 C2.77291527,1.19357156 2.63802762,1.26905713 2.46821299,1.27314431 C2.44922076,1.27359409 2.4296509,1.27382876 2.41008103,1.27382876 C2.34640179,1.27382876 2.28075062,1.27148206 2.20938287,1.26664199 C2.1350871,1.26159658 2.06009418,1.25526048 1.98757116,1.2491395 C1.87932441,1.23998737 1.76740272,1.23052234 1.65819989,1.22547693 C1.62490622,1.22394179 1.59455052,1.22319867 1.56540985,1.22319867 L1.56540985,1.22319867 Z" id="Shape"></path>
                        </g>
                    </g>
                    <text id="Figure" font-family="TimesNewRomanPSMT, Times New Roman" font-size="11.305" font-weight="normal" fill="#1E1E1E">
                        <tspan x="20.9872418" y="10.4759187">Figure</tspan>
                    </text>
                </g>
                <g id="编组-16" transform="translate(115.673099, 0.000000)">
                    <line x1="15.4400247" y1="15.1011051" x2="2.54903967" y2="2.55403607" id="路径-6" stroke="#DDDDDD" stroke-width="3.48" transform="translate(8.994532, 8.827571) rotate(135.774577) translate(-8.994532, -8.827571) "></line>
                    <text id="Event-number" font-family="TimesNewRomanPSMT, Times New Roman" font-size="11.305" font-weight="normal" fill="#1E1E1E">
                        <tspan x="21.0720648" y="12.4030421">Event number</tspan>
                    </text>
                </g>
                <g id="编组-17" transform="translate(208.080802, 0.160964)">
                    <g id="编组-7">
                        <g id="编组" transform="translate(38.976306, 3.532319)" fill-rule="nonzero">
                            <g id="编组-6" stroke="#978778" stroke-width="0.504">
                                <ellipse id="Oval" cx="5.9963548" cy="5.88719884" rx="5.9963548" ry="5.88719884"></ellipse>
                            </g>
                            <path d="M1.92241091,8.32022041 L1.90793107,8.32022041 C1.90793107,8.32022041 2.72050529,8.83079826 3.64125238,8.83079826 C3.72131735,8.83079826 3.80138231,8.82588098 3.88229903,8.81768551 C4.06457459,8.79883592 4.24855366,8.75867812 4.42997746,8.68655797 C4.58244159,8.62591148 4.73235046,8.54395677 4.8771488,8.43577655 C4.97765589,8.36037822 5.18633585,8.12025092 5.27491836,7.92847689 L4.63354689,7.31135792 C4.63184338,7.31135792 3.56885321,8.32022041 1.92241091,8.32022041 Z M4.70935308,8.22843114 C4.40868359,8.45380659 4.049243,8.56854319 3.64210414,8.56854319 C3.38998467,8.56854319 3.14467925,8.52510719 2.92577823,8.46528025 C3.73664894,8.27350623 4.32606336,7.89077773 4.61906706,7.66868046 L4.93506814,7.97273244 C4.85415142,8.08582994 4.75534785,8.19401016 4.70935308,8.22843114 Z M9.45447987,2.94563047 C9.45447987,2.94563047 7.77226386,4.64619072 7.43241363,4.97237047 C7.09341517,5.29855022 6.13604261,6.06482677 5.46400796,6.50656266 C4.79112156,6.947479 4.78515927,7.15974171 4.78515927,7.15974171 L5.10627088,7.46871097 L5.4273825,7.77768023 C5.4273825,7.77768023 5.64713527,7.7719434 6.10623119,7.12450118 C6.56447535,6.47705896 7.36086622,5.55670756 7.70071644,5.23052781 C8.03971491,4.90434806 9.80710642,3.28492298 9.80710642,3.28492298 L9.63079314,3.11527672 L9.45447987,2.94563047 L9.45447987,2.94563047 Z M10.0847785,2.8817058 L9.9774574,2.77926241 L9.87098804,2.67599947 L9.76366691,2.77926241 L9.68700897,2.70468362 L9.57968785,2.80712701 L9.76366691,2.98496873 L9.94849774,3.16199091 L10.0549671,3.05872797 L9.9774574,2.98496873 L10.0847785,2.8817058 Z" id="形状" fill="#000000"></path>
                        </g>
                        <g id="编组" fill-rule="nonzero">
                            <g id="编组-6" stroke="#978778" stroke-width="0.504">
                                <ellipse id="Oval" cx="9.29434994" cy="9.1251582" rx="9.29434994" ry="9.1251582"></ellipse>
                            </g>
                            <path d="M2.97973691,12.8963416 L2.95729316,12.8963416 C2.95729316,12.8963416 4.2167832,13.6877373 5.64394119,13.6877373 C5.76804189,13.6877373 5.89214258,13.6801155 6.0175635,13.6674125 C6.30009061,13.6381957 6.58525817,13.5759511 6.86646506,13.4641649 C7.10278447,13.3701628 7.33514322,13.243133 7.55958065,13.0754537 C7.71536663,12.9585862 8.03882057,12.5863889 8.17612346,12.2891392 L7.18199768,11.3326048 C7.17935724,11.3326048 5.53172248,12.8963416 2.97973691,12.8963416 Z M7.29949727,12.7540683 C6.83345956,13.1034002 6.27632665,13.2812419 5.64526141,13.2812419 C5.25447624,13.2812419 4.87425284,13.2139161 4.53495626,13.1211844 C5.79180585,12.8239347 6.7053982,12.2307055 7.15955394,11.8864547 L7.64935562,12.3577353 C7.5239347,12.5330364 7.37078916,12.7007157 7.29949727,12.7540683 Z M14.6544438,4.56572723 C14.6544438,4.56572723 12.047009,7.20159562 11.5202411,7.70717423 C10.9947935,8.21275284 9.51086605,9.40048149 8.46921234,10.0851721 C7.42623841,10.7685925 7.41699687,11.0975996 7.41699687,11.0975996 L7.91471987,11.576502 L8.41244287,12.0554044 C8.41244287,12.0554044 8.75305967,12.0465123 9.46465834,11.0429768 C10.1749368,10.0394414 11.4093426,8.61289672 11.9361105,8.10731811 C12.4615581,7.6017395 15.2010149,5.09163061 15.2010149,5.09163061 L14.9277294,4.82867892 L14.6544438,4.56572723 L14.6544438,4.56572723 Z M15.6314067,4.46664399 L15.465059,4.30785673 L15.3000315,4.14779918 L15.1336837,4.30785673 L15.0148639,4.19225961 L14.8485162,4.35104687 L15.1336837,4.62670154 L15.4201715,4.90108591 L15.585199,4.74102836 L15.465059,4.62670154 L15.6314067,4.46664399 Z" id="形状" fill="#000000"></path>
                        </g>
                        <line x1="11.3090059" y1="0" x2="45.2724787" y2="3.82667925" id="路径-7" stroke="#979797" stroke-width="0.6" stroke-dasharray="1.8"></line>
                        <line x1="11.0932564" y1="18.5446763" x2="45.2724787" y2="15.6010769" id="路径-7" stroke="#979797" stroke-width="0.6" stroke-dasharray="1.8"></line>
                    </g>
                    <text id="Painting-number" font-family="TimesNewRomanPSMT, Times New Roman" font-size="11.305" font-weight="normal" fill="#1E1E1E">
                        <tspan x="56.9653706" y="12.8307983">Painting number</tspan>
                    </text>
                </g>
                <g id="编组-12" transform="translate(0.000000, 1.338403)">
                    <text id="Painter" font-family="TimesNewRomanPSMT, Times New Roman" font-size="11.305" font-weight="normal" fill="#1E1E1E">
                        <tspan x="21.5868773" y="11.0646386">Painter</tspan>
                    </text>
                    <g id="编组" fill-rule="nonzero">
                        <g id="编组-6" fill="#D6BF9D" stroke="#978778" stroke-width="0.504">
                            <ellipse id="Oval" cx="7.4954435" cy="7.35899855" rx="7.4954435" ry="7.35899855"></ellipse>
                        </g>
                        <path d="M2.40301363,10.4002755 L2.38491384,10.4002755 C2.38491384,10.4002755 3.40063161,11.0384978 4.55156548,11.0384978 C4.65164668,11.0384978 4.75172789,11.0323512 4.85287379,11.0221069 C5.08071824,10.9985449 5.31069207,10.9483476 5.53747182,10.8581975 C5.72805199,10.7823894 5.91543808,10.679946 6.09643601,10.5447207 C6.22206986,10.4504728 6.48291981,10.1503136 6.59364795,9.91059612 L5.79193361,9.1391974 C5.78980423,9.1391974 4.46106651,10.4002755 2.40301363,10.4002755 Z M5.88669135,10.2855389 C5.51085448,10.5672582 5.06155375,10.710679 4.55263017,10.710679 C4.23748084,10.710679 3.93084906,10.656384 3.65722279,10.5816003 C4.67081117,10.3418828 5.4075792,9.86347216 5.77383382,9.58585058 L6.16883518,9.96591555 C6.06768928,10.1072874 5.94418481,10.2425127 5.88669135,10.2855389 Z M11.8180998,3.68203809 C11.8180998,3.68203809 9.71532982,5.8077384 9.29051704,6.21546309 C8.86676896,6.62318778 7.67005326,7.58103346 6.83000995,8.13320333 C5.98890194,8.68434876 5.98144909,8.94967713 5.98144909,8.94967713 L6.3828386,9.33588871 L6.78422812,9.72210028 C6.78422812,9.72210028 7.05891909,9.71492925 7.63278898,8.90562648 C8.20559418,8.09632371 9.20108277,6.94588445 9.62589555,6.53815976 C10.0496436,6.13043508 12.258883,4.10615372 12.258883,4.10615372 L12.0384914,3.8940959 L11.8180998,3.68203809 L11.8180998,3.68203809 Z M12.6059732,3.60213225 L12.4718218,3.47407801 L12.338735,3.34499934 L12.2045836,3.47407801 L12.1087612,3.38085453 L11.9746098,3.50890876 L12.2045836,3.73121092 L12.4356222,3.95248864 L12.5687089,3.82340997 L12.4718218,3.73121092 L12.6059732,3.60213225 Z" id="形状" fill="#000000"></path>
                    </g>
                </g>
            </g>
        </g>
    </g>
</svg>