<?xml version="1.0" encoding="UTF-8"?>
<svg width="31px" height="32px" viewBox="0 0 31 32" version="1.1" xmlns="http://www.w3.org/2000/svg" xmlns:xlink="http://www.w3.org/1999/xlink">
    <title>guanlian</title>
    <defs>
        <filter x="-26.0%" y="-25.8%" width="151.9%" height="151.6%" filterUnits="objectBoundingBox" id="filter-1">
            <feOffset dx="0" dy="1" in="SourceAlpha" result="shadowOffsetOuter1"></feOffset>
            <feGaussianBlur stdDeviation="0.5" in="shadowOffsetOuter1" result="shadowBlurOuter1"></feGaussianBlur>
            <feColorMatrix values="0 0 0 0 0.690196078   0 0 0 0 0.690196078   0 0 0 0 0.690196078  0 0 0 0.5 0" type="matrix" in="shadowBlurOuter1" result="shadowMatrixOuter1"></feColorMatrix>
            <feMerge>
                <feMergeNode in="shadowMatrixOuter1"></feMergeNode>
                <feMergeNode in="SourceGraphic"></feMergeNode>
            </feMerge>
        </filter>
    </defs>
    <g id="页面-1" stroke="none" stroke-width="1" fill="none" fill-rule="evenodd">
        <g id="3.3" transform="translate(-767.000000, -53.000000)" fill="#0F1010" fill-rule="nonzero">
            <g id="编组-17" transform="translate(696.000000, 56.000000)">
                <g id="guanlian" filter="url(#filter-1)" transform="translate(86.683424, 12.916667) rotate(135.000000) translate(-86.683424, -12.916667) translate(78.978740, 5.166667)">
                    <path d="M10.7009983,9.79968701 L10.7009983,7.77079142 C10.7009983,7.42600045 10.4238328,7.14704896 10.0812494,7.14704896 C9.73866594,7.14704896 9.46150045,7.42600045 9.46150045,7.77079142 L9.46150045,9.52246814 L1.23949788,9.52246814 L1.23949788,1.24748491 L9.46150045,1.24748491 L9.46150045,2.95931142 C9.46150045,3.30410239 9.73866594,3.58305388 10.0812494,3.58305388 C10.4238328,3.58305388 10.7009983,3.30410239 10.7009983,2.95931142 L10.7009983,0.970266041 C10.7009983,0.4348871 10.2688956,-6.00328391e-12 9.73694442,-6.00328391e-12 L0.964053903,-6.00328391e-12 C0.432102731,-6.00328391e-12 7.6866609e-13,0.4348871 7.6866609e-13,0.970266041 L7.6866609e-13,9.79968701 C7.6866609e-13,10.335066 0.432102731,10.7699531 0.964053903,10.7699531 L9.73694442,10.7699531 C10.2688956,10.7699531 10.7009983,10.335066 10.7009983,9.79968701 L10.7009983,9.79968701 Z" id="路径"></path>
                    <path d="M14.4453148,4.73177957 L5.6724243,4.73177957 C5.14047313,4.73177957 4.7083704,5.16666667 4.7083704,5.70204561 L4.7083704,7.74653476 C4.7083704,8.09132573 4.9855359,8.37027722 5.32811934,8.37027722 C5.67070278,8.37027722 5.94786828,8.09132573 5.94786828,7.74653476 L5.94786828,5.97926448 L14.1698708,5.97926448 L14.1698708,14.2542477 L5.94786828,14.2542477 L5.94786828,12.4731165 C5.94786828,12.1283255 5.67070278,11.849374 5.32811934,11.849374 C4.9855359,11.849374 4.7083704,12.1283255 4.7083704,12.4731165 L4.7083704,14.529734 C4.7083704,15.0651129 5.14047313,15.5 5.6724243,15.5 L14.4453148,15.5 C14.977266,15.5 15.4093687,15.0651129 15.4093687,14.529734 L15.4093687,5.70204561 C15.4093687,5.16666667 14.977266,4.73177957 14.4453148,4.73177957 Z" id="路径"></path>
                </g>
            </g>
        </g>
    </g>
</svg>