<?xml version="1.0" encoding="UTF-8"?>
<svg width="196px" height="30px" viewBox="0 0 196 30" version="1.1" xmlns="http://www.w3.org/2000/svg" xmlns:xlink="http://www.w3.org/1999/xlink">
    <title>编组 30</title>
    <g id="页面-1" stroke="none" stroke-width="1" fill="none" fill-rule="evenodd">
        <g id="3.3" transform="translate(-1070.000000, -44.000000)">
            <g id="编组-30" transform="translate(1070.857864, 44.857864)">
                <g id="编组-15" transform="translate(39.142136, 3.142136)" fill="#000000" font-family="TimesNewRomanPS-BoldMT, Times New Roman" font-size="20" font-weight="bold">
                    <text id="Linked-Data-View">
                        <tspan x="0" y="18">Linked Data View</tspan>
                    </text>
                </g>
                <g id="guanlian" transform="translate(14.142136, 14.142136) rotate(135.000000) translate(-14.142136, -14.142136) translate(4.142136, 4.142136)" fill="#0F1010" fill-rule="nonzero">
                    <path d="M13.888951,12.6447574 L13.888951,10.0268276 C13.888951,9.58193606 13.5292146,9.22199866 13.0845716,9.22199866 C12.6399285,9.22199866 12.2801922,9.58193606 12.2801922,10.0268276 L12.2801922,12.2870557 L1.6087588,12.2870557 L1.6087588,1.60965795 L12.2801922,1.60965795 L12.2801922,3.81846635 C12.2801922,4.26335793 12.6399285,4.62329533 13.0845716,4.62329533 C13.5292146,4.62329533 13.888951,4.26335793 13.888951,3.81846635 L13.888951,1.25195618 C13.888951,0.561144646 13.3281198,4.38257544e-12 12.6376941,4.38257544e-12 L1.25125684,4.38257544e-12 C0.560831192,4.38257544e-12 1.22271063e-12,0.561144646 1.22271063e-12,1.25195618 L1.22271063e-12,12.6447574 C1.22271063e-12,13.335569 0.560831192,13.8967136 1.25125684,13.8967136 L12.6376941,13.8967136 C13.3281198,13.8967136 13.888951,13.335569 13.888951,12.6447574 L13.888951,12.6447574 Z" id="路径"></path>
                    <path d="M18.7487432,6.10552202 L7.36230589,6.10552202 C6.67188024,6.10552202 6.11104904,6.66666667 6.11104904,7.3574782 L6.11104904,9.99552873 C6.11104904,10.4404203 6.47078539,10.8003577 6.91542844,10.8003577 C7.3600715,10.8003577 7.71980784,10.4404203 7.71980784,9.99552873 L7.71980784,7.71517997 L18.3912412,7.71517997 L18.3912412,18.3925777 L7.71980784,18.3925777 L7.71980784,16.0943438 C7.71980784,15.6494523 7.3600715,15.2895149 6.91542844,15.2895149 C6.47078539,15.2895149 6.11104904,15.6494523 6.11104904,16.0943438 L6.11104904,18.7480438 C6.11104904,19.4388554 6.67188024,20 7.36230589,20 L18.7487432,20 C19.4391688,20 20,19.4388554 20,18.7480438 L20,7.3574782 C20,6.66666667 19.4391688,6.10552202 18.7487432,6.10552202 Z" id="路径"></path>
                </g>
            </g>
        </g>
    </g>
</svg>