<?xml version="1.0" encoding="UTF-8"?>
<svg width="18px" height="18px" viewBox="0 0 18 18" version="1.1" xmlns="http://www.w3.org/2000/svg" xmlns:xlink="http://www.w3.org/1999/xlink">
    <title>编组 125</title>
    <g id="页面-1" stroke="none" stroke-width="1" fill="none" fill-rule="evenodd">
        <g id="3.3" transform="translate(-720.000000, -59.000000)">
            <g id="编组-17" transform="translate(696.000000, 56.000000)">
                <g id="编组-148" transform="translate(3.644049, 3.444444)">
                    <g id="编组-125" transform="translate(20.545825, 0.000000)">
                        <g id="编组-144">
                            <rect id="矩形" fill="#37542D" x="0" y="0" width="17.1215208" height="17.2222222" rx="8.5607604"></rect>
                            <path d="M9.68162053,14.53125 L9.66205328,14.4246174 C9.64398266,14.3262683 9.62585937,14.2279295 9.60768344,14.1296012 C9.56902647,13.9201785 9.52902787,13.703625 9.49068931,13.4902656 C9.24881045,12.1448829 8.87274654,10.8453026 8.37255969,9.62621232 C8.26032946,9.68196245 8.146985,9.73707618 8.03671036,9.79069302 C7.72755707,9.94100633 7.40786407,10.0964586 7.10641943,10.2691427 C6.74693252,10.4750884 6.39617753,10.7179494 6.05696277,10.9528191 C6.01946553,10.978773 5.98197965,11.0047387 5.94449378,11.0306572 C5.69625929,11.2021391 5.44946876,11.387588 5.21081893,11.5669315 C5.14070204,11.6196172 5.07058515,11.6723029 5.00032046,11.7247528 C4.9970801,11.7274991 4.99128155,11.736504 4.98993993,11.7411007 C4.81293657,12.4746694 4.73781701,13.1520636 4.76035174,13.8117426 C4.76376265,13.9114918 4.76821957,14.0100388 4.77292662,14.114373 C4.77513234,14.1630159 4.77734943,14.2122599 4.7794983,14.2624115 L4.78503534,14.3914738 L4.31783197,14.4199854 L4.2803802,13.9533811 L4.2803802,13.2373507 L4.28241538,13.2257174 C4.28379111,13.2177969 4.28546245,13.2098764 4.28715654,13.2019558 C4.28849816,13.195709 4.29030594,13.1871756 4.29055607,13.1841582 C4.30699665,12.759844 4.38338961,12.3422126 4.45726987,11.9383008 C4.46898065,11.8742411 4.48071417,11.8101461 4.49220893,11.7460039 C4.60130112,11.1373487 4.84464664,10.5853158 5.2361506,10.058341 C5.46929751,9.74451345 5.72752595,9.43835894 6.00551491,9.14606532 C5.88433674,9.13383093 5.7564277,9.11021078 5.61885443,9.07478055 C5.07036913,8.93353102 4.70774418,8.59476322 4.54105313,8.06785917 C4.38312811,7.56866522 4.36727876,7.04239764 4.49395986,6.50367174 C4.58334838,6.12355686 4.79215277,5.77383939 5.15105983,5.40307122 C5.19062636,5.36218382 5.23059083,5.32374802 5.27201062,5.28458146 C5.25910587,5.27532706 5.24594167,5.26646764 5.23253504,5.25801467 C4.92214245,5.06371409 4.8564029,4.67888461 4.92669033,4.40354001 C5.01048496,4.07517969 5.23082959,3.85197859 5.58159595,3.74010106 C5.73429091,3.69139921 5.8972527,3.66872197 6.09444864,3.66872197 C6.20857761,3.66872197 6.32357067,3.67654821 6.42103167,3.68420944 C6.61508957,3.69946118 6.81575326,3.71523153 7.01521176,3.73426674 C7.02364027,3.73508761 7.03210058,3.73550844 7.04056618,3.7355279 C7.09575467,3.7355279 7.13618529,3.71921537 7.17952655,3.63587297 C7.25211067,3.49626179 7.33923661,3.35335038 7.43847128,3.21111081 C7.61193867,2.96243907 7.83234015,2.80019779 8.09353608,2.72886584 C8.12787255,2.71948378 8.16186793,2.71175184 8.19474908,2.7042674 C8.20921132,2.70096718 8.22367357,2.69769053 8.23811308,2.69427244 L8.25201822,2.69097222 L8.53179222,2.69097222 L8.54577694,2.69431959 C8.58681016,2.70410239 8.62919637,2.71349624 8.67019548,2.72259542 C8.76383626,2.74333968 8.86066056,2.76479112 8.95610912,2.79397451 C9.29016201,2.89608103 9.57380173,3.06284833 9.79917179,3.2896561 C10.233278,3.72658194 10.3737846,4.2606286 10.2167806,4.87696866 C10.0743183,5.43623845 9.85617938,6.01652359 9.53573599,6.68623295 C9.78441391,6.57809175 10.009511,6.50421392 10.2299694,6.45770436 C10.331876,6.43620577 10.4326342,6.42529146 10.5294471,6.42529146 C10.8879789,6.42529146 11.2126632,6.5734125 11.4945065,6.86548216 C11.8385079,7.22196509 12.0799547,7.67738395 12.2326724,8.25773983 C12.2977753,8.50520931 12.4040818,8.59300701 12.6388888,8.59330167 L12.6410035,8.59330167 C12.7612948,8.59330167 12.8794601,8.58087873 12.9922133,8.55636276 C13.1378932,8.52470422 13.2633122,8.43057717 13.3989185,8.25115115 C13.6027203,7.98152303 13.7212721,7.66200257 13.8017808,7.41376693 C13.8471914,7.273755 13.886792,7.13351913 13.9287348,6.98506807 C13.9476636,6.91771653 13.9668481,6.85044255 13.9862882,6.7832477 L14.0192944,6.66967291 L14.4462832,6.75617409 L14.4462832,6.92406111 L14.4411441,6.9421534 C14.4300814,6.98119031 14.4190983,7.02022722 14.4080924,7.05927593 C14.3845458,7.14293656 14.3601919,7.22942595 14.3354742,7.31457168 C14.2326239,7.66870911 14.0948801,8.08032929 13.853115,8.44811549 C13.641616,8.76987536 13.4082872,8.95679757 13.118792,9.0363683 C12.9793769,9.07468623 12.8393705,9.09409862 12.7026614,9.09409862 C12.6175933,9.09409862 12.5323434,9.08655524 12.4492878,9.07165711 C12.1032512,9.00958937 11.8710821,8.78192116 11.7779074,8.41326279 C11.6678489,7.9778574 11.4963029,7.62156308 11.2534577,7.32401267 C11.2021349,7.26113165 11.1436151,7.20393173 11.093145,7.15629067 C10.9257036,6.99822181 10.7401161,6.92138557 10.5257292,6.92138557 C10.4460276,6.92138557 10.3612097,6.93235881 10.2736404,6.9540342 C9.87945319,7.05161469 9.50470813,7.21644901 9.13147525,7.45677592 C9.19123435,7.49811118 9.24883322,7.53707737 9.30864917,7.57143502 C9.68891989,7.78996868 9.98569155,8.1223364 10.2159506,8.58757342 C10.4330776,9.02627904 10.5500831,9.51607918 10.5736524,10.0849432 C10.5891948,10.4600488 10.6494542,10.7604515 10.7632989,11.0303626 C10.9825748,11.5502418 11.3627659,11.852495 11.925577,11.9544129 C12.068801,11.9803433 12.1958801,11.992943 12.3140794,11.992943 C12.4707651,11.992943 12.6123405,11.9709848 12.7468667,11.9257835 C13.0217745,11.8334362 13.2585824,11.6708649 13.4708546,11.4287818 C13.4793591,11.4190934 13.4877613,11.4093812 13.4972095,11.3984669 L13.5905547,11.2909269 L13.9635147,11.5798613 L13.8844157,11.6853388 C13.879288,11.6921631 13.8746378,11.6986104 13.8702605,11.704704 C13.8595503,11.7195432 13.8484875,11.7348775 13.834878,11.7504121 C13.4060132,12.2399057 12.8896359,12.4880824 12.3000947,12.4880824 C12.1994274,12.4880824 12.0950423,12.4807984 11.9898613,12.4664188 C11.580632,12.4104919 11.2472271,12.2826201 10.9706138,12.0755311 C10.5857271,11.787351 10.3310346,11.3779584 10.1919946,10.8239218 C10.1317011,10.5835478 10.114044,10.3399443 10.0969895,10.1043555 C10.0923165,10.0396476 10.0874617,9.97272384 10.0818223,9.90745013 C10.0242462,9.24213718 9.81718137,8.71932303 9.44873513,8.30915255 C9.35413931,8.20384013 9.23297249,8.11519379 9.11700163,8.03343079 C8.91166499,7.88866888 8.70112104,7.74360057 8.49748986,7.60330574 C8.2413307,7.42681457 7.97643963,7.24430052 7.71846132,7.06001847 C7.11235441,6.62707647 6.50051719,6.18086286 5.90882705,5.74932346 L5.67724917,5.58045816 C5.63438543,5.62554155 5.5908054,5.67001205 5.54843056,5.71324495 C5.44465938,5.8190878 5.3466299,5.91906096 5.25748015,6.02832188 C4.98115116,6.36699539 4.86391826,6.78895237 4.89910746,7.31830801 C4.91254644,7.52056449 4.93879905,7.69532304 4.97935475,7.85254327 C5.07550823,8.22537407 5.29577327,8.45943051 5.65273611,8.56806676 C5.8577544,8.63047635 6.02414984,8.65953008 6.17634453,8.65953008 C6.2828217,8.65953008 6.3818176,8.64553948 6.47900573,8.61674507 C6.51013594,8.607528 6.5430512,8.59411496 6.57788794,8.57991222 C6.5963978,8.57236884 6.61527149,8.56468405 6.63475914,8.5571996 L6.72207837,8.5236552 L6.97878328,8.86932993 L6.89555713,8.9506804 C6.84933933,8.99585808 6.8030988,9.04055251 6.75701744,9.08511728 C6.65967014,9.17923254 6.55900288,9.27655376 6.46341788,9.37394566 C6.12985386,9.71371531 5.70540053,10.1736602 5.3810687,10.7190809 C5.34860823,10.7736642 5.31867183,10.8296737 5.28977007,10.8871565 C6.31304234,10.1267617 7.24644856,9.57520028 8.1900875,9.17188954 L7.74739718,8.11162249 L8.16614293,7.91442243 L8.21963733,8.03035449 C9.21849887,10.1953003 9.83910212,12.2598603 10.1168978,14.3419941 L10.1326903,14.4603659 L9.84056884,14.53125 L9.68162053,14.53125 L9.68162053,14.53125 Z M6.0674911,4.16544077 C5.88572384,4.16544077 5.74362543,4.19384625 5.62027564,4.254865 C5.49963184,4.3145283 5.42801415,4.39530124 5.39488287,4.50902925 C5.3579996,4.63563992 5.38749257,4.7639832 5.46659152,4.82115955 C6.42844737,5.5161732 7.39043702,6.21098784 8.3525604,6.90560344 L8.70349731,7.15897799 C8.72191621,7.13387273 8.74098318,7.11117192 8.75945893,7.08916651 C8.78533635,7.05835658 8.80979255,7.02926747 8.82565328,7.00097986 C9.26376159,6.22064233 9.56966319,5.47387277 9.76081045,4.71799225 C9.87174453,4.27941629 9.75591009,3.90339134 9.41653618,3.60036022 C9.17282679,3.38272236 8.87303078,3.2502538 8.50004804,3.19537582 C8.46009494,3.18948256 8.42081266,3.18650058 8.38329267,3.18650058 C8.18335665,3.18650058 8.01751832,3.2690415 7.87628401,3.43882614 C7.82835358,3.49652709 7.78428063,3.55755427 7.74437284,3.62148165 C7.69328882,3.70328001 7.64360326,3.78935688 7.59554358,3.87260498 C7.57822753,3.90260164 7.56091149,3.9325983 7.54347039,3.96251246 C7.44600939,4.12972764 7.29201828,4.22071949 7.09815367,4.22564624 C7.07647166,4.22618843 7.05413022,4.2264713 7.03178878,4.2264713 C6.95909097,4.2264713 6.88414196,4.22364254 6.80266674,4.21780822 C6.71784885,4.21172638 6.63223507,4.20408872 6.54944097,4.19671037 C6.42586379,4.1856782 6.29809119,4.17426886 6.17342252,4.16818702 C6.13541364,4.16633654 6.10075882,4.16544077 6.0674911,4.16544077 L6.0674911,4.16544077 Z" id="Shape" fill="#FFFFFF" fill-rule="nonzero"></path>
                        </g>
                        <g id="shiren" transform="translate(4.280380, 2.690972)"></g>
                    </g>
                </g>
            </g>
        </g>
    </g>
</svg>