<svg width="116" height="71" viewBox="0 0 116 71" fill="none" xmlns="http://www.w3.org/2000/svg">
<path opacity="0.254953" fill-rule="evenodd" clip-rule="evenodd" d="M61.1441 1.53795C68.3691 -1.36894 73.5638 3.71104 84.3436 4.14051C95.1234 4.56997 98.8337 2.09246 104.694 3.27299C110.554 4.45352 120.29 9.25554 112.02 20.6233C103.75 31.9911 101.237 26.0947 86.7856 37.1939C72.3344 48.2931 75.6219 58.3835 54.2249 61.7291C32.8279 65.0748 24.0651 73.6357 12.71 70.041C1.3549 66.4464 -1.51392 59.1702 1.37638 45.5356C4.26668 31.9011 29.7026 33.5179 37.9446 28.431C46.1865 23.344 53.919 4.44485 61.1441 1.53795Z" fill="#98AED2"/>
<path opacity="0.237607" fill-rule="evenodd" clip-rule="evenodd" d="M56.231 17.3405C61.0676 15.5335 64.5451 18.6914 71.7613 18.9583C78.9775 19.2253 81.4613 17.6852 85.3843 18.4191C89.3073 19.1529 95.8247 22.1379 90.2886 29.2044C84.7525 36.2709 83.07 32.6055 73.396 39.505C63.7221 46.4045 65.9228 52.677 51.5992 54.7567C37.2756 56.8364 31.4096 62.158 23.8082 59.9235C16.2069 57.689 14.2864 53.166 16.2213 44.6904C18.1561 36.2149 37.1941 39.377 42.7114 36.2149C48.2288 33.0527 51.3944 19.1475 56.231 17.3405Z" fill="#98AED2"/>
<path opacity="0.237607" fill-rule="evenodd" clip-rule="evenodd" d="M61.7681 25.7971C64.7536 24.6186 66.4911 25.623 70.9456 25.7971C75.4 25.9712 80.9899 27.4037 77.5725 32.0123C74.1552 36.6208 74.3859 34.916 68.4143 39.4157C62.4427 43.9154 67.2867 46.0877 58.445 47.444C49.6032 48.8004 41.1098 46.0851 42.3041 40.5575C43.4985 35.03 50.2919 37.3652 53.6977 35.3029C57.1034 33.2406 58.7825 26.9755 61.7681 25.7971Z" fill="#98AED2"/>
</svg>
