<?xml version="1.0" encoding="UTF-8"?>
<svg width="86px" height="43px" viewBox="0 0 86 43" version="1.1" xmlns="http://www.w3.org/2000/svg" xmlns:xlink="http://www.w3.org/1999/xlink">
    <title>编组 17</title>
    <defs>
        <path d="M3.2832,0 L70.7168,0 C72.5300613,7.27531783e-15 74,1.46993871 74,3.2832 L74,22.4988342 C74,24.3120955 72.5300613,25.7820342 70.7168,25.7820342 L42.9070486,25.7820342 L42.9070486,25.7820342 L35.9877907,31 L28.2167587,25.7820342 L3.2832,25.7820342 C1.46993871,25.7820342 5.79536577e-14,24.3120955 0,22.4988342 L0,3.2832 C-2.22060464e-16,1.46993871 1.46993871,-5.55087724e-16 3.2832,0 Z" id="path-1"></path>
        <filter x="-16.2%" y="-19.4%" width="132.4%" height="177.4%" filterUnits="objectBoundingBox" id="filter-2">
            <feOffset dx="0" dy="6" in="SourceAlpha" result="shadowOffsetOuter1"></feOffset>
            <feGaussianBlur stdDeviation="3" in="shadowOffsetOuter1" result="shadowBlurOuter1"></feGaussianBlur>
            <feComposite in="shadowBlurOuter1" in2="SourceAlpha" operator="out" result="shadowBlurOuter1"></feComposite>
            <feColorMatrix values="0 0 0 0 0   0 0 0 0 0   0 0 0 0 0  0 0 0 0.269831731 0" type="matrix" in="shadowBlurOuter1"></feColorMatrix>
        </filter>
    </defs>
    <g id="页面-1" stroke="none" stroke-width="1" fill="none" fill-rule="evenodd">
        <g id="3.3" transform="translate(-869.000000, -59.000000)">
            <g id="编组-17" transform="translate(875.000000, 59.000000)">
                <g id="Rectangle-Copy-19">
                    <use fill="black" fill-opacity="1" filter="url(#filter-2)" xlink:href="#path-1"></use>
                    <use fill-opacity="0.837031" fill="#FFFFFF" fill-rule="evenodd" xlink:href="#path-1"></use>
                </g>
                <g id="编组-148" transform="translate(6.644049, 3.444444)">
                    <g id="编组-126" transform="translate(43.000000, 0.000000)">
                        <g id="编组-145">
                            <rect id="矩形" fill="#37542D" x="0" y="0" width="17.1215208" height="17.2222222" rx="8.5607604"></rect>
                            <path d="M10.2863189,7.42226744 C10.4531341,7.42226744 10.5883635,7.56548445 10.5883635,7.74213574 C10.5883635,7.91877809 10.4531341,8.06200404 10.2863104,8.06200404 L6.84363105,8.06200404 C6.67680734,8.06200404 6.541578,7.91877809 6.541578,7.74213574 C6.541578,7.56549338 6.67680734,7.42226744 6.84363105,7.42226744 L10.2863104,7.42226744 L10.2863189,7.42226744 Z M10.2863189,9.24528444 C10.4531341,9.24528444 10.5883635,9.38849252 10.5883635,9.56514381 C10.5883635,9.74178616 10.4531341,9.88500317 10.2863104,9.88500317 L6.84363105,9.88500317 C6.67680734,9.88500317 6.541578,9.74178616 6.541578,9.56513487 C6.541578,9.38849252 6.67680734,9.24528444 6.84363105,9.24528444 L10.2863104,9.24528444 L10.2863189,9.24528444 Z M11.4301249,3.76736111 C11.9130952,3.76736111 12.3060931,4.1836009 12.3060931,4.6951132 L12.3060931,11.9889146 C12.3060931,12.5004269 11.9130952,12.9166667 11.4301249,12.9166667 L5.69139594,12.9166667 C5.20842557,12.9166667 4.81542773,12.5004269 4.81542773,11.9889146 L4.81542773,4.6951132 C4.81542773,4.1836009 5.20842557,3.76736111 5.69139594,3.76736111 L11.4301249,3.76736111 Z M6.85430905,4.40723173 L6.85430905,5.2869053 L10.2672117,5.2869053 L10.2672117,4.40723173 L6.85430905,4.40723173 Z M6.25011841,4.40723173 L5.69139594,4.40723173 C5.54166718,4.40723173 5.41960991,4.53650141 5.41960991,4.6951132 L5.41960991,11.9889146 C5.41960991,12.1477229 5.54156572,12.276796 5.69139594,12.276796 L11.4301249,12.276796 C11.5802172,12.276796 11.7019109,12.1479106 11.7019109,11.9889146 L11.7019109,4.6951132 C11.7019109,4.5363942 11.5800396,4.40723173 11.4301249,4.40723173 L10.8714108,4.40723173 L10.8714108,5.30292552 C10.8714108,5.64698944 10.6072508,5.92677592 10.2823875,5.92677592 L6.83913327,5.92677592 C6.51427005,5.92677592 6.25010996,5.64698944 6.25010996,5.30292552 L6.25010996,4.40723173 L6.25011841,4.40723173 Z" id="形状" fill="#FFFFFF" fill-rule="nonzero"></path>
                        </g>
                        <g id="shijiangongdanguanli" transform="translate(4.815428, 3.767361)"></g>
                    </g>
                    <g id="编组-223" transform="translate(21.560760, 0.000000)">
                        <g id="编组-111" fill="#37542D">
                            <rect id="矩形" x="0" y="0" width="17" height="17" rx="8.5"></rect>
                        </g>
                        <g id="编组-52" transform="translate(5.180306, 4.243756)" fill="#FFFFFF" fill-rule="nonzero">
                            <g id="icon32225">
                                <path d="M3.39553662,9.02344988 L2.79632427,8.30793405 C2.35690188,7.75142172 0,4.8893583 0,3.29932308 C0,1.47078258 1.5180046,0 3.43548411,0 C5.35296359,0 6.87096823,1.47078258 6.87096823,3.29932308 C6.87096823,4.92910919 4.31432888,7.989927 4.03469645,8.30793405 L3.39553662,9.02344988 Z M3.39553662,0.397508805 C1.75768954,0.397508805 0.399474896,1.70928786 0.399474896,3.29932308 C0.399474896,4.53160038 2.11721695,6.87690233 3.11590419,8.06942877 L3.39553662,8.38743577 L3.67516904,8.06942877 C4.67385628,6.87690233 6.39159831,4.53160038 6.39159831,3.29932308 C6.43154583,1.70928786 5.07333118,0.397508805 3.39553662,0.397508805 Z" id="Shape"></path>
                                <path d="M3.39553662,4.57135126 C2.63653431,4.57135126 1.99737448,3.93533717 1.99737448,3.18007044 C1.99737448,2.42480371 2.63653431,1.78878963 3.39553662,1.78878963 C4.15453892,1.78878963 4.79369875,2.42480371 4.79369875,3.18007044 C4.79369875,3.93533717 4.15453892,4.57135126 3.39553662,4.57135126 Z M3.39553662,2.22604931 C2.83627176,2.22604931 2.39684937,2.66330899 2.39684937,3.21982132 C2.39684937,3.77633365 2.83627176,4.21359333 3.39553662,4.21359333 C3.95480147,4.21359333 4.39422386,3.73658277 4.39422386,3.18007044 C4.39422386,2.62355812 3.95480147,2.22604931 3.39553662,2.22604931 Z" id="Shape"></path>
                            </g>
                        </g>
                    </g>
                    <g id="编组-141">
                        <g id="编组-147">
                            <rect id="矩形" fill="#37542D" x="0" y="0" width="17.1215208" height="17.2222222" rx="8.5607604"></rect>
                            <path d="M2.16302207,12.6117921 L2.1401901,12.6117921 C2.1401901,12.6117921 3.42146664,13.4118618 4.87331144,13.4118618 C4.99955881,13.4118618 5.12580618,13.4041565 5.25339662,13.3913143 C5.54081085,13.3617772 5.8309112,13.2988504 6.11698238,13.1858389 C6.35738961,13.0908066 6.59376767,12.9623844 6.82208739,12.7928673 C6.98056813,12.6747189 7.30961714,12.2984421 7.44929509,11.9979344 L6.43797304,11.0309159 C6.43528692,11.0309159 4.75915158,12.6117921 2.16302207,12.6117921 Z M6.55750513,12.4679593 C6.08340595,12.8211201 5.51663582,13.0009111 4.87465449,13.0009111 C4.47710957,13.0009111 4.09030911,12.9328474 3.74514342,12.8390992 C5.02373384,12.5385915 5.9531294,11.9388602 6.41514107,11.5908363 L6.91341528,12.0672823 C6.78582484,12.2445048 6.63003021,12.414022 6.55750513,12.4679593 Z M14.0396766,4.18986986 C14.0396766,4.18986986 11.3871387,6.85462872 10.8512589,7.36574874 C10.3167221,7.87686875 8.80712588,9.07761551 7.74745378,9.7698107 C6.68643861,10.4607217 6.67703721,10.7933349 6.67703721,10.7933349 L7.18336977,11.2774863 L7.68970232,11.7616377 C7.68970232,11.7616377 8.03621107,11.7526481 8.76011888,10.7381134 C9.48268364,9.72357874 10.7384421,8.28139841 11.2743219,7.77027839 C11.8088587,7.25915838 14.5957023,4.72153742 14.5957023,4.72153742 L14.3176894,4.45570364 L14.0396766,4.18986986 L14.0396766,4.18986986 Z M15.0335389,4.08970062 L14.8643137,3.92917297 L14.6964316,3.76736111 L14.5272064,3.92917297 L14.4063312,3.81230885 L14.237106,3.97283649 L14.5272064,4.25151248 L14.8186498,4.52890424 L14.9865319,4.36709238 L14.8643137,4.25151248 L15.0335389,4.08970062 Z" id="形状" fill="#FFFFFF" fill-rule="nonzero"></path>
                        </g>
                        <g id="maobi" transform="translate(2.140190, 3.767361)"></g>
                    </g>
                </g>
            </g>
        </g>
    </g>
</svg>