<?xml version="1.0" encoding="UTF-8"?>
<svg width="38px" height="37px" viewBox="0 0 38 37" version="1.1" xmlns="http://www.w3.org/2000/svg" xmlns:xlink="http://www.w3.org/1999/xlink">
    <title>编组</title>
    <g id="页面-2" stroke="none" stroke-width="1" fill="none" fill-rule="evenodd">
        <g id="分析面板-六法分析" transform="translate(-1598.000000, -532.000000)" fill-rule="nonzero">
            <g id="编组-15" transform="translate(1285.000000, 238.714286)">
                <g id="编组" transform="translate(314.100985, 294.007519)">
                    <g id="编组-6" fill="#D6BF9D" stroke="#978778" stroke-width="0.966">
                        <ellipse id="Oval" cx="17.8288177" cy="17.8308271" rx="17.8288177" ry="17.8308271"></ellipse>
                    </g>
                    <path d="M5.71585819,25.1998302 L5.67280564,25.1998302 C5.67280564,25.1998302 8.08881305,26.7462406 10.8264483,26.7462406 C11.0645035,26.7462406 11.3025587,26.7313474 11.5431465,26.7065254 C12.085102,26.6494348 12.6321226,26.527807 13.1715456,26.3093735 C13.6248636,26.1256907 14.070584,25.8774707 14.5011094,25.5498204 C14.7999447,25.321458 15.4204078,24.5941735 15.6837881,24.0133388 L13.7768137,22.1442425 C13.7717487,22.1442425 10.6111856,25.1998302 5.71585819,25.1998302 Z M14.0022064,24.9218239 C13.108233,25.6044288 12.039517,25.9519367 10.8289808,25.9519367 C10.07936,25.9519367 9.3499993,25.8203801 8.69914615,25.6391796 C11.1100886,25.0583449 12.8625803,23.8991576 13.7337612,23.2264815 L14.6733196,24.1473776 C14.4327319,24.4899211 14.1389616,24.8175715 14.0022064,24.9218239 Z M28.110778,8.92156507 C28.110778,8.92156507 23.1090855,14.0721293 22.098617,15.0600448 C21.090681,16.0479602 18.2441481,18.3688169 16.2460037,19.7067225 C14.2453267,21.0421459 14.2275992,21.6850356 14.2275992,21.6850356 L15.1823526,22.6208248 L16.1371061,23.5566141 C16.1371061,23.5566141 16.7904917,23.5392387 18.1555106,21.578301 C19.5179969,19.6173633 21.8858868,16.8298531 22.8963553,15.8419376 C23.9042913,14.8540222 29.159234,9.94919572 29.159234,9.94919572 L28.635006,9.4353804 L28.110778,8.92156507 L28.110778,8.92156507 Z M29.9848298,8.7279535 L29.6657345,8.41767855 L29.3491717,8.10492139 L29.0300764,8.41767855 L28.8021511,8.19179838 L28.4830558,8.50207333 L29.0300764,9.04071065 L29.5796294,9.57686577 L29.8961922,9.26410862 L29.6657345,9.04071065 L29.9848298,8.7279535 Z" id="形状" fill="#000000"></path>
                </g>
            </g>
        </g>
    </g>
</svg>