<svg width="119" height="58" viewBox="0 0 119 58" fill="none" xmlns="http://www.w3.org/2000/svg">
<path opacity="0.251907" fill-rule="evenodd" clip-rule="evenodd" d="M43.9778 0.956214C33.529 0.956214 6.59759 3.94749 3.0806 12.4661C-0.34991 20.7752 1.03172 31.8919 3.0806 33.6396C12.7947 41.9258 19.3237 39.4591 26.2414 47.433C33.1591 55.4069 71.8357 58.9876 79.6506 56.1307C87.4654 53.2738 88.0585 45.477 102.262 45.477C116.466 45.477 121.691 26.3821 117.119 21.8022C112.547 17.2223 102.932 19.7481 93.3834 14.9291C83.8348 10.1102 81.9362 8.78103 73.0384 4.04607C64.1406 -0.688899 54.4265 0.956214 43.9778 0.956214Z" fill="#ABCACA"/>
<path opacity="0.447149" fill-rule="evenodd" clip-rule="evenodd" d="M47.5299 37.6977C41.2944 37.6977 25.2228 36.202 23.124 31.9426C21.0768 27.788 21.9013 22.2295 23.124 21.3556C28.921 17.2124 35.5949 22.1922 38.6639 15.4368C41.7329 8.68132 64.1544 8.68132 68.818 10.1098C73.4816 11.5383 73.8355 15.4368 82.3118 15.4368C90.7881 15.4368 93.9062 24.9844 91.1778 27.2745C88.4494 29.5645 81.19 26.6406 75.4918 29.0501C69.7936 31.4596 70.182 33.7852 64.8721 36.1527C59.5623 38.5202 53.7653 37.6977 47.5299 37.6977Z" fill="#ABCACA"/>
<path opacity="0.699591" fill-rule="evenodd" clip-rule="evenodd" d="M38.9866 17.1777C36.1501 17.1777 27.3896 22.0454 34.4689 26.9173C41.5482 31.7892 46.3503 28.9119 50.6514 27.7483C54.9525 26.5846 55.5049 20.6465 52.9128 19.4418C50.3207 18.237 50.6514 17.1777 48.0743 17.1777C45.4972 17.1777 41.8231 17.1777 38.9866 17.1777Z" fill="#ABCACA"/>
</svg>
