<?xml version="1.0" encoding="UTF-8"?>
<svg width="266px" height="93px" viewBox="0 0 266 93" version="1.1" xmlns="http://www.w3.org/2000/svg" xmlns:xlink="http://www.w3.org/1999/xlink">
    <title>编组 28</title>
    <g id="页面-1" stroke="none" stroke-width="1" fill="none" fill-rule="evenodd">
        <g id="3.3" transform="translate(-11.000000, -47.000000)">
            <g id="编组-28" transform="translate(12.000000, 48.000000)">
                <g id="编组-117">
                    <g id="编组-111" transform="translate(24.698228, 10.034724) rotate(7.000000) translate(-24.698228, -10.034724) translate(12.377160, 1.437478)" stroke="#0F1010" stroke-width="0.3">
                        <path d="M5.27716294,16.4739235 L6.31468425,14.4603577 L7.5549444,14.4603577 C8.26912818,14.8763785 8.70760095,15.1478177 8.87036273,15.2746753 C9.20913402,15.5387159 9.39140137,15.7572719 9.41716477,15.9303433 L5.27716294,16.4739235 Z" id="路径-12"></path>
                        <path d="M5.27716294,12.0714401 C5.27716294,12.0714401 6.08586517,10.5086878 7.80853237,10.372134 C8.95697716,10.2810982 10.731218,12.0249768 13.1312548,15.6037698 L4.87036387,16.5957801 C5.14156325,13.5795534 5.27716294,12.0714401 5.27716294,12.0714401 Z" id="路径-13"></path>
                        <path d="M3.62782217,8.34026253 C4.25135072,6.40460737 5.12475969,4.89708958 6.24804909,3.81770915 C7.3713385,2.73832873 8.59064556,2.64647311 9.9059703,3.54214231 C10.6720897,4.47142931 11.2266992,5.75780814 11.5697988,7.4012788 C11.8891194,8.93084676 13.1312548,9.67573116 15.7648717,10.3687466 C16.2475123,10.4957497 16.9642456,10.9703963 17.6491369,11.9880994 C18.1057311,12.6665682 18.4291338,13.6692473 18.6193452,14.9961368 L3.27137126,16.8186114 L3.62782217,8.34026253 Z" id="路径-14"></path>
                        <path d="M0.203768681,7.78369664 C2.51448905,2.91666347 4.94929284,0.33083005 7.50818005,0.0261963668 C11.3465109,-0.430754158 13.2498225,5.22408568 16.1282245,6.55113873 C19.0066266,7.87819177 19.7341181,6.62702136 22.3911866,9.10522289 C24.1625656,10.7573572 24.8884581,12.5424022 24.5688641,14.4603577 L-9.2903043e-14,17.1944912 L0.203768681,7.78369664 Z" id="路径-15"></path>
                    </g>
                    <g id="编组-110" transform="translate(0.000000, 3.442197)">
                        <g id="编组-108" transform="translate(11.314381, 8.348620) rotate(7.000000) translate(-11.314381, -8.348620) translate(1.606837, 1.129240)"></g>
                        <path d="M0.809728124,17.4267898 C3.44989726,13.8474011 4.99558197,10.6614055 5.44678225,7.86880292 C5.67359668,6.46498601 8.13207214,4.91303669 9.71556741,4.68003417 C12.0762869,4.33266742 12.5547878,3.6323532 12.5547878,3.6323532 C12.5547878,3.6323532 13.0682993,2.95233897 13.6535726,2.95084835 C14.2388459,2.94936158 15.5278875,3.80879159 16.620629,8.01801305 C16.8184828,8.78014246 17.535073,9.03723034 17.9779542,9.42789211 C18.6618854,10.0311822 19.0972132,10.4993058 19.459623,11.207135 C19.8608779,11.9908333 20.1159471,13.2675891 20.2248308,15.0374024 L0.809728124,17.4267898 Z" id="路径-11" stroke="#0F1010" stroke-width="0.3" fill="#FFFFFF" transform="translate(10.517279, 10.188819) rotate(7.000000) translate(-10.517279, -10.188819) "></path>
                        <path d="M3.46716034,17.1451893 C6.37216504,13.2918221 7.94395973,11.0214479 8.18254443,10.3340666 C8.54042146,9.30299464 9.45787223,6.17207532 11.7988285,6.16611764 C12.5192614,6.1642884 13.1747105,6.93780308 13.3501904,8.36697205 C13.4730578,9.36764716 14.2796176,11.3789733 15.9590839,11.6344769 C17.078728,11.8048127 17.7290606,13.0361293 17.9100816,15.328427 L3.46716034,17.1451893 Z" id="路径-10" stroke="#0F1010" stroke-width="0.3" fill="#FFFFFF" transform="translate(10.688621, 11.655653) rotate(7.000000) translate(-10.688621, -11.655653) "></path>
                        <path d="M8.46959346,16.6761476 C9.38976615,13.796343 10.4843553,12.2399411 11.7533608,12.0069417 C13.0223663,11.7739424 14.6467935,12.9976967 16.6266426,15.6782046 L8.46959346,16.6761476 Z" id="路径-9" stroke="#0F1010" stroke-width="0.3" fill="#FFFFFF" stroke-linecap="round" stroke-linejoin="round" transform="translate(12.548118, 14.327570) rotate(7.000000) translate(-12.548118, -14.327570) "></path>
                        <path d="M10.8149685,16.3867617 C11.0307964,15.6191246 11.3892095,15.1726248 11.8902078,15.0472625 C12.1686494,14.9775894 12.320782,15.2324187 12.7048052,15.5126931 C12.8631447,15.6282552 13.1716497,15.8008596 13.6303201,16.0305064 L10.8149685,16.3867617 Z" id="路径-6" stroke="#0F1010" stroke-width="0.3" fill="#FFFFFF" stroke-linecap="round" transform="translate(12.222644, 15.711202) rotate(7.000000) translate(-12.222644, -15.711202) "></path>
                    </g>
                </g>
                <g id="编组-15" transform="translate(42.000000, 0.000000)" fill="#000000" font-family="TimesNewRomanPS-BoldMT, Times New Roman" font-size="20" font-weight="bold">
                    <text id="Handscroll-Features">
                        <tspan x="0" y="18">Handscroll Features View</tspan>
                    </text>
                </g>
                <text id="Autumn-Colors-on-the" font-family="TimesNewRomanPS-BoldMT, Times New Roman" font-size="12" font-weight="bold" letter-spacing="-0.3" fill="#000000">
                    <tspan x="0" y="36">Autumn Colors on the Que and Hua Mountains </tspan>
                </text>
                <text id="Zhao-Mengfu-Ink-and" font-family="TimesNewRomanPSMT, Times New Roman" font-size="11" font-weight="normal" line-spacing="12" fill="#000000">
                    <tspan x="0" y="54">Zhao Mengfu</tspan>
                    <tspan x="0" y="66">Ink and colors on paper</tspan>
                    <tspan x="0" y="78">28.4 x 93.2 cm </tspan>
                </text>
            </g>
        </g>
    </g>
</svg>