<?xml version="1.0" encoding="UTF-8"?>
<svg width="231px" height="23px" viewBox="0 0 231 23" version="1.1" xmlns="http://www.w3.org/2000/svg" xmlns:xlink="http://www.w3.org/1999/xlink">
    <title>编组 25</title>
    <g id="页面-1" stroke="none" stroke-width="1" fill="none" fill-rule="evenodd">
        <g id="3.3" transform="translate(-12.000000, -596.000000)">
            <g id="编组-25" transform="translate(12.000000, 596.000000)">
                <g id="编组-15" transform="translate(42.000000, 0.000000)" fill="#000000" font-family="TimesNewRomanPS-BoldMT, Times New Roman" font-size="20" font-weight="bold">
                    <text id="Similar-Painting-Vie">
                        <tspan x="0" y="18">Similar Painting View</tspan>
                    </text>
                </g>
                <g id="编组-20" transform="translate(0.000000, 3.000000)">
                    <g id="编组">
                        <g id="编组-139" transform="translate(0.485992, 1.866667)">
                            <polygon id="矩形" fill="#000000" transform="translate(14.499430, 5.000000) rotate(90.000000) translate(-14.499430, -5.000000) " points="9.49942966 -9.49942966 19.4994297 -9.49942966 19.4994297 19.4994297 9.49942966 19.4994297"></polygon>
                            <polygon id="矩形" fill="#FFFFFF" transform="translate(15.348878, 5.000000) rotate(90.000000) translate(-15.348878, -5.000000) " points="11.2655448 -9.13389782 19.4322115 -9.13389782 19.4322115 19.1338978 11.2655448 19.1338978"></polygon>
                        </g>
                        <path d="M1.21498032,0 C1.61758938,-7.39580846e-17 1.94396851,0.32637913 1.94396851,0.72898819 L1.94396851,13.2710118 C1.94396851,13.6736209 1.61758938,14 1.21498032,14 C0.812371257,14 0.485992127,13.6736209 0.485992127,13.2710118 L0.485992127,0.72898819 C0.485992127,0.32637913 0.812371257,7.39580846e-17 1.21498032,0 Z" id="矩形" fill="#000000"></path>
                        <path d="M29.7850197,0 C30.1876287,-7.39580846e-17 30.5140079,0.32637913 30.5140079,0.72898819 L30.5140079,13.2710118 C30.5140079,13.6736209 30.1876287,14 29.7850197,14 C29.3824106,14 29.0560315,13.6736209 29.0560315,13.2710118 L29.0560315,0.72898819 C29.0560315,0.32637913 29.3824106,7.39580846e-17 29.7850197,0 Z" id="矩形" fill="#000000"></path>
                    </g>
                    <g id="编组" transform="translate(5.000000, 5.000000)">
                        <g id="编组-139" transform="translate(0.485992, 1.866667)">
                            <polygon id="矩形" fill="#000000" transform="translate(14.499430, 5.000000) rotate(90.000000) translate(-14.499430, -5.000000) " points="9.49942966 -9.49942966 19.4994297 -9.49942966 19.4994297 19.4994297 9.49942966 19.4994297"></polygon>
                            <polygon id="矩形" fill="#FFFFFF" transform="translate(15.348878, 5.000000) rotate(90.000000) translate(-15.348878, -5.000000) " points="11.2655448 -9.13389782 19.4322115 -9.13389782 19.4322115 19.1338978 11.2655448 19.1338978"></polygon>
                        </g>
                        <path d="M1.21498032,0 C1.61758938,-7.39580846e-17 1.94396851,0.32637913 1.94396851,0.72898819 L1.94396851,13.2710118 C1.94396851,13.6736209 1.61758938,14 1.21498032,14 C0.812371257,14 0.485992127,13.6736209 0.485992127,13.2710118 L0.485992127,0.72898819 C0.485992127,0.32637913 0.812371257,7.39580846e-17 1.21498032,0 Z" id="矩形" fill="#000000"></path>
                        <path d="M29.7850197,0 C30.1876287,-7.39580846e-17 30.5140079,0.32637913 30.5140079,0.72898819 L30.5140079,13.2710118 C30.5140079,13.6736209 30.1876287,14 29.7850197,14 C29.3824106,14 29.0560315,13.6736209 29.0560315,13.2710118 L29.0560315,0.72898819 C29.0560315,0.32637913 29.3824106,7.39580846e-17 29.7850197,0 Z" id="矩形" fill="#000000"></path>
                    </g>
                </g>
            </g>
        </g>
    </g>
</svg>