<?xml version="1.0" encoding="UTF-8"?>
<svg width="13px" height="11px" viewBox="0 0 13 11" version="1.1" xmlns="http://www.w3.org/2000/svg" xmlns:xlink="http://www.w3.org/1999/xlink">
    <title>编组 117</title>
    <g id="页面-1" stroke="none" stroke-width="1" fill="none" fill-rule="evenodd">
        <g id="3.3" transform="translate(-282.000000, -647.000000)">
            <g id="编组-22" transform="translate(272.000000, 645.000000)">
                <g id="编组-27" transform="translate(11.000000, 1.136039)">
                    <g id="编组-110" transform="translate(0.000000, 0.870032)">
                        <g id="编组-108" transform="translate(6.229081, 4.484526) rotate(7.000000) translate(-6.229081, -4.484526) translate(0.884637, 0.622537)"></g>
                        <path d="M0.433714534,9.35942569 C1.89338939,7.43883053 2.75001215,5.7308361 3.00358283,4.23544239 C3.1310506,3.48372105 4.48691164,2.64851175 5.3587705,2.52082601 C6.65856233,2.33046851 6.92320928,1.9547722 6.92320928,1.9547722 C6.92320928,1.9547722 7.20708474,1.58987396 7.5291715,1.58796709 C7.85125826,1.58607199 8.55901407,2.04358882 9.15242303,4.29421422 C9.25986676,4.70171661 9.65373113,4.83795262 9.89671765,5.04619101 C10.2719562,5.36776879 10.5106398,5.6174774 10.7087434,5.995609 C10.9280808,6.41427081 11.06604,7.0970825 11.122621,8.04404406 L0.433714534,9.35942569 Z" id="路径-11" stroke="#0F1010" stroke-width="0.658181376" transform="translate(5.778168, 5.473696) rotate(7.000000) translate(-5.778168, -5.473696) "></path>
                        <path d="M1.89950715,9.20402798 C3.50544159,7.13630558 4.37470549,5.91828327 4.50729885,5.54996105 C4.70618889,4.99747772 5.21698196,3.3201443 6.50525366,3.3125309 C6.90172124,3.31020081 7.26096449,3.72293299 7.35483699,4.48746319 C7.42056462,5.02277172 7.86063068,6.09766954 8.78438201,6.23124099 C9.40021623,6.32028862 9.75578,6.97803649 9.85107332,8.20448461 L1.89950715,9.20402798 Z" id="路径-10" stroke="#0F1010" stroke-width="0.658181376" transform="translate(5.875290, 6.258279) rotate(7.000000) translate(-5.875290, -6.258279) "></path>
                        <path d="M4.65891153,8.94709674 C5.17072872,7.40414952 5.77603272,6.56913058 6.47482354,6.44203992 C7.17361435,6.31494926 8.06525012,6.96681201 9.14973083,8.39762819 L4.65891153,8.94709674 Z" id="路径-9" stroke="#0F1010" stroke-width="0.658181376" stroke-linecap="round" stroke-linejoin="round" transform="translate(6.904321, 7.686792) rotate(7.000000) translate(-6.904321, -7.686792) "></path>
                        <path d="M5.95300036,8.78719508 C6.07322181,8.37596454 6.27130391,8.13633099 6.54724666,8.06829444 C6.70060839,8.03048151 6.78384822,8.16657377 6.99465267,8.3158462 C7.08157108,8.37739387 7.25101996,8.46918608 7.50299931,8.59122282 L5.95300036,8.78719508 Z" id="路径-6" stroke="#0F1010" stroke-width="0.658181376" stroke-linecap="round" transform="translate(6.728000, 8.424550) rotate(7.000000) translate(-6.728000, -8.424550) "></path>
                    </g>
                </g>
            </g>
        </g>
    </g>
</svg>