<?xml version="1.0" encoding="UTF-8"?>
<svg width="68px" height="43px" viewBox="0 0 68 43" version="1.1" xmlns="http://www.w3.org/2000/svg" xmlns:xlink="http://www.w3.org/1999/xlink">
    <title>编组 146</title>
    <defs>
        <path d="M3.2832,0 L52.7168,0 C54.5300613,-3.55408979e-15 56,1.46993871 56,3.2832 L56,22.4988342 C56,24.3120955 54.5300613,25.7820342 52.7168,25.7820342 L34.9070486,25.7820342 L34.9070486,25.7820342 L27.9877907,31 L20.2167587,25.7820342 L3.2832,25.7820342 C1.46993871,25.7820342 8.99280809e-14,24.3120955 0,22.4988342 L0,3.2832 C-2.22060464e-16,1.46993871 1.46993871,3.33090695e-16 3.2832,0 Z" id="path-1"></path>
        <filter x="-21.4%" y="-19.4%" width="142.9%" height="177.4%" filterUnits="objectBoundingBox" id="filter-2">
            <feOffset dx="0" dy="6" in="SourceAlpha" result="shadowOffsetOuter1"></feOffset>
            <feGaussianBlur stdDeviation="3" in="shadowOffsetOuter1" result="shadowBlurOuter1"></feGaussianBlur>
            <feComposite in="shadowBlurOuter1" in2="SourceAlpha" operator="out" result="shadowBlurOuter1"></feComposite>
            <feColorMatrix values="0 0 0 0 0   0 0 0 0 0   0 0 0 0 0  0 0 0 0.269831731 0" type="matrix" in="shadowBlurOuter1"></feColorMatrix>
        </filter>
    </defs>
    <g id="页面-1" stroke="none" stroke-width="1" fill="none" fill-rule="evenodd">
        <g id="编组-146" transform="translate(6.000000, 0.000000)">
            <g id="编组-17">
                <g id="Rectangle-Copy-19">
                    <use fill="black" fill-opacity="1" filter="url(#filter-2)" xlink:href="#path-1"></use>
                    <use fill-opacity="0.837031" fill="#FFFFFF" fill-rule="evenodd" xlink:href="#path-1"></use>
                </g>
                <g id="编组-141" transform="translate(7.644049, 3.444444)">
                    <g id="编组-147">
                        <rect id="矩形" fill="#37542D" x="0" y="0" width="17.1215208" height="17.2222222" rx="8.5607604"></rect>
                        <path d="M2.16302207,12.6117921 L2.1401901,12.6117921 C2.1401901,12.6117921 3.42146664,13.4118618 4.87331144,13.4118618 C4.99955881,13.4118618 5.12580618,13.4041565 5.25339662,13.3913143 C5.54081085,13.3617772 5.8309112,13.2988504 6.11698238,13.1858389 C6.35738961,13.0908066 6.59376767,12.9623844 6.82208739,12.7928673 C6.98056813,12.6747189 7.30961714,12.2984421 7.44929509,11.9979344 L6.43797304,11.0309159 C6.43528692,11.0309159 4.75915158,12.6117921 2.16302207,12.6117921 Z M6.55750513,12.4679593 C6.08340595,12.8211201 5.51663582,13.0009111 4.87465449,13.0009111 C4.47710957,13.0009111 4.09030911,12.9328474 3.74514342,12.8390992 C5.02373384,12.5385915 5.9531294,11.9388602 6.41514107,11.5908363 L6.91341528,12.0672823 C6.78582484,12.2445048 6.63003021,12.414022 6.55750513,12.4679593 Z M14.0396766,4.18986986 C14.0396766,4.18986986 11.3871387,6.85462872 10.8512589,7.36574874 C10.3167221,7.87686875 8.80712588,9.07761551 7.74745378,9.7698107 C6.68643861,10.4607217 6.67703721,10.7933349 6.67703721,10.7933349 L7.18336977,11.2774863 L7.68970232,11.7616377 C7.68970232,11.7616377 8.03621107,11.7526481 8.76011888,10.7381134 C9.48268364,9.72357874 10.7384421,8.28139841 11.2743219,7.77027839 C11.8088587,7.25915838 14.5957023,4.72153742 14.5957023,4.72153742 L14.3176894,4.45570364 L14.0396766,4.18986986 L14.0396766,4.18986986 Z M15.0335389,4.08970062 L14.8643137,3.92917297 L14.6964316,3.76736111 L14.5272064,3.92917297 L14.4063312,3.81230885 L14.237106,3.97283649 L14.5272064,4.25151248 L14.8186498,4.52890424 L14.9865319,4.36709238 L14.8643137,4.25151248 L15.0335389,4.08970062 Z" id="形状" fill="#FFFFFF" fill-rule="nonzero"></path>
                    </g>
                    <g id="maobi" transform="translate(2.140190, 3.767361)"></g>
                </g>
            </g>
            <path d="M46.7979903,10.5282226 L46.7544114,10.5282226 C46.4323184,10.5282226 46.1679764,10.6197411 45.9133659,10.7755853 C45.6905632,10.1328752 45.1238248,9.66990291 44.3938833,9.66990291 C44.071769,9.66990291 43.7641457,9.76140041 43.5095564,9.91724457 C43.2867324,9.27455554 42.7197391,8.81156222 41.9897763,8.81156222 C41.7050791,8.81156222 41.4405247,8.88210818 41.206312,9.0060522 L41.206312,7.35239356 C41.206312,6.45168747 40.5175059,5.72153575 39.6002027,5.72153575 C38.6828782,5.72153575 37.9392745,6.45168747 37.9392745,7.35239356 L37.9392745,13.6837095 L36.930224,12.6898247 C36.2815759,12.0529568 35.1335658,12.1436137 34.5812971,12.6898247 C34.0290284,13.2360358 33.6668411,14.3354348 34.4576783,15.1175976 L39.0961661,19.6751355 C39.1918655,19.7690917 39.2970626,19.8474551 39.4077203,19.9137141 C40.2534402,20.5960577 41.2225239,21 43.2717528,21 C47.9531184,21 48.3866553,18.5021015 48.3866553,15.420796 L48.3866553,12.1590594 C48.3866553,11.2583743 47.7153147,10.5282226 46.7979903,10.5282226 Z M47.512421,15.420754 C47.512421,18.0280124 47.4998212,20.1416173 43.2717103,20.1416173 C41.4805766,20.1416173 40.4052546,19.7466272 39.5906413,18.9467701 L35.1994335,14.6320136 C34.8109204,14.2477619 34.908617,13.756462 35.226673,13.4418947 C35.5447077,13.1273484 36.1284442,13.1164628 36.4357063,13.4181272 C36.4357063,13.4181272 37.2061246,14.1755979 37.8698797,14.8282058 C38.3721952,15.3220905 38.813445,15.7558946 38.813445,15.7558946 L38.813445,7.5240617 C38.813445,7.09742361 39.1656884,6.75156559 39.6002027,6.75156559 C40.0346957,6.75156559 40.3321415,7.09744463 40.3321415,7.5240617 L40.3321415,12.7599294 L40.3409593,12.7599294 C40.3352224,12.7876686 40.3321415,12.8163535 40.3321415,12.845774 C40.3321415,13.0827764 40.5278323,13.2749548 40.7692267,13.2749548 C41.0106,13.2749548 41.2062907,13.0827975 41.2062907,12.845774 C41.2062907,12.8163535 41.2032311,12.7876686 41.197473,12.7599294 L41.2062907,12.7599294 L41.2062907,10.6140672 C41.2062907,10.1874291 41.5206496,9.84155004 41.9551639,9.84155004 C41.9551639,9.84155004 42.7250085,9.83125289 42.7250085,10.6140672 L42.7250085,13.4465599 L42.7338262,13.4465599 C42.7280894,13.4743202 42.7250085,13.5030051 42.7250085,13.5324045 C42.7250085,13.769428 42.9206993,13.9615853 43.1620725,13.9615853 C43.4034669,13.9615853 43.5991577,13.769449 43.5991577,13.5324045 C43.5991577,13.5030051 43.5960981,13.4743202 43.59034,13.4465599 L43.5991577,13.4465599 L43.5991577,11.4724079 C43.5991577,11.0457487 43.9085022,10.6998697 44.3430377,10.6998697 C44.3430377,10.6998697 45.1288392,10.7482663 45.1288392,11.4724079 L45.1288392,13.9615643 L45.137657,13.9615643 C45.1319414,13.9893036 45.1288392,14.0180095 45.1288392,14.0474089 C45.1288392,14.2844324 45.32453,14.4765898 45.5659245,14.4765898 C45.807319,14.4765898 45.992046,14.2844534 45.992046,14.0474089 C45.992046,14.0180095 45.9891563,13.9893036 45.9837169,13.9615643 L45.992046,13.9615643 L45.992046,12.2620729 C45.992046,11.8354348 46.3161787,11.4895558 46.7506718,11.4895558 C46.7506718,11.4895558 47.512421,11.4590846 47.512421,12.2620729 C47.512421,12.2620729 47.512421,14.7265582 47.512421,15.420754 Z M37.2902653,9.78394906 L37.2902653,8.34169714 C37.1514969,8.03402261 37.0726894,7.6940907 37.0726894,7.33543479 C37.0726894,5.96870928 38.1929289,4.86075737 39.5748118,4.86075737 C40.9566947,4.86075737 42.0769341,5.96870928 42.0769341,7.33543479 C42.0769341,7.52212836 42.0546241,7.70337915 42.0145723,7.87803135 C42.3292924,7.89017778 42.6132459,8.01937545 42.8199429,8.22681041 C42.9000678,7.94273526 42.9472163,7.64502165 42.9472163,7.33543479 C42.9472163,5.49333838 41.4373164,4 39.5747905,4 C37.7122647,4 36.2023647,5.49333838 36.2023647,7.33543479 C36.2023647,8.30462741 36.6228981,9.17452612 37.2902653,9.78394906 Z" id="形状" fill="#000000" fill-rule="nonzero"></path>
        </g>
    </g>
</svg>