<svg width="111" height="48" viewBox="0 0 111 48" fill="none" xmlns="http://www.w3.org/2000/svg">
<path opacity="0.254488" fill-rule="evenodd" clip-rule="evenodd" d="M6.51151 13.4086C10.0393 8.27999 16.7805 2.13267 21.6358 1.06537C33.966 -1.64504 46.7983 9.15492 62.2585 10.5601C83.8066 12.5187 81.172 7.59002 91.6918 8.54549C102.212 9.50096 110.681 9.93786 110.681 32.3981C110.681 54.8584 82.4865 40.8351 62.2585 40.9434C42.0306 41.0517 36.0697 49.4887 19.3092 47.1961C2.54859 44.9036 -5.97533 31.5613 6.51151 13.4086Z" fill="#DAE098"/>
<path opacity="0.254488" fill-rule="evenodd" clip-rule="evenodd" d="M43.0126 22.7243C43.9859 21.2726 45.8457 19.5325 47.1852 19.2304C50.587 18.4632 54.1273 21.5203 58.3926 21.918C64.3375 22.4724 63.6107 21.0773 66.513 21.3478C69.4153 21.6182 71.7519 21.7419 71.7519 28.0996C71.7519 34.4573 63.9733 30.4878 58.3926 30.5184C52.8119 30.5491 51.1674 32.9373 46.5433 32.2884C41.9192 31.6394 39.5676 27.8627 43.0126 22.7243Z" fill="#DAE098"/>
<path opacity="0.254488" fill-rule="evenodd" clip-rule="evenodd" d="M25.2321 18.9197C27.4828 16.3274 31.7836 13.2201 34.8813 12.6806C42.7479 11.3105 50.9348 16.7696 60.7984 17.4799C74.546 18.4699 72.8651 15.9786 79.5767 16.4616C86.2883 16.9445 91.6918 17.1654 91.6918 28.5184C91.6918 39.8714 73.7038 32.783 60.7984 32.8378C47.8931 32.8925 44.0901 37.1572 33.3969 35.9983C22.7037 34.8395 17.2655 28.0954 25.2321 18.9197Z" fill="#DAE098"/>
</svg>
