<svg width="1700" height="33" viewBox="0 0 1700 33" fill="none" xmlns="http://www.w3.org/2000/svg">
<g clip-path="url(#clip0_0_380)">
<rect opacity="0.517508" width="1700" height="30" fill="#D8D8D8"/>
<path d="M8.11523 16.9023L10.0488 15.959H10.2422V22.668C10.2422 23.1133 10.2598 23.3906 10.2949 23.5C10.334 23.6094 10.4121 23.6934 10.5293 23.752C10.6465 23.8105 10.8848 23.8438 11.2441 23.8516V24.0684H8.25586V23.8516C8.63086 23.8438 8.87305 23.8125 8.98242 23.7578C9.0918 23.6992 9.16797 23.623 9.21094 23.5293C9.25391 23.4316 9.27539 23.1445 9.27539 22.668V18.3789C9.27539 17.8008 9.25586 17.4297 9.2168 17.2656C9.18945 17.1406 9.13867 17.0488 9.06445 16.9902C8.99414 16.9316 8.9082 16.9023 8.80664 16.9023C8.66211 16.9023 8.46094 16.9629 8.20312 17.084L8.11523 16.9023ZM18.2109 22.5391L17.6543 24.0684H12.9668V23.8516C14.3457 22.5938 15.3164 21.5664 15.8789 20.7695C16.4414 19.9727 16.7227 19.2441 16.7227 18.584C16.7227 18.0801 16.5684 17.666 16.2598 17.3418C15.9512 17.0176 15.582 16.8555 15.1523 16.8555C14.7617 16.8555 14.4102 16.9707 14.0977 17.2012C13.7891 17.4277 13.5605 17.7617 13.4121 18.2031H13.1953C13.293 17.4805 13.543 16.9258 13.9453 16.5391C14.3516 16.1523 14.8574 15.959 15.4629 15.959C16.1074 15.959 16.6445 16.166 17.0742 16.5801C17.5078 16.9941 17.7246 17.4824 17.7246 18.0449C17.7246 18.4473 17.6309 18.8496 17.4434 19.252C17.1543 19.8848 16.6855 20.5547 16.0371 21.2617C15.0645 22.3242 14.457 22.9648 14.2148 23.1836H16.2891C16.7109 23.1836 17.0059 23.168 17.1738 23.1367C17.3457 23.1055 17.5 23.043 17.6367 22.9492C17.7734 22.8516 17.8926 22.7148 17.9941 22.5391H18.2109ZM19.1426 20.1426C19.1426 19.2363 19.2793 18.457 19.5527 17.8047C19.8262 17.1484 20.1895 16.6602 20.6426 16.3398C20.9941 16.0859 21.3574 15.959 21.7324 15.959C22.3418 15.959 22.8887 16.2695 23.373 16.8906C23.9785 17.6602 24.2812 18.7031 24.2812 20.0195C24.2812 20.9414 24.1484 21.7246 23.8828 22.3691C23.6172 23.0137 23.2773 23.4824 22.8633 23.7754C22.4531 24.0645 22.0566 24.209 21.6738 24.209C20.916 24.209 20.2852 23.7617 19.7812 22.8672C19.3555 22.1133 19.1426 21.2051 19.1426 20.1426ZM20.291 20.2891C20.291 21.3828 20.4258 22.2754 20.6953 22.9668C20.918 23.5488 21.25 23.8398 21.6914 23.8398C21.9023 23.8398 22.1211 23.7461 22.3477 23.5586C22.5742 23.3672 22.7461 23.0488 22.8633 22.6035C23.043 21.9316 23.1328 20.9844 23.1328 19.7617C23.1328 18.8555 23.0391 18.0996 22.8516 17.4941C22.7109 17.0449 22.5293 16.7266 22.3066 16.5391C22.1465 16.4102 21.9531 16.3457 21.7266 16.3457C21.4609 16.3457 21.2246 16.4648 21.0176 16.7031C20.7363 17.0273 20.5449 17.5371 20.4434 18.2324C20.3418 18.9277 20.291 19.6133 20.291 20.2891ZM25.1426 20.1426C25.1426 19.2363 25.2793 18.457 25.5527 17.8047C25.8262 17.1484 26.1895 16.6602 26.6426 16.3398C26.9941 16.0859 27.3574 15.959 27.7324 15.959C28.3418 15.959 28.8887 16.2695 29.373 16.8906C29.9785 17.6602 30.2812 18.7031 30.2812 20.0195C30.2812 20.9414 30.1484 21.7246 29.8828 22.3691C29.6172 23.0137 29.2773 23.4824 28.8633 23.7754C28.4531 24.0645 28.0566 24.209 27.6738 24.209C26.916 24.209 26.2852 23.7617 25.7812 22.8672C25.3555 22.1133 25.1426 21.2051 25.1426 20.1426ZM26.291 20.2891C26.291 21.3828 26.4258 22.2754 26.6953 22.9668C26.918 23.5488 27.25 23.8398 27.6914 23.8398C27.9023 23.8398 28.1211 23.7461 28.3477 23.5586C28.5742 23.3672 28.7461 23.0488 28.8633 22.6035C29.043 21.9316 29.1328 20.9844 29.1328 19.7617C29.1328 18.8555 29.0391 18.0996 28.8516 17.4941C28.7109 17.0449 28.5293 16.7266 28.3066 16.5391C28.1465 16.4102 27.9531 16.3457 27.7266 16.3457C27.4609 16.3457 27.2246 16.4648 27.0176 16.7031C26.7363 17.0273 26.5449 17.5371 26.4434 18.2324C26.3418 18.9277 26.291 19.6133 26.291 20.2891Z" fill="black"/>
<path d="M111.43 16.9023L113.363 15.959H113.557V22.668C113.557 23.1133 113.574 23.3906 113.609 23.5C113.648 23.6094 113.727 23.6934 113.844 23.752C113.961 23.8105 114.199 23.8438 114.559 23.8516V24.0684H111.57V23.8516C111.945 23.8438 112.188 23.8125 112.297 23.7578C112.406 23.6992 112.482 23.623 112.525 23.5293C112.568 23.4316 112.59 23.1445 112.59 22.668V18.3789C112.59 17.8008 112.57 17.4297 112.531 17.2656C112.504 17.1406 112.453 17.0488 112.379 16.9902C112.309 16.9316 112.223 16.9023 112.121 16.9023C111.977 16.9023 111.775 16.9629 111.518 17.084L111.43 16.9023ZM121.525 22.5391L120.969 24.0684H116.281V23.8516C117.66 22.5938 118.631 21.5664 119.193 20.7695C119.756 19.9727 120.037 19.2441 120.037 18.584C120.037 18.0801 119.883 17.666 119.574 17.3418C119.266 17.0176 118.896 16.8555 118.467 16.8555C118.076 16.8555 117.725 16.9707 117.412 17.2012C117.104 17.4277 116.875 17.7617 116.727 18.2031H116.51C116.607 17.4805 116.857 16.9258 117.26 16.5391C117.666 16.1523 118.172 15.959 118.777 15.959C119.422 15.959 119.959 16.166 120.389 16.5801C120.822 16.9941 121.039 17.4824 121.039 18.0449C121.039 18.4473 120.945 18.8496 120.758 19.252C120.469 19.8848 120 20.5547 119.352 21.2617C118.379 22.3242 117.771 22.9648 117.529 23.1836H119.604C120.025 23.1836 120.32 23.168 120.488 23.1367C120.66 23.1055 120.814 23.043 120.951 22.9492C121.088 22.8516 121.207 22.7148 121.309 22.5391H121.525ZM127.232 16.123L126.775 17.1191H124.385L123.863 18.1855C124.898 18.3379 125.719 18.7227 126.324 19.3398C126.844 19.8711 127.104 20.4961 127.104 21.2148C127.104 21.6328 127.018 22.0195 126.846 22.375C126.678 22.7305 126.465 23.0332 126.207 23.2832C125.949 23.5332 125.662 23.7344 125.346 23.8867C124.896 24.1016 124.436 24.209 123.963 24.209C123.486 24.209 123.139 24.1289 122.92 23.9688C122.705 23.8047 122.598 23.625 122.598 23.4297C122.598 23.3203 122.643 23.2246 122.732 23.1426C122.822 23.0566 122.936 23.0137 123.072 23.0137C123.174 23.0137 123.262 23.0293 123.336 23.0605C123.414 23.0918 123.545 23.1719 123.729 23.3008C124.021 23.5039 124.318 23.6055 124.619 23.6055C125.076 23.6055 125.477 23.4336 125.82 23.0898C126.168 22.7422 126.342 22.3203 126.342 21.8242C126.342 21.3438 126.188 20.8965 125.879 20.4824C125.57 20.0645 125.145 19.7422 124.602 19.5156C124.176 19.3398 123.596 19.2383 122.861 19.2109L124.385 16.123H127.232ZM128.457 20.1426C128.457 19.2363 128.594 18.457 128.867 17.8047C129.141 17.1484 129.504 16.6602 129.957 16.3398C130.309 16.0859 130.672 15.959 131.047 15.959C131.656 15.959 132.203 16.2695 132.688 16.8906C133.293 17.6602 133.596 18.7031 133.596 20.0195C133.596 20.9414 133.463 21.7246 133.197 22.3691C132.932 23.0137 132.592 23.4824 132.178 23.7754C131.768 24.0645 131.371 24.209 130.988 24.209C130.23 24.209 129.6 23.7617 129.096 22.8672C128.67 22.1133 128.457 21.2051 128.457 20.1426ZM129.605 20.2891C129.605 21.3828 129.74 22.2754 130.01 22.9668C130.232 23.5488 130.564 23.8398 131.006 23.8398C131.217 23.8398 131.436 23.7461 131.662 23.5586C131.889 23.3672 132.061 23.0488 132.178 22.6035C132.357 21.9316 132.447 20.9844 132.447 19.7617C132.447 18.8555 132.354 18.0996 132.166 17.4941C132.025 17.0449 131.844 16.7266 131.621 16.5391C131.461 16.4102 131.268 16.3457 131.041 16.3457C130.775 16.3457 130.539 16.4648 130.332 16.7031C130.051 17.0273 129.859 17.5371 129.758 18.2324C129.656 18.9277 129.605 19.6133 129.605 20.2891Z" fill="black"/>
<path d="M213.402 16.9023L215.336 15.959H215.529V22.668C215.529 23.1133 215.547 23.3906 215.582 23.5C215.621 23.6094 215.699 23.6934 215.816 23.752C215.934 23.8105 216.172 23.8438 216.531 23.8516V24.0684H213.543V23.8516C213.918 23.8438 214.16 23.8125 214.27 23.7578C214.379 23.6992 214.455 23.623 214.498 23.5293C214.541 23.4316 214.562 23.1445 214.562 22.668V18.3789C214.562 17.8008 214.543 17.4297 214.504 17.2656C214.477 17.1406 214.426 17.0488 214.352 16.9902C214.281 16.9316 214.195 16.9023 214.094 16.9023C213.949 16.9023 213.748 16.9629 213.49 17.084L213.402 16.9023ZM218.605 17.6348C218.832 17.0996 219.117 16.6875 219.461 16.3984C219.809 16.1055 220.24 15.959 220.756 15.959C221.393 15.959 221.881 16.166 222.221 16.5801C222.479 16.8887 222.607 17.2188 222.607 17.5703C222.607 18.1484 222.244 18.7461 221.518 19.3633C222.006 19.5547 222.375 19.8281 222.625 20.1836C222.875 20.5391 223 20.957 223 21.4375C223 22.125 222.781 22.7207 222.344 23.2246C221.773 23.8809 220.947 24.209 219.865 24.209C219.33 24.209 218.965 24.1426 218.77 24.0098C218.578 23.877 218.482 23.7344 218.482 23.582C218.482 23.4688 218.527 23.3691 218.617 23.2832C218.711 23.1973 218.822 23.1543 218.951 23.1543C219.049 23.1543 219.148 23.1699 219.25 23.2012C219.316 23.2207 219.467 23.293 219.701 23.418C219.936 23.5391 220.098 23.6113 220.188 23.6348C220.332 23.6777 220.486 23.6992 220.65 23.6992C221.049 23.6992 221.395 23.5449 221.688 23.2363C221.984 22.9277 222.133 22.5625 222.133 22.1406C222.133 21.832 222.064 21.5312 221.928 21.2383C221.826 21.0195 221.715 20.8535 221.594 20.7402C221.426 20.584 221.195 20.4434 220.902 20.3184C220.609 20.1895 220.311 20.125 220.006 20.125H219.818V19.9492C220.127 19.9102 220.436 19.7988 220.744 19.6152C221.057 19.4316 221.283 19.2109 221.424 18.9531C221.564 18.6953 221.635 18.4121 221.635 18.1035C221.635 17.7012 221.508 17.377 221.254 17.1309C221.004 16.8809 220.691 16.7559 220.316 16.7559C219.711 16.7559 219.205 17.0801 218.799 17.7285L218.605 17.6348ZM224.43 20.1426C224.43 19.2363 224.566 18.457 224.84 17.8047C225.113 17.1484 225.477 16.6602 225.93 16.3398C226.281 16.0859 226.645 15.959 227.02 15.959C227.629 15.959 228.176 16.2695 228.66 16.8906C229.266 17.6602 229.568 18.7031 229.568 20.0195C229.568 20.9414 229.436 21.7246 229.17 22.3691C228.904 23.0137 228.564 23.4824 228.15 23.7754C227.74 24.0645 227.344 24.209 226.961 24.209C226.203 24.209 225.572 23.7617 225.068 22.8672C224.643 22.1133 224.43 21.2051 224.43 20.1426ZM225.578 20.2891C225.578 21.3828 225.713 22.2754 225.982 22.9668C226.205 23.5488 226.537 23.8398 226.979 23.8398C227.189 23.8398 227.408 23.7461 227.635 23.5586C227.861 23.3672 228.033 23.0488 228.15 22.6035C228.33 21.9316 228.42 20.9844 228.42 19.7617C228.42 18.8555 228.326 18.0996 228.139 17.4941C227.998 17.0449 227.816 16.7266 227.594 16.5391C227.434 16.4102 227.24 16.3457 227.014 16.3457C226.748 16.3457 226.512 16.4648 226.305 16.7031C226.023 17.0273 225.832 17.5371 225.73 18.2324C225.629 18.9277 225.578 19.6133 225.578 20.2891ZM230.43 20.1426C230.43 19.2363 230.566 18.457 230.84 17.8047C231.113 17.1484 231.477 16.6602 231.93 16.3398C232.281 16.0859 232.645 15.959 233.02 15.959C233.629 15.959 234.176 16.2695 234.66 16.8906C235.266 17.6602 235.568 18.7031 235.568 20.0195C235.568 20.9414 235.436 21.7246 235.17 22.3691C234.904 23.0137 234.564 23.4824 234.15 23.7754C233.74 24.0645 233.344 24.209 232.961 24.209C232.203 24.209 231.572 23.7617 231.068 22.8672C230.643 22.1133 230.43 21.2051 230.43 20.1426ZM231.578 20.2891C231.578 21.3828 231.713 22.2754 231.982 22.9668C232.205 23.5488 232.537 23.8398 232.979 23.8398C233.189 23.8398 233.408 23.7461 233.635 23.5586C233.861 23.3672 234.033 23.0488 234.15 22.6035C234.33 21.9316 234.42 20.9844 234.42 19.7617C234.42 18.8555 234.326 18.0996 234.139 17.4941C233.998 17.0449 233.816 16.7266 233.594 16.5391C233.434 16.4102 233.24 16.3457 233.014 16.3457C232.748 16.3457 232.512 16.4648 232.305 16.7031C232.023 17.0273 231.832 17.5371 231.73 18.2324C231.629 18.9277 231.578 19.6133 231.578 20.2891Z" fill="black"/>
<path d="M316.719 16.9023L318.652 15.959H318.846V22.668C318.846 23.1133 318.863 23.3906 318.898 23.5C318.938 23.6094 319.016 23.6934 319.133 23.752C319.25 23.8105 319.488 23.8438 319.848 23.8516V24.0684H316.859V23.8516C317.234 23.8438 317.477 23.8125 317.586 23.7578C317.695 23.6992 317.771 23.623 317.814 23.5293C317.857 23.4316 317.879 23.1445 317.879 22.668V18.3789C317.879 17.8008 317.859 17.4297 317.82 17.2656C317.793 17.1406 317.742 17.0488 317.668 16.9902C317.598 16.9316 317.512 16.9023 317.41 16.9023C317.266 16.9023 317.064 16.9629 316.807 17.084L316.719 16.9023ZM321.922 17.6348C322.148 17.0996 322.434 16.6875 322.777 16.3984C323.125 16.1055 323.557 15.959 324.072 15.959C324.709 15.959 325.197 16.166 325.537 16.5801C325.795 16.8887 325.924 17.2188 325.924 17.5703C325.924 18.1484 325.561 18.7461 324.834 19.3633C325.322 19.5547 325.691 19.8281 325.941 20.1836C326.191 20.5391 326.316 20.957 326.316 21.4375C326.316 22.125 326.098 22.7207 325.66 23.2246C325.09 23.8809 324.264 24.209 323.182 24.209C322.646 24.209 322.281 24.1426 322.086 24.0098C321.895 23.877 321.799 23.7344 321.799 23.582C321.799 23.4688 321.844 23.3691 321.934 23.2832C322.027 23.1973 322.139 23.1543 322.268 23.1543C322.365 23.1543 322.465 23.1699 322.566 23.2012C322.633 23.2207 322.783 23.293 323.018 23.418C323.252 23.5391 323.414 23.6113 323.504 23.6348C323.648 23.6777 323.803 23.6992 323.967 23.6992C324.365 23.6992 324.711 23.5449 325.004 23.2363C325.301 22.9277 325.449 22.5625 325.449 22.1406C325.449 21.832 325.381 21.5312 325.244 21.2383C325.143 21.0195 325.031 20.8535 324.91 20.7402C324.742 20.584 324.512 20.4434 324.219 20.3184C323.926 20.1895 323.627 20.125 323.322 20.125H323.135V19.9492C323.443 19.9102 323.752 19.7988 324.061 19.6152C324.373 19.4316 324.6 19.2109 324.74 18.9531C324.881 18.6953 324.951 18.4121 324.951 18.1035C324.951 17.7012 324.824 17.377 324.57 17.1309C324.32 16.8809 324.008 16.7559 323.633 16.7559C323.027 16.7559 322.521 17.0801 322.115 17.7285L321.922 17.6348ZM332.521 16.123L332.064 17.1191H329.674L329.152 18.1855C330.188 18.3379 331.008 18.7227 331.613 19.3398C332.133 19.8711 332.393 20.4961 332.393 21.2148C332.393 21.6328 332.307 22.0195 332.135 22.375C331.967 22.7305 331.754 23.0332 331.496 23.2832C331.238 23.5332 330.951 23.7344 330.635 23.8867C330.186 24.1016 329.725 24.209 329.252 24.209C328.775 24.209 328.428 24.1289 328.209 23.9688C327.994 23.8047 327.887 23.625 327.887 23.4297C327.887 23.3203 327.932 23.2246 328.021 23.1426C328.111 23.0566 328.225 23.0137 328.361 23.0137C328.463 23.0137 328.551 23.0293 328.625 23.0605C328.703 23.0918 328.834 23.1719 329.018 23.3008C329.311 23.5039 329.607 23.6055 329.908 23.6055C330.365 23.6055 330.766 23.4336 331.109 23.0898C331.457 22.7422 331.631 22.3203 331.631 21.8242C331.631 21.3438 331.477 20.8965 331.168 20.4824C330.859 20.0645 330.434 19.7422 329.891 19.5156C329.465 19.3398 328.885 19.2383 328.15 19.2109L329.674 16.123H332.521ZM333.746 20.1426C333.746 19.2363 333.883 18.457 334.156 17.8047C334.43 17.1484 334.793 16.6602 335.246 16.3398C335.598 16.0859 335.961 15.959 336.336 15.959C336.945 15.959 337.492 16.2695 337.977 16.8906C338.582 17.6602 338.885 18.7031 338.885 20.0195C338.885 20.9414 338.752 21.7246 338.486 22.3691C338.221 23.0137 337.881 23.4824 337.467 23.7754C337.057 24.0645 336.66 24.209 336.277 24.209C335.52 24.209 334.889 23.7617 334.385 22.8672C333.959 22.1133 333.746 21.2051 333.746 20.1426ZM334.895 20.2891C334.895 21.3828 335.029 22.2754 335.299 22.9668C335.521 23.5488 335.854 23.8398 336.295 23.8398C336.506 23.8398 336.725 23.7461 336.951 23.5586C337.178 23.3672 337.35 23.0488 337.467 22.6035C337.646 21.9316 337.736 20.9844 337.736 19.7617C337.736 18.8555 337.643 18.0996 337.455 17.4941C337.314 17.0449 337.133 16.7266 336.91 16.5391C336.75 16.4102 336.557 16.3457 336.33 16.3457C336.064 16.3457 335.828 16.4648 335.621 16.7031C335.34 17.0273 335.148 17.5371 335.047 18.2324C334.945 18.9277 334.895 19.6133 334.895 20.2891Z" fill="black"/>
<path d="M420.033 16.9023L421.967 15.959H422.16V22.668C422.16 23.1133 422.178 23.3906 422.213 23.5C422.252 23.6094 422.33 23.6934 422.447 23.752C422.564 23.8105 422.803 23.8438 423.162 23.8516V24.0684H420.174V23.8516C420.549 23.8438 420.791 23.8125 420.9 23.7578C421.01 23.6992 421.086 23.623 421.129 23.5293C421.172 23.4316 421.193 23.1445 421.193 22.668V18.3789C421.193 17.8008 421.174 17.4297 421.135 17.2656C421.107 17.1406 421.057 17.0488 420.982 16.9902C420.912 16.9316 420.826 16.9023 420.725 16.9023C420.58 16.9023 420.379 16.9629 420.121 17.084L420.033 16.9023ZM430.211 21.1387V21.9707H429.145V24.0684H428.178V21.9707H424.814V21.2207L428.5 15.959H429.145V21.1387H430.211ZM428.178 21.1387V17.1953L425.389 21.1387H428.178ZM431.061 20.1426C431.061 19.2363 431.197 18.457 431.471 17.8047C431.744 17.1484 432.107 16.6602 432.561 16.3398C432.912 16.0859 433.275 15.959 433.65 15.959C434.26 15.959 434.807 16.2695 435.291 16.8906C435.896 17.6602 436.199 18.7031 436.199 20.0195C436.199 20.9414 436.066 21.7246 435.801 22.3691C435.535 23.0137 435.195 23.4824 434.781 23.7754C434.371 24.0645 433.975 24.209 433.592 24.209C432.834 24.209 432.203 23.7617 431.699 22.8672C431.273 22.1133 431.061 21.2051 431.061 20.1426ZM432.209 20.2891C432.209 21.3828 432.344 22.2754 432.613 22.9668C432.836 23.5488 433.168 23.8398 433.609 23.8398C433.82 23.8398 434.039 23.7461 434.266 23.5586C434.492 23.3672 434.664 23.0488 434.781 22.6035C434.961 21.9316 435.051 20.9844 435.051 19.7617C435.051 18.8555 434.957 18.0996 434.77 17.4941C434.629 17.0449 434.447 16.7266 434.225 16.5391C434.064 16.4102 433.871 16.3457 433.645 16.3457C433.379 16.3457 433.143 16.4648 432.936 16.7031C432.654 17.0273 432.463 17.5371 432.361 18.2324C432.26 18.9277 432.209 19.6133 432.209 20.2891ZM437.061 20.1426C437.061 19.2363 437.197 18.457 437.471 17.8047C437.744 17.1484 438.107 16.6602 438.561 16.3398C438.912 16.0859 439.275 15.959 439.65 15.959C440.26 15.959 440.807 16.2695 441.291 16.8906C441.896 17.6602 442.199 18.7031 442.199 20.0195C442.199 20.9414 442.066 21.7246 441.801 22.3691C441.535 23.0137 441.195 23.4824 440.781 23.7754C440.371 24.0645 439.975 24.209 439.592 24.209C438.834 24.209 438.203 23.7617 437.699 22.8672C437.273 22.1133 437.061 21.2051 437.061 20.1426ZM438.209 20.2891C438.209 21.3828 438.344 22.2754 438.613 22.9668C438.836 23.5488 439.168 23.8398 439.609 23.8398C439.82 23.8398 440.039 23.7461 440.266 23.5586C440.492 23.3672 440.664 23.0488 440.781 22.6035C440.961 21.9316 441.051 20.9844 441.051 19.7617C441.051 18.8555 440.957 18.0996 440.77 17.4941C440.629 17.0449 440.447 16.7266 440.225 16.5391C440.064 16.4102 439.871 16.3457 439.645 16.3457C439.379 16.3457 439.143 16.4648 438.936 16.7031C438.654 17.0273 438.463 17.5371 438.361 18.2324C438.26 18.9277 438.209 19.6133 438.209 20.2891Z" fill="black"/>
<path d="M523.348 16.9023L525.281 15.959H525.475V22.668C525.475 23.1133 525.492 23.3906 525.527 23.5C525.566 23.6094 525.645 23.6934 525.762 23.752C525.879 23.8105 526.117 23.8438 526.477 23.8516V24.0684H523.488V23.8516C523.863 23.8438 524.105 23.8125 524.215 23.7578C524.324 23.6992 524.4 23.623 524.443 23.5293C524.486 23.4316 524.508 23.1445 524.508 22.668V18.3789C524.508 17.8008 524.488 17.4297 524.449 17.2656C524.422 17.1406 524.371 17.0488 524.297 16.9902C524.227 16.9316 524.141 16.9023 524.039 16.9023C523.895 16.9023 523.693 16.9629 523.436 17.084L523.348 16.9023ZM533.525 21.1387V21.9707H532.459V24.0684H531.492V21.9707H528.129V21.2207L531.814 15.959H532.459V21.1387H533.525ZM531.492 21.1387V17.1953L528.703 21.1387H531.492ZM539.15 16.123L538.693 17.1191H536.303L535.781 18.1855C536.816 18.3379 537.637 18.7227 538.242 19.3398C538.762 19.8711 539.021 20.4961 539.021 21.2148C539.021 21.6328 538.936 22.0195 538.764 22.375C538.596 22.7305 538.383 23.0332 538.125 23.2832C537.867 23.5332 537.58 23.7344 537.264 23.8867C536.814 24.1016 536.354 24.209 535.881 24.209C535.404 24.209 535.057 24.1289 534.838 23.9688C534.623 23.8047 534.516 23.625 534.516 23.4297C534.516 23.3203 534.561 23.2246 534.65 23.1426C534.74 23.0566 534.854 23.0137 534.99 23.0137C535.092 23.0137 535.18 23.0293 535.254 23.0605C535.332 23.0918 535.463 23.1719 535.646 23.3008C535.939 23.5039 536.236 23.6055 536.537 23.6055C536.994 23.6055 537.395 23.4336 537.738 23.0898C538.086 22.7422 538.26 22.3203 538.26 21.8242C538.26 21.3438 538.105 20.8965 537.797 20.4824C537.488 20.0645 537.062 19.7422 536.52 19.5156C536.094 19.3398 535.514 19.2383 534.779 19.2109L536.303 16.123H539.15ZM540.375 20.1426C540.375 19.2363 540.512 18.457 540.785 17.8047C541.059 17.1484 541.422 16.6602 541.875 16.3398C542.227 16.0859 542.59 15.959 542.965 15.959C543.574 15.959 544.121 16.2695 544.605 16.8906C545.211 17.6602 545.514 18.7031 545.514 20.0195C545.514 20.9414 545.381 21.7246 545.115 22.3691C544.85 23.0137 544.51 23.4824 544.096 23.7754C543.686 24.0645 543.289 24.209 542.906 24.209C542.148 24.209 541.518 23.7617 541.014 22.8672C540.588 22.1133 540.375 21.2051 540.375 20.1426ZM541.523 20.2891C541.523 21.3828 541.658 22.2754 541.928 22.9668C542.15 23.5488 542.482 23.8398 542.924 23.8398C543.135 23.8398 543.354 23.7461 543.58 23.5586C543.807 23.3672 543.979 23.0488 544.096 22.6035C544.275 21.9316 544.365 20.9844 544.365 19.7617C544.365 18.8555 544.271 18.0996 544.084 17.4941C543.943 17.0449 543.762 16.7266 543.539 16.5391C543.379 16.4102 543.186 16.3457 542.959 16.3457C542.693 16.3457 542.457 16.4648 542.25 16.7031C541.969 17.0273 541.777 17.5371 541.676 18.2324C541.574 18.9277 541.523 19.6133 541.523 20.2891Z" fill="black"/>
<path d="M626.662 16.9023L628.596 15.959H628.789V22.668C628.789 23.1133 628.807 23.3906 628.842 23.5C628.881 23.6094 628.959 23.6934 629.076 23.752C629.193 23.8105 629.432 23.8438 629.791 23.8516V24.0684H626.803V23.8516C627.178 23.8438 627.42 23.8125 627.529 23.7578C627.639 23.6992 627.715 23.623 627.758 23.5293C627.801 23.4316 627.822 23.1445 627.822 22.668V18.3789C627.822 17.8008 627.803 17.4297 627.764 17.2656C627.736 17.1406 627.686 17.0488 627.611 16.9902C627.541 16.9316 627.455 16.9023 627.354 16.9023C627.209 16.9023 627.008 16.9629 626.75 17.084L626.662 16.9023ZM636.465 16.123L636.008 17.1191H633.617L633.096 18.1855C634.131 18.3379 634.951 18.7227 635.557 19.3398C636.076 19.8711 636.336 20.4961 636.336 21.2148C636.336 21.6328 636.25 22.0195 636.078 22.375C635.91 22.7305 635.697 23.0332 635.439 23.2832C635.182 23.5332 634.895 23.7344 634.578 23.8867C634.129 24.1016 633.668 24.209 633.195 24.209C632.719 24.209 632.371 24.1289 632.152 23.9688C631.938 23.8047 631.83 23.625 631.83 23.4297C631.83 23.3203 631.875 23.2246 631.965 23.1426C632.055 23.0566 632.168 23.0137 632.305 23.0137C632.406 23.0137 632.494 23.0293 632.568 23.0605C632.646 23.0918 632.777 23.1719 632.961 23.3008C633.254 23.5039 633.551 23.6055 633.852 23.6055C634.309 23.6055 634.709 23.4336 635.053 23.0898C635.4 22.7422 635.574 22.3203 635.574 21.8242C635.574 21.3438 635.42 20.8965 635.111 20.4824C634.803 20.0645 634.377 19.7422 633.834 19.5156C633.408 19.3398 632.828 19.2383 632.094 19.2109L633.617 16.123H636.465ZM637.689 20.1426C637.689 19.2363 637.826 18.457 638.1 17.8047C638.373 17.1484 638.736 16.6602 639.189 16.3398C639.541 16.0859 639.904 15.959 640.279 15.959C640.889 15.959 641.436 16.2695 641.92 16.8906C642.525 17.6602 642.828 18.7031 642.828 20.0195C642.828 20.9414 642.695 21.7246 642.43 22.3691C642.164 23.0137 641.824 23.4824 641.41 23.7754C641 24.0645 640.604 24.209 640.221 24.209C639.463 24.209 638.832 23.7617 638.328 22.8672C637.902 22.1133 637.689 21.2051 637.689 20.1426ZM638.838 20.2891C638.838 21.3828 638.973 22.2754 639.242 22.9668C639.465 23.5488 639.797 23.8398 640.238 23.8398C640.449 23.8398 640.668 23.7461 640.895 23.5586C641.121 23.3672 641.293 23.0488 641.41 22.6035C641.59 21.9316 641.68 20.9844 641.68 19.7617C641.68 18.8555 641.586 18.0996 641.398 17.4941C641.258 17.0449 641.076 16.7266 640.854 16.5391C640.693 16.4102 640.5 16.3457 640.273 16.3457C640.008 16.3457 639.771 16.4648 639.564 16.7031C639.283 17.0273 639.092 17.5371 638.99 18.2324C638.889 18.9277 638.838 19.6133 638.838 20.2891ZM643.689 20.1426C643.689 19.2363 643.826 18.457 644.1 17.8047C644.373 17.1484 644.736 16.6602 645.189 16.3398C645.541 16.0859 645.904 15.959 646.279 15.959C646.889 15.959 647.436 16.2695 647.92 16.8906C648.525 17.6602 648.828 18.7031 648.828 20.0195C648.828 20.9414 648.695 21.7246 648.43 22.3691C648.164 23.0137 647.824 23.4824 647.41 23.7754C647 24.0645 646.604 24.209 646.221 24.209C645.463 24.209 644.832 23.7617 644.328 22.8672C643.902 22.1133 643.689 21.2051 643.689 20.1426ZM644.838 20.2891C644.838 21.3828 644.973 22.2754 645.242 22.9668C645.465 23.5488 645.797 23.8398 646.238 23.8398C646.449 23.8398 646.668 23.7461 646.895 23.5586C647.121 23.3672 647.293 23.0488 647.41 22.6035C647.59 21.9316 647.68 20.9844 647.68 19.7617C647.68 18.8555 647.586 18.0996 647.398 17.4941C647.258 17.0449 647.076 16.7266 646.854 16.5391C646.693 16.4102 646.5 16.3457 646.273 16.3457C646.008 16.3457 645.771 16.4648 645.564 16.7031C645.283 17.0273 645.092 17.5371 644.99 18.2324C644.889 18.9277 644.838 19.6133 644.838 20.2891Z" fill="black"/>
<path d="M729.979 16.9023L731.912 15.959H732.105V22.668C732.105 23.1133 732.123 23.3906 732.158 23.5C732.197 23.6094 732.275 23.6934 732.393 23.752C732.51 23.8105 732.748 23.8438 733.107 23.8516V24.0684H730.119V23.8516C730.494 23.8438 730.736 23.8125 730.846 23.7578C730.955 23.6992 731.031 23.623 731.074 23.5293C731.117 23.4316 731.139 23.1445 731.139 22.668V18.3789C731.139 17.8008 731.119 17.4297 731.08 17.2656C731.053 17.1406 731.002 17.0488 730.928 16.9902C730.857 16.9316 730.771 16.9023 730.67 16.9023C730.525 16.9023 730.324 16.9629 730.066 17.084L729.979 16.9023ZM739.781 16.123L739.324 17.1191H736.934L736.412 18.1855C737.447 18.3379 738.268 18.7227 738.873 19.3398C739.393 19.8711 739.652 20.4961 739.652 21.2148C739.652 21.6328 739.566 22.0195 739.395 22.375C739.227 22.7305 739.014 23.0332 738.756 23.2832C738.498 23.5332 738.211 23.7344 737.895 23.8867C737.445 24.1016 736.984 24.209 736.512 24.209C736.035 24.209 735.688 24.1289 735.469 23.9688C735.254 23.8047 735.146 23.625 735.146 23.4297C735.146 23.3203 735.191 23.2246 735.281 23.1426C735.371 23.0566 735.484 23.0137 735.621 23.0137C735.723 23.0137 735.811 23.0293 735.885 23.0605C735.963 23.0918 736.094 23.1719 736.277 23.3008C736.57 23.5039 736.867 23.6055 737.168 23.6055C737.625 23.6055 738.025 23.4336 738.369 23.0898C738.717 22.7422 738.891 22.3203 738.891 21.8242C738.891 21.3438 738.736 20.8965 738.428 20.4824C738.119 20.0645 737.693 19.7422 737.15 19.5156C736.725 19.3398 736.145 19.2383 735.41 19.2109L736.934 16.123H739.781ZM745.781 16.123L745.324 17.1191H742.934L742.412 18.1855C743.447 18.3379 744.268 18.7227 744.873 19.3398C745.393 19.8711 745.652 20.4961 745.652 21.2148C745.652 21.6328 745.566 22.0195 745.395 22.375C745.227 22.7305 745.014 23.0332 744.756 23.2832C744.498 23.5332 744.211 23.7344 743.895 23.8867C743.445 24.1016 742.984 24.209 742.512 24.209C742.035 24.209 741.688 24.1289 741.469 23.9688C741.254 23.8047 741.146 23.625 741.146 23.4297C741.146 23.3203 741.191 23.2246 741.281 23.1426C741.371 23.0566 741.484 23.0137 741.621 23.0137C741.723 23.0137 741.811 23.0293 741.885 23.0605C741.963 23.0918 742.094 23.1719 742.277 23.3008C742.57 23.5039 742.867 23.6055 743.168 23.6055C743.625 23.6055 744.025 23.4336 744.369 23.0898C744.717 22.7422 744.891 22.3203 744.891 21.8242C744.891 21.3438 744.736 20.8965 744.428 20.4824C744.119 20.0645 743.693 19.7422 743.15 19.5156C742.725 19.3398 742.145 19.2383 741.41 19.2109L742.934 16.123H745.781ZM747.006 20.1426C747.006 19.2363 747.143 18.457 747.416 17.8047C747.689 17.1484 748.053 16.6602 748.506 16.3398C748.857 16.0859 749.221 15.959 749.596 15.959C750.205 15.959 750.752 16.2695 751.236 16.8906C751.842 17.6602 752.145 18.7031 752.145 20.0195C752.145 20.9414 752.012 21.7246 751.746 22.3691C751.48 23.0137 751.141 23.4824 750.727 23.7754C750.316 24.0645 749.92 24.209 749.537 24.209C748.779 24.209 748.148 23.7617 747.645 22.8672C747.219 22.1133 747.006 21.2051 747.006 20.1426ZM748.154 20.2891C748.154 21.3828 748.289 22.2754 748.559 22.9668C748.781 23.5488 749.113 23.8398 749.555 23.8398C749.766 23.8398 749.984 23.7461 750.211 23.5586C750.438 23.3672 750.609 23.0488 750.727 22.6035C750.906 21.9316 750.996 20.9844 750.996 19.7617C750.996 18.8555 750.902 18.0996 750.715 17.4941C750.574 17.0449 750.393 16.7266 750.17 16.5391C750.01 16.4102 749.816 16.3457 749.59 16.3457C749.324 16.3457 749.088 16.4648 748.881 16.7031C748.6 17.0273 748.408 17.5371 748.307 18.2324C748.205 18.9277 748.154 19.6133 748.154 20.2891Z" fill="black"/>
<path d="M833.293 16.9023L835.227 15.959H835.42V22.668C835.42 23.1133 835.438 23.3906 835.473 23.5C835.512 23.6094 835.59 23.6934 835.707 23.752C835.824 23.8105 836.062 23.8438 836.422 23.8516V24.0684H833.434V23.8516C833.809 23.8438 834.051 23.8125 834.16 23.7578C834.27 23.6992 834.346 23.623 834.389 23.5293C834.432 23.4316 834.453 23.1445 834.453 22.668V18.3789C834.453 17.8008 834.434 17.4297 834.395 17.2656C834.367 17.1406 834.316 17.0488 834.242 16.9902C834.172 16.9316 834.086 16.9023 833.984 16.9023C833.84 16.9023 833.639 16.9629 833.381 17.084L833.293 16.9023ZM843.266 15.959V16.1758C842.75 16.2266 842.328 16.3301 842 16.4863C841.676 16.6387 841.354 16.873 841.033 17.1895C840.717 17.5059 840.453 17.8594 840.242 18.25C840.035 18.6367 839.861 19.0977 839.721 19.6328C840.283 19.2461 840.848 19.0527 841.414 19.0527C841.957 19.0527 842.428 19.2715 842.826 19.709C843.225 20.1465 843.424 20.709 843.424 21.3965C843.424 22.0605 843.223 22.666 842.82 23.2129C842.336 23.877 841.695 24.209 840.898 24.209C840.355 24.209 839.895 24.0293 839.516 23.6699C838.773 22.9707 838.402 22.0645 838.402 20.9512C838.402 20.2402 838.545 19.5645 838.83 18.9238C839.115 18.2832 839.521 17.7148 840.049 17.2188C840.58 16.7227 841.088 16.3887 841.572 16.2168C842.057 16.0449 842.508 15.959 842.926 15.959H843.266ZM839.621 20.0605C839.551 20.5879 839.516 21.0137 839.516 21.3379C839.516 21.7129 839.584 22.1211 839.721 22.5625C839.861 23 840.068 23.3477 840.342 23.6055C840.541 23.7891 840.783 23.8809 841.068 23.8809C841.408 23.8809 841.711 23.7207 841.977 23.4004C842.246 23.0801 842.381 22.623 842.381 22.0293C842.381 21.3613 842.248 20.7832 841.982 20.2949C841.717 19.8066 841.34 19.5625 840.852 19.5625C840.703 19.5625 840.543 19.5938 840.371 19.6562C840.203 19.7188 839.953 19.8535 839.621 20.0605ZM844.32 20.1426C844.32 19.2363 844.457 18.457 844.73 17.8047C845.004 17.1484 845.367 16.6602 845.82 16.3398C846.172 16.0859 846.535 15.959 846.91 15.959C847.52 15.959 848.066 16.2695 848.551 16.8906C849.156 17.6602 849.459 18.7031 849.459 20.0195C849.459 20.9414 849.326 21.7246 849.061 22.3691C848.795 23.0137 848.455 23.4824 848.041 23.7754C847.631 24.0645 847.234 24.209 846.852 24.209C846.094 24.209 845.463 23.7617 844.959 22.8672C844.533 22.1133 844.32 21.2051 844.32 20.1426ZM845.469 20.2891C845.469 21.3828 845.604 22.2754 845.873 22.9668C846.096 23.5488 846.428 23.8398 846.869 23.8398C847.08 23.8398 847.299 23.7461 847.525 23.5586C847.752 23.3672 847.924 23.0488 848.041 22.6035C848.221 21.9316 848.311 20.9844 848.311 19.7617C848.311 18.8555 848.217 18.0996 848.029 17.4941C847.889 17.0449 847.707 16.7266 847.484 16.5391C847.324 16.4102 847.131 16.3457 846.904 16.3457C846.639 16.3457 846.402 16.4648 846.195 16.7031C845.914 17.0273 845.723 17.5371 845.621 18.2324C845.52 18.9277 845.469 19.6133 845.469 20.2891ZM850.32 20.1426C850.32 19.2363 850.457 18.457 850.73 17.8047C851.004 17.1484 851.367 16.6602 851.82 16.3398C852.172 16.0859 852.535 15.959 852.91 15.959C853.52 15.959 854.066 16.2695 854.551 16.8906C855.156 17.6602 855.459 18.7031 855.459 20.0195C855.459 20.9414 855.326 21.7246 855.061 22.3691C854.795 23.0137 854.455 23.4824 854.041 23.7754C853.631 24.0645 853.234 24.209 852.852 24.209C852.094 24.209 851.463 23.7617 850.959 22.8672C850.533 22.1133 850.32 21.2051 850.32 20.1426ZM851.469 20.2891C851.469 21.3828 851.604 22.2754 851.873 22.9668C852.096 23.5488 852.428 23.8398 852.869 23.8398C853.08 23.8398 853.299 23.7461 853.525 23.5586C853.752 23.3672 853.924 23.0488 854.041 22.6035C854.221 21.9316 854.311 20.9844 854.311 19.7617C854.311 18.8555 854.217 18.0996 854.029 17.4941C853.889 17.0449 853.707 16.7266 853.484 16.5391C853.324 16.4102 853.131 16.3457 852.904 16.3457C852.639 16.3457 852.402 16.4648 852.195 16.7031C851.914 17.0273 851.723 17.5371 851.621 18.2324C851.52 18.9277 851.469 19.6133 851.469 20.2891Z" fill="black"/>
<path d="M935.266 16.9023L937.199 15.959H937.393V22.668C937.393 23.1133 937.41 23.3906 937.445 23.5C937.484 23.6094 937.562 23.6934 937.68 23.752C937.797 23.8105 938.035 23.8438 938.395 23.8516V24.0684H935.406V23.8516C935.781 23.8438 936.023 23.8125 936.133 23.7578C936.242 23.6992 936.318 23.623 936.361 23.5293C936.404 23.4316 936.426 23.1445 936.426 22.668V18.3789C936.426 17.8008 936.406 17.4297 936.367 17.2656C936.34 17.1406 936.289 17.0488 936.215 16.9902C936.145 16.9316 936.059 16.9023 935.957 16.9023C935.812 16.9023 935.611 16.9629 935.354 17.084L935.266 16.9023ZM945.238 15.959V16.1758C944.723 16.2266 944.301 16.3301 943.973 16.4863C943.648 16.6387 943.326 16.873 943.006 17.1895C942.689 17.5059 942.426 17.8594 942.215 18.25C942.008 18.6367 941.834 19.0977 941.693 19.6328C942.256 19.2461 942.82 19.0527 943.387 19.0527C943.93 19.0527 944.4 19.2715 944.799 19.709C945.197 20.1465 945.396 20.709 945.396 21.3965C945.396 22.0605 945.195 22.666 944.793 23.2129C944.309 23.877 943.668 24.209 942.871 24.209C942.328 24.209 941.867 24.0293 941.488 23.6699C940.746 22.9707 940.375 22.0645 940.375 20.9512C940.375 20.2402 940.518 19.5645 940.803 18.9238C941.088 18.2832 941.494 17.7148 942.021 17.2188C942.553 16.7227 943.061 16.3887 943.545 16.2168C944.029 16.0449 944.48 15.959 944.898 15.959H945.238ZM941.594 20.0605C941.523 20.5879 941.488 21.0137 941.488 21.3379C941.488 21.7129 941.557 22.1211 941.693 22.5625C941.834 23 942.041 23.3477 942.314 23.6055C942.514 23.7891 942.756 23.8809 943.041 23.8809C943.381 23.8809 943.684 23.7207 943.949 23.4004C944.219 23.0801 944.354 22.623 944.354 22.0293C944.354 21.3613 944.221 20.7832 943.955 20.2949C943.689 19.8066 943.312 19.5625 942.824 19.5625C942.676 19.5625 942.516 19.5938 942.344 19.6562C942.176 19.7188 941.926 19.8535 941.594 20.0605ZM951.068 16.123L950.611 17.1191H948.221L947.699 18.1855C948.734 18.3379 949.555 18.7227 950.16 19.3398C950.68 19.8711 950.939 20.4961 950.939 21.2148C950.939 21.6328 950.854 22.0195 950.682 22.375C950.514 22.7305 950.301 23.0332 950.043 23.2832C949.785 23.5332 949.498 23.7344 949.182 23.8867C948.732 24.1016 948.271 24.209 947.799 24.209C947.322 24.209 946.975 24.1289 946.756 23.9688C946.541 23.8047 946.434 23.625 946.434 23.4297C946.434 23.3203 946.479 23.2246 946.568 23.1426C946.658 23.0566 946.771 23.0137 946.908 23.0137C947.01 23.0137 947.098 23.0293 947.172 23.0605C947.25 23.0918 947.381 23.1719 947.564 23.3008C947.857 23.5039 948.154 23.6055 948.455 23.6055C948.912 23.6055 949.312 23.4336 949.656 23.0898C950.004 22.7422 950.178 22.3203 950.178 21.8242C950.178 21.3438 950.023 20.8965 949.715 20.4824C949.406 20.0645 948.98 19.7422 948.438 19.5156C948.012 19.3398 947.432 19.2383 946.697 19.2109L948.221 16.123H951.068ZM952.293 20.1426C952.293 19.2363 952.43 18.457 952.703 17.8047C952.977 17.1484 953.34 16.6602 953.793 16.3398C954.145 16.0859 954.508 15.959 954.883 15.959C955.492 15.959 956.039 16.2695 956.523 16.8906C957.129 17.6602 957.432 18.7031 957.432 20.0195C957.432 20.9414 957.299 21.7246 957.033 22.3691C956.768 23.0137 956.428 23.4824 956.014 23.7754C955.604 24.0645 955.207 24.209 954.824 24.209C954.066 24.209 953.436 23.7617 952.932 22.8672C952.506 22.1133 952.293 21.2051 952.293 20.1426ZM953.441 20.2891C953.441 21.3828 953.576 22.2754 953.846 22.9668C954.068 23.5488 954.4 23.8398 954.842 23.8398C955.053 23.8398 955.271 23.7461 955.498 23.5586C955.725 23.3672 955.896 23.0488 956.014 22.6035C956.193 21.9316 956.283 20.9844 956.283 19.7617C956.283 18.8555 956.189 18.0996 956.002 17.4941C955.861 17.0449 955.68 16.7266 955.457 16.5391C955.297 16.4102 955.104 16.3457 954.877 16.3457C954.611 16.3457 954.375 16.4648 954.168 16.7031C953.887 17.0273 953.695 17.5371 953.594 18.2324C953.492 18.9277 953.441 19.6133 953.441 20.2891Z" fill="black"/>
<path d="M1038.58 16.9023L1040.51 15.959H1040.71V22.668C1040.71 23.1133 1040.72 23.3906 1040.76 23.5C1040.8 23.6094 1040.88 23.6934 1040.99 23.752C1041.11 23.8105 1041.35 23.8438 1041.71 23.8516V24.0684H1038.72V23.8516C1039.1 23.8438 1039.34 23.8125 1039.45 23.7578C1039.56 23.6992 1039.63 23.623 1039.68 23.5293C1039.72 23.4316 1039.74 23.1445 1039.74 22.668V18.3789C1039.74 17.8008 1039.72 17.4297 1039.68 17.2656C1039.65 17.1406 1039.6 17.0488 1039.53 16.9902C1039.46 16.9316 1039.37 16.9023 1039.27 16.9023C1039.13 16.9023 1038.93 16.9629 1038.67 17.084L1038.58 16.9023ZM1044.38 16.123H1048.64V16.3457L1045.99 24.2324H1045.34L1047.71 17.0781H1045.52C1045.08 17.0781 1044.77 17.1309 1044.58 17.2363C1044.25 17.416 1043.99 17.6934 1043.79 18.0684L1043.62 18.0039L1044.38 16.123ZM1049.61 20.1426C1049.61 19.2363 1049.74 18.457 1050.02 17.8047C1050.29 17.1484 1050.65 16.6602 1051.11 16.3398C1051.46 16.0859 1051.82 15.959 1052.2 15.959C1052.81 15.959 1053.35 16.2695 1053.84 16.8906C1054.44 17.6602 1054.75 18.7031 1054.75 20.0195C1054.75 20.9414 1054.61 21.7246 1054.35 22.3691C1054.08 23.0137 1053.74 23.4824 1053.33 23.7754C1052.92 24.0645 1052.52 24.209 1052.14 24.209C1051.38 24.209 1050.75 23.7617 1050.25 22.8672C1049.82 22.1133 1049.61 21.2051 1049.61 20.1426ZM1050.76 20.2891C1050.76 21.3828 1050.89 22.2754 1051.16 22.9668C1051.38 23.5488 1051.71 23.8398 1052.16 23.8398C1052.37 23.8398 1052.59 23.7461 1052.81 23.5586C1053.04 23.3672 1053.21 23.0488 1053.33 22.6035C1053.51 21.9316 1053.6 20.9844 1053.6 19.7617C1053.6 18.8555 1053.5 18.0996 1053.32 17.4941C1053.18 17.0449 1052.99 16.7266 1052.77 16.5391C1052.61 16.4102 1052.42 16.3457 1052.19 16.3457C1051.93 16.3457 1051.69 16.4648 1051.48 16.7031C1051.2 17.0273 1051.01 17.5371 1050.91 18.2324C1050.81 18.9277 1050.76 19.6133 1050.76 20.2891ZM1055.61 20.1426C1055.61 19.2363 1055.74 18.457 1056.02 17.8047C1056.29 17.1484 1056.65 16.6602 1057.11 16.3398C1057.46 16.0859 1057.82 15.959 1058.2 15.959C1058.81 15.959 1059.35 16.2695 1059.84 16.8906C1060.44 17.6602 1060.75 18.7031 1060.75 20.0195C1060.75 20.9414 1060.61 21.7246 1060.35 22.3691C1060.08 23.0137 1059.74 23.4824 1059.33 23.7754C1058.92 24.0645 1058.52 24.209 1058.14 24.209C1057.38 24.209 1056.75 23.7617 1056.25 22.8672C1055.82 22.1133 1055.61 21.2051 1055.61 20.1426ZM1056.76 20.2891C1056.76 21.3828 1056.89 22.2754 1057.16 22.9668C1057.38 23.5488 1057.71 23.8398 1058.16 23.8398C1058.37 23.8398 1058.59 23.7461 1058.81 23.5586C1059.04 23.3672 1059.21 23.0488 1059.33 22.6035C1059.51 21.9316 1059.6 20.9844 1059.6 19.7617C1059.6 18.8555 1059.5 18.0996 1059.32 17.4941C1059.18 17.0449 1058.99 16.7266 1058.77 16.5391C1058.61 16.4102 1058.42 16.3457 1058.19 16.3457C1057.93 16.3457 1057.69 16.4648 1057.48 16.7031C1057.2 17.0273 1057.01 17.5371 1056.91 18.2324C1056.81 18.9277 1056.76 19.6133 1056.76 20.2891Z" fill="black"/>
<path d="M1141.9 16.9023L1143.83 15.959H1144.02V22.668C1144.02 23.1133 1144.04 23.3906 1144.08 23.5C1144.12 23.6094 1144.19 23.6934 1144.31 23.752C1144.43 23.8105 1144.67 23.8438 1145.03 23.8516V24.0684H1142.04V23.8516C1142.41 23.8438 1142.65 23.8125 1142.76 23.7578C1142.87 23.6992 1142.95 23.623 1142.99 23.5293C1143.04 23.4316 1143.06 23.1445 1143.06 22.668V18.3789C1143.06 17.8008 1143.04 17.4297 1143 17.2656C1142.97 17.1406 1142.92 17.0488 1142.85 16.9902C1142.78 16.9316 1142.69 16.9023 1142.59 16.9023C1142.44 16.9023 1142.24 16.9629 1141.98 17.084L1141.9 16.9023ZM1147.7 16.123H1151.96V16.3457L1149.31 24.2324H1148.65L1151.03 17.0781H1148.84C1148.4 17.0781 1148.08 17.1309 1147.9 17.2363C1147.57 17.416 1147.3 17.6934 1147.11 18.0684L1146.94 18.0039L1147.7 16.123ZM1157.7 16.123L1157.24 17.1191H1154.85L1154.33 18.1855C1155.37 18.3379 1156.19 18.7227 1156.79 19.3398C1157.31 19.8711 1157.57 20.4961 1157.57 21.2148C1157.57 21.6328 1157.48 22.0195 1157.31 22.375C1157.14 22.7305 1156.93 23.0332 1156.67 23.2832C1156.42 23.5332 1156.13 23.7344 1155.81 23.8867C1155.36 24.1016 1154.9 24.209 1154.43 24.209C1153.95 24.209 1153.61 24.1289 1153.39 23.9688C1153.17 23.8047 1153.06 23.625 1153.06 23.4297C1153.06 23.3203 1153.11 23.2246 1153.2 23.1426C1153.29 23.0566 1153.4 23.0137 1153.54 23.0137C1153.64 23.0137 1153.73 23.0293 1153.8 23.0605C1153.88 23.0918 1154.01 23.1719 1154.2 23.3008C1154.49 23.5039 1154.79 23.6055 1155.09 23.6055C1155.54 23.6055 1155.94 23.4336 1156.29 23.0898C1156.63 22.7422 1156.81 22.3203 1156.81 21.8242C1156.81 21.3438 1156.65 20.8965 1156.35 20.4824C1156.04 20.0645 1155.61 19.7422 1155.07 19.5156C1154.64 19.3398 1154.06 19.2383 1153.33 19.2109L1154.85 16.123H1157.7ZM1158.92 20.1426C1158.92 19.2363 1159.06 18.457 1159.33 17.8047C1159.61 17.1484 1159.97 16.6602 1160.42 16.3398C1160.78 16.0859 1161.14 15.959 1161.51 15.959C1162.12 15.959 1162.67 16.2695 1163.15 16.8906C1163.76 17.6602 1164.06 18.7031 1164.06 20.0195C1164.06 20.9414 1163.93 21.7246 1163.66 22.3691C1163.4 23.0137 1163.06 23.4824 1162.64 23.7754C1162.23 24.0645 1161.84 24.209 1161.46 24.209C1160.7 24.209 1160.07 23.7617 1159.56 22.8672C1159.14 22.1133 1158.92 21.2051 1158.92 20.1426ZM1160.07 20.2891C1160.07 21.3828 1160.21 22.2754 1160.48 22.9668C1160.7 23.5488 1161.03 23.8398 1161.47 23.8398C1161.68 23.8398 1161.9 23.7461 1162.13 23.5586C1162.36 23.3672 1162.53 23.0488 1162.64 22.6035C1162.82 21.9316 1162.91 20.9844 1162.91 19.7617C1162.91 18.8555 1162.82 18.0996 1162.63 17.4941C1162.49 17.0449 1162.31 16.7266 1162.09 16.5391C1161.93 16.4102 1161.73 16.3457 1161.51 16.3457C1161.24 16.3457 1161.01 16.4648 1160.8 16.7031C1160.52 17.0273 1160.33 17.5371 1160.22 18.2324C1160.12 18.9277 1160.07 19.6133 1160.07 20.2891Z" fill="black"/>
<path d="M1245.21 16.9023L1247.14 15.959H1247.34V22.668C1247.34 23.1133 1247.36 23.3906 1247.39 23.5C1247.43 23.6094 1247.51 23.6934 1247.62 23.752C1247.74 23.8105 1247.98 23.8438 1248.34 23.8516V24.0684H1245.35V23.8516C1245.73 23.8438 1245.97 23.8125 1246.08 23.7578C1246.19 23.6992 1246.26 23.623 1246.31 23.5293C1246.35 23.4316 1246.37 23.1445 1246.37 22.668V18.3789C1246.37 17.8008 1246.35 17.4297 1246.31 17.2656C1246.29 17.1406 1246.23 17.0488 1246.16 16.9902C1246.09 16.9316 1246 16.9023 1245.9 16.9023C1245.76 16.9023 1245.56 16.9629 1245.3 17.084L1245.21 16.9023ZM1252.11 20.0664C1251.48 19.5508 1251.07 19.1367 1250.89 18.8242C1250.71 18.5117 1250.62 18.1875 1250.62 17.8516C1250.62 17.3359 1250.82 16.8926 1251.22 16.5215C1251.62 16.1465 1252.14 15.959 1252.8 15.959C1253.45 15.959 1253.96 16.1328 1254.35 16.4805C1254.74 16.8281 1254.94 17.2246 1254.94 17.6699C1254.94 17.9668 1254.83 18.2695 1254.62 18.5781C1254.41 18.8867 1253.97 19.25 1253.3 19.668C1253.99 20.1992 1254.45 20.6172 1254.67 20.9219C1254.96 21.3203 1255.11 21.7402 1255.11 22.1816C1255.11 22.7402 1254.9 23.2188 1254.47 23.6172C1254.05 24.0117 1253.49 24.209 1252.8 24.209C1252.04 24.209 1251.46 23.9727 1251.04 23.5C1250.7 23.1211 1250.53 22.707 1250.53 22.2578C1250.53 21.9062 1250.65 21.5586 1250.88 21.2148C1251.12 20.8672 1251.53 20.4844 1252.11 20.0664ZM1253.03 19.4395C1253.5 19.0176 1253.79 18.6855 1253.92 18.4434C1254.04 18.1973 1254.11 17.9199 1254.11 17.6113C1254.11 17.2012 1253.99 16.8809 1253.76 16.6504C1253.53 16.416 1253.21 16.2988 1252.82 16.2988C1252.42 16.2988 1252.09 16.4141 1251.84 16.6445C1251.59 16.875 1251.47 17.1445 1251.47 17.4531C1251.47 17.6562 1251.52 17.8594 1251.62 18.0625C1251.73 18.2656 1251.88 18.459 1252.07 18.6426L1253.03 19.4395ZM1252.38 20.2891C1252.06 20.5625 1251.82 20.8613 1251.66 21.1855C1251.51 21.5059 1251.43 21.8535 1251.43 22.2285C1251.43 22.7324 1251.56 23.1367 1251.84 23.4414C1252.12 23.7422 1252.47 23.8926 1252.89 23.8926C1253.31 23.8926 1253.65 23.7734 1253.91 23.5352C1254.16 23.2969 1254.29 23.0078 1254.29 22.668C1254.29 22.3867 1254.21 22.1348 1254.06 21.9121C1253.79 21.498 1253.23 20.957 1252.38 20.2891ZM1256.24 20.1426C1256.24 19.2363 1256.38 18.457 1256.65 17.8047C1256.92 17.1484 1257.29 16.6602 1257.74 16.3398C1258.09 16.0859 1258.45 15.959 1258.83 15.959C1259.44 15.959 1259.98 16.2695 1260.47 16.8906C1261.07 17.6602 1261.38 18.7031 1261.38 20.0195C1261.38 20.9414 1261.24 21.7246 1260.98 22.3691C1260.71 23.0137 1260.37 23.4824 1259.96 23.7754C1259.55 24.0645 1259.15 24.209 1258.77 24.209C1258.01 24.209 1257.38 23.7617 1256.88 22.8672C1256.45 22.1133 1256.24 21.2051 1256.24 20.1426ZM1257.39 20.2891C1257.39 21.3828 1257.52 22.2754 1257.79 22.9668C1258.01 23.5488 1258.35 23.8398 1258.79 23.8398C1259 23.8398 1259.22 23.7461 1259.44 23.5586C1259.67 23.3672 1259.84 23.0488 1259.96 22.6035C1260.14 21.9316 1260.23 20.9844 1260.23 19.7617C1260.23 18.8555 1260.13 18.0996 1259.95 17.4941C1259.81 17.0449 1259.62 16.7266 1259.4 16.5391C1259.24 16.4102 1259.05 16.3457 1258.82 16.3457C1258.56 16.3457 1258.32 16.4648 1258.11 16.7031C1257.83 17.0273 1257.64 17.5371 1257.54 18.2324C1257.44 18.9277 1257.39 19.6133 1257.39 20.2891ZM1262.24 20.1426C1262.24 19.2363 1262.38 18.457 1262.65 17.8047C1262.92 17.1484 1263.29 16.6602 1263.74 16.3398C1264.09 16.0859 1264.45 15.959 1264.83 15.959C1265.44 15.959 1265.98 16.2695 1266.47 16.8906C1267.07 17.6602 1267.38 18.7031 1267.38 20.0195C1267.38 20.9414 1267.24 21.7246 1266.98 22.3691C1266.71 23.0137 1266.37 23.4824 1265.96 23.7754C1265.55 24.0645 1265.15 24.209 1264.77 24.209C1264.01 24.209 1263.38 23.7617 1262.88 22.8672C1262.45 22.1133 1262.24 21.2051 1262.24 20.1426ZM1263.39 20.2891C1263.39 21.3828 1263.52 22.2754 1263.79 22.9668C1264.01 23.5488 1264.35 23.8398 1264.79 23.8398C1265 23.8398 1265.22 23.7461 1265.44 23.5586C1265.67 23.3672 1265.84 23.0488 1265.96 22.6035C1266.14 21.9316 1266.23 20.9844 1266.23 19.7617C1266.23 18.8555 1266.13 18.0996 1265.95 17.4941C1265.81 17.0449 1265.62 16.7266 1265.4 16.5391C1265.24 16.4102 1265.05 16.3457 1264.82 16.3457C1264.56 16.3457 1264.32 16.4648 1264.11 16.7031C1263.83 17.0273 1263.64 17.5371 1263.54 18.2324C1263.44 18.9277 1263.39 19.6133 1263.39 20.2891Z" fill="black"/>
<path d="M1348.53 16.9023L1350.46 15.959H1350.65V22.668C1350.65 23.1133 1350.67 23.3906 1350.71 23.5C1350.74 23.6094 1350.82 23.6934 1350.94 23.752C1351.06 23.8105 1351.29 23.8438 1351.65 23.8516V24.0684H1348.67V23.8516C1349.04 23.8438 1349.28 23.8125 1349.39 23.7578C1349.5 23.6992 1349.58 23.623 1349.62 23.5293C1349.66 23.4316 1349.69 23.1445 1349.69 22.668V18.3789C1349.69 17.8008 1349.67 17.4297 1349.63 17.2656C1349.6 17.1406 1349.55 17.0488 1349.47 16.9902C1349.4 16.9316 1349.32 16.9023 1349.22 16.9023C1349.07 16.9023 1348.87 16.9629 1348.61 17.084L1348.53 16.9023ZM1355.42 20.0664C1354.79 19.5508 1354.39 19.1367 1354.2 18.8242C1354.02 18.5117 1353.93 18.1875 1353.93 17.8516C1353.93 17.3359 1354.13 16.8926 1354.53 16.5215C1354.93 16.1465 1355.46 15.959 1356.12 15.959C1356.76 15.959 1357.28 16.1328 1357.67 16.4805C1358.06 16.8281 1358.25 17.2246 1358.25 17.6699C1358.25 17.9668 1358.15 18.2695 1357.94 18.5781C1357.72 18.8867 1357.29 19.25 1356.62 19.668C1357.3 20.1992 1357.76 20.6172 1357.98 20.9219C1358.28 21.3203 1358.43 21.7402 1358.43 22.1816C1358.43 22.7402 1358.21 23.2188 1357.79 23.6172C1357.36 24.0117 1356.8 24.209 1356.11 24.209C1355.36 24.209 1354.77 23.9727 1354.35 23.5C1354.01 23.1211 1353.85 22.707 1353.85 22.2578C1353.85 21.9062 1353.96 21.5586 1354.2 21.2148C1354.44 20.8672 1354.84 20.4844 1355.42 20.0664ZM1356.34 19.4395C1356.81 19.0176 1357.11 18.6855 1357.23 18.4434C1357.36 18.1973 1357.42 17.9199 1357.42 17.6113C1357.42 17.2012 1357.3 16.8809 1357.07 16.6504C1356.84 16.416 1356.53 16.2988 1356.13 16.2988C1355.73 16.2988 1355.41 16.4141 1355.16 16.6445C1354.91 16.875 1354.78 17.1445 1354.78 17.4531C1354.78 17.6562 1354.83 17.8594 1354.94 18.0625C1355.04 18.2656 1355.19 18.459 1355.38 18.6426L1356.34 19.4395ZM1355.7 20.2891C1355.37 20.5625 1355.13 20.8613 1354.98 21.1855C1354.82 21.5059 1354.74 21.8535 1354.74 22.2285C1354.74 22.7324 1354.88 23.1367 1355.15 23.4414C1355.43 23.7422 1355.78 23.8926 1356.21 23.8926C1356.63 23.8926 1356.97 23.7734 1357.22 23.5352C1357.47 23.2969 1357.6 23.0078 1357.6 22.668C1357.6 22.3867 1357.53 22.1348 1357.38 21.9121C1357.1 21.498 1356.54 20.957 1355.7 20.2891ZM1364.33 16.123L1363.87 17.1191H1361.48L1360.96 18.1855C1361.99 18.3379 1362.81 18.7227 1363.42 19.3398C1363.94 19.8711 1364.2 20.4961 1364.2 21.2148C1364.2 21.6328 1364.11 22.0195 1363.94 22.375C1363.77 22.7305 1363.56 23.0332 1363.3 23.2832C1363.04 23.5332 1362.76 23.7344 1362.44 23.8867C1361.99 24.1016 1361.53 24.209 1361.06 24.209C1360.58 24.209 1360.23 24.1289 1360.02 23.9688C1359.8 23.8047 1359.69 23.625 1359.69 23.4297C1359.69 23.3203 1359.74 23.2246 1359.83 23.1426C1359.92 23.0566 1360.03 23.0137 1360.17 23.0137C1360.27 23.0137 1360.36 23.0293 1360.43 23.0605C1360.51 23.0918 1360.64 23.1719 1360.82 23.3008C1361.12 23.5039 1361.41 23.6055 1361.71 23.6055C1362.17 23.6055 1362.57 23.4336 1362.92 23.0898C1363.26 22.7422 1363.44 22.3203 1363.44 21.8242C1363.44 21.3438 1363.28 20.8965 1362.97 20.4824C1362.67 20.0645 1362.24 19.7422 1361.7 19.5156C1361.27 19.3398 1360.69 19.2383 1359.96 19.2109L1361.48 16.123H1364.33ZM1365.55 20.1426C1365.55 19.2363 1365.69 18.457 1365.96 17.8047C1366.24 17.1484 1366.6 16.6602 1367.05 16.3398C1367.4 16.0859 1367.77 15.959 1368.14 15.959C1368.75 15.959 1369.3 16.2695 1369.78 16.8906C1370.39 17.6602 1370.69 18.7031 1370.69 20.0195C1370.69 20.9414 1370.56 21.7246 1370.29 22.3691C1370.03 23.0137 1369.69 23.4824 1369.27 23.7754C1368.86 24.0645 1368.47 24.209 1368.08 24.209C1367.33 24.209 1366.7 23.7617 1366.19 22.8672C1365.77 22.1133 1365.55 21.2051 1365.55 20.1426ZM1366.7 20.2891C1366.7 21.3828 1366.84 22.2754 1367.11 22.9668C1367.33 23.5488 1367.66 23.8398 1368.1 23.8398C1368.31 23.8398 1368.53 23.7461 1368.76 23.5586C1368.98 23.3672 1369.16 23.0488 1369.27 22.6035C1369.45 21.9316 1369.54 20.9844 1369.54 19.7617C1369.54 18.8555 1369.45 18.0996 1369.26 17.4941C1369.12 17.0449 1368.94 16.7266 1368.72 16.5391C1368.56 16.4102 1368.36 16.3457 1368.14 16.3457C1367.87 16.3457 1367.63 16.4648 1367.43 16.7031C1367.15 17.0273 1366.96 17.5371 1366.85 18.2324C1366.75 18.9277 1366.7 19.6133 1366.7 20.2891Z" fill="black"/>
<path d="M1451.84 16.9023L1453.77 15.959H1453.97V22.668C1453.97 23.1133 1453.98 23.3906 1454.02 23.5C1454.06 23.6094 1454.14 23.6934 1454.25 23.752C1454.37 23.8105 1454.61 23.8438 1454.97 23.8516V24.0684H1451.98V23.8516C1452.36 23.8438 1452.6 23.8125 1452.71 23.7578C1452.82 23.6992 1452.89 23.623 1452.94 23.5293C1452.98 23.4316 1453 23.1445 1453 22.668V18.3789C1453 17.8008 1452.98 17.4297 1452.94 17.2656C1452.91 17.1406 1452.86 17.0488 1452.79 16.9902C1452.72 16.9316 1452.63 16.9023 1452.53 16.9023C1452.39 16.9023 1452.19 16.9629 1451.93 17.084L1451.84 16.9023ZM1457.07 24.2324V24.0156C1457.57 24.0078 1458.05 23.8906 1458.48 23.6641C1458.92 23.4336 1459.34 23.0332 1459.75 22.4629C1460.16 21.8926 1460.45 21.2656 1460.61 20.582C1459.99 20.9766 1459.44 21.1738 1458.94 21.1738C1458.38 21.1738 1457.9 20.959 1457.51 20.5293C1457.11 20.0957 1456.91 19.5215 1456.91 18.8066C1456.91 18.1113 1457.11 17.4922 1457.51 16.9492C1457.99 16.2891 1458.61 15.959 1459.39 15.959C1460.04 15.959 1460.6 16.2285 1461.06 16.7676C1461.63 17.4355 1461.92 18.2598 1461.92 19.2402C1461.92 20.123 1461.7 20.9473 1461.27 21.7129C1460.83 22.4746 1460.23 23.1074 1459.46 23.6113C1458.83 24.0254 1458.14 24.2324 1457.4 24.2324H1457.07ZM1460.7 20.1484C1460.77 19.6406 1460.8 19.2344 1460.8 18.9297C1460.8 18.5508 1460.74 18.1426 1460.61 17.7051C1460.48 17.2637 1460.3 16.9258 1460.06 16.6914C1459.83 16.457 1459.56 16.3398 1459.26 16.3398C1458.91 16.3398 1458.61 16.4961 1458.34 16.8086C1458.08 17.1211 1457.95 17.5859 1457.95 18.2031C1457.95 19.0273 1458.12 19.6719 1458.47 20.1367C1458.73 20.4727 1459.04 20.6406 1459.41 20.6406C1459.59 20.6406 1459.8 20.5977 1460.05 20.5117C1460.29 20.4258 1460.51 20.3047 1460.7 20.1484ZM1462.87 20.1426C1462.87 19.2363 1463 18.457 1463.28 17.8047C1463.55 17.1484 1463.91 16.6602 1464.37 16.3398C1464.72 16.0859 1465.08 15.959 1465.46 15.959C1466.07 15.959 1466.61 16.2695 1467.1 16.8906C1467.7 17.6602 1468.01 18.7031 1468.01 20.0195C1468.01 20.9414 1467.87 21.7246 1467.61 22.3691C1467.34 23.0137 1467 23.4824 1466.59 23.7754C1466.18 24.0645 1465.78 24.209 1465.4 24.209C1464.64 24.209 1464.01 23.7617 1463.51 22.8672C1463.08 22.1133 1462.87 21.2051 1462.87 20.1426ZM1464.02 20.2891C1464.02 21.3828 1464.15 22.2754 1464.42 22.9668C1464.64 23.5488 1464.97 23.8398 1465.42 23.8398C1465.63 23.8398 1465.85 23.7461 1466.07 23.5586C1466.3 23.3672 1466.47 23.0488 1466.59 22.6035C1466.77 21.9316 1466.86 20.9844 1466.86 19.7617C1466.86 18.8555 1466.76 18.0996 1466.58 17.4941C1466.44 17.0449 1466.25 16.7266 1466.03 16.5391C1465.87 16.4102 1465.68 16.3457 1465.45 16.3457C1465.19 16.3457 1464.95 16.4648 1464.74 16.7031C1464.46 17.0273 1464.27 17.5371 1464.17 18.2324C1464.07 18.9277 1464.02 19.6133 1464.02 20.2891ZM1468.87 20.1426C1468.87 19.2363 1469 18.457 1469.28 17.8047C1469.55 17.1484 1469.91 16.6602 1470.37 16.3398C1470.72 16.0859 1471.08 15.959 1471.46 15.959C1472.07 15.959 1472.61 16.2695 1473.1 16.8906C1473.7 17.6602 1474.01 18.7031 1474.01 20.0195C1474.01 20.9414 1473.87 21.7246 1473.61 22.3691C1473.34 23.0137 1473 23.4824 1472.59 23.7754C1472.18 24.0645 1471.78 24.209 1471.4 24.209C1470.64 24.209 1470.01 23.7617 1469.51 22.8672C1469.08 22.1133 1468.87 21.2051 1468.87 20.1426ZM1470.02 20.2891C1470.02 21.3828 1470.15 22.2754 1470.42 22.9668C1470.64 23.5488 1470.97 23.8398 1471.42 23.8398C1471.63 23.8398 1471.85 23.7461 1472.07 23.5586C1472.3 23.3672 1472.47 23.0488 1472.59 22.6035C1472.77 21.9316 1472.86 20.9844 1472.86 19.7617C1472.86 18.8555 1472.76 18.0996 1472.58 17.4941C1472.44 17.0449 1472.25 16.7266 1472.03 16.5391C1471.87 16.4102 1471.68 16.3457 1471.45 16.3457C1471.19 16.3457 1470.95 16.4648 1470.74 16.7031C1470.46 17.0273 1470.27 17.5371 1470.17 18.2324C1470.07 18.9277 1470.02 19.6133 1470.02 20.2891Z" fill="black"/>
<path d="M1553.81 16.9023L1555.75 15.959H1555.94V22.668C1555.94 23.1133 1555.96 23.3906 1555.99 23.5C1556.03 23.6094 1556.11 23.6934 1556.23 23.752C1556.34 23.8105 1556.58 23.8438 1556.94 23.8516V24.0684H1553.95V23.8516C1554.33 23.8438 1554.57 23.8125 1554.68 23.7578C1554.79 23.6992 1554.87 23.623 1554.91 23.5293C1554.95 23.4316 1554.97 23.1445 1554.97 22.668V18.3789C1554.97 17.8008 1554.95 17.4297 1554.91 17.2656C1554.89 17.1406 1554.84 17.0488 1554.76 16.9902C1554.69 16.9316 1554.61 16.9023 1554.5 16.9023C1554.36 16.9023 1554.16 16.9629 1553.9 17.084L1553.81 16.9023ZM1559.04 24.2324V24.0156C1559.55 24.0078 1560.02 23.8906 1560.46 23.6641C1560.89 23.4336 1561.32 23.0332 1561.72 22.4629C1562.13 21.8926 1562.42 21.2656 1562.58 20.582C1561.96 20.9766 1561.41 21.1738 1560.91 21.1738C1560.36 21.1738 1559.88 20.959 1559.48 20.5293C1559.08 20.0957 1558.88 19.5215 1558.88 18.8066C1558.88 18.1113 1559.08 17.4922 1559.48 16.9492C1559.96 16.2891 1560.59 15.959 1561.36 15.959C1562.01 15.959 1562.57 16.2285 1563.04 16.7676C1563.61 17.4355 1563.89 18.2598 1563.89 19.2402C1563.89 20.123 1563.67 20.9473 1563.24 21.7129C1562.81 22.4746 1562.2 23.1074 1561.43 23.6113C1560.8 24.0254 1560.12 24.2324 1559.37 24.2324H1559.04ZM1562.67 20.1484C1562.74 19.6406 1562.78 19.2344 1562.78 18.9297C1562.78 18.5508 1562.71 18.1426 1562.58 17.7051C1562.46 17.2637 1562.27 16.9258 1562.03 16.6914C1561.8 16.457 1561.53 16.3398 1561.23 16.3398C1560.88 16.3398 1560.58 16.4961 1560.32 16.8086C1560.05 17.1211 1559.92 17.5859 1559.92 18.2031C1559.92 19.0273 1560.1 19.6719 1560.45 20.1367C1560.7 20.4727 1561.01 20.6406 1561.38 20.6406C1561.56 20.6406 1561.78 20.5977 1562.02 20.5117C1562.27 20.4258 1562.48 20.3047 1562.67 20.1484ZM1569.62 16.123L1569.16 17.1191H1566.77L1566.25 18.1855C1567.28 18.3379 1568.1 18.7227 1568.71 19.3398C1569.23 19.8711 1569.49 20.4961 1569.49 21.2148C1569.49 21.6328 1569.4 22.0195 1569.23 22.375C1569.06 22.7305 1568.85 23.0332 1568.59 23.2832C1568.33 23.5332 1568.04 23.7344 1567.73 23.8867C1567.28 24.1016 1566.82 24.209 1566.35 24.209C1565.87 24.209 1565.52 24.1289 1565.3 23.9688C1565.09 23.8047 1564.98 23.625 1564.98 23.4297C1564.98 23.3203 1565.03 23.2246 1565.12 23.1426C1565.21 23.0566 1565.32 23.0137 1565.46 23.0137C1565.56 23.0137 1565.64 23.0293 1565.72 23.0605C1565.8 23.0918 1565.93 23.1719 1566.11 23.3008C1566.4 23.5039 1566.7 23.6055 1567 23.6055C1567.46 23.6055 1567.86 23.4336 1568.2 23.0898C1568.55 22.7422 1568.72 22.3203 1568.72 21.8242C1568.72 21.3438 1568.57 20.8965 1568.26 20.4824C1567.95 20.0645 1567.53 19.7422 1566.98 19.5156C1566.56 19.3398 1565.98 19.2383 1565.24 19.2109L1566.77 16.123H1569.62ZM1570.84 20.1426C1570.84 19.2363 1570.98 18.457 1571.25 17.8047C1571.52 17.1484 1571.89 16.6602 1572.34 16.3398C1572.69 16.0859 1573.05 15.959 1573.43 15.959C1574.04 15.959 1574.59 16.2695 1575.07 16.8906C1575.68 17.6602 1575.98 18.7031 1575.98 20.0195C1575.98 20.9414 1575.85 21.7246 1575.58 22.3691C1575.31 23.0137 1574.97 23.4824 1574.56 23.7754C1574.15 24.0645 1573.75 24.209 1573.37 24.209C1572.61 24.209 1571.98 23.7617 1571.48 22.8672C1571.05 22.1133 1570.84 21.2051 1570.84 20.1426ZM1571.99 20.2891C1571.99 21.3828 1572.12 22.2754 1572.39 22.9668C1572.62 23.5488 1572.95 23.8398 1573.39 23.8398C1573.6 23.8398 1573.82 23.7461 1574.04 23.5586C1574.27 23.3672 1574.44 23.0488 1574.56 22.6035C1574.74 21.9316 1574.83 20.9844 1574.83 19.7617C1574.83 18.8555 1574.74 18.0996 1574.55 17.4941C1574.41 17.0449 1574.23 16.7266 1574 16.5391C1573.84 16.4102 1573.65 16.3457 1573.42 16.3457C1573.16 16.3457 1572.92 16.4648 1572.71 16.7031C1572.43 17.0273 1572.24 17.5371 1572.14 18.2324C1572.04 18.9277 1571.99 19.6133 1571.99 20.2891Z" fill="black"/>
<path d="M1661.22 22.5391L1660.67 24.0684H1655.98V23.8516C1657.36 22.5938 1658.33 21.5664 1658.89 20.7695C1659.46 19.9727 1659.74 19.2441 1659.74 18.584C1659.74 18.0801 1659.58 17.666 1659.27 17.3418C1658.96 17.0176 1658.6 16.8555 1658.17 16.8555C1657.78 16.8555 1657.42 16.9707 1657.11 17.2012C1656.8 17.4277 1656.57 17.7617 1656.43 18.2031H1656.21C1656.31 17.4805 1656.56 16.9258 1656.96 16.5391C1657.37 16.1523 1657.87 15.959 1658.48 15.959C1659.12 15.959 1659.66 16.166 1660.09 16.5801C1660.52 16.9941 1660.74 17.4824 1660.74 18.0449C1660.74 18.4473 1660.64 18.8496 1660.46 19.252C1660.17 19.8848 1659.7 20.5547 1659.05 21.2617C1658.08 22.3242 1657.47 22.9648 1657.23 23.1836H1659.3C1659.72 23.1836 1660.02 23.168 1660.19 23.1367C1660.36 23.1055 1660.51 23.043 1660.65 22.9492C1660.79 22.8516 1660.91 22.7148 1661.01 22.5391H1661.22ZM1662.16 20.1426C1662.16 19.2363 1662.29 18.457 1662.57 17.8047C1662.84 17.1484 1663.2 16.6602 1663.66 16.3398C1664.01 16.0859 1664.37 15.959 1664.75 15.959C1665.36 15.959 1665.9 16.2695 1666.39 16.8906C1666.99 17.6602 1667.29 18.7031 1667.29 20.0195C1667.29 20.9414 1667.16 21.7246 1666.9 22.3691C1666.63 23.0137 1666.29 23.4824 1665.88 23.7754C1665.47 24.0645 1665.07 24.209 1664.69 24.209C1663.93 24.209 1663.3 23.7617 1662.79 22.8672C1662.37 22.1133 1662.16 21.2051 1662.16 20.1426ZM1663.3 20.2891C1663.3 21.3828 1663.44 22.2754 1663.71 22.9668C1663.93 23.5488 1664.26 23.8398 1664.71 23.8398C1664.92 23.8398 1665.13 23.7461 1665.36 23.5586C1665.59 23.3672 1665.76 23.0488 1665.88 22.6035C1666.06 21.9316 1666.15 20.9844 1666.15 19.7617C1666.15 18.8555 1666.05 18.0996 1665.87 17.4941C1665.72 17.0449 1665.54 16.7266 1665.32 16.5391C1665.16 16.4102 1664.97 16.3457 1664.74 16.3457C1664.47 16.3457 1664.24 16.4648 1664.03 16.7031C1663.75 17.0273 1663.56 17.5371 1663.46 18.2324C1663.36 18.9277 1663.3 19.6133 1663.3 20.2891ZM1668.16 20.1426C1668.16 19.2363 1668.29 18.457 1668.57 17.8047C1668.84 17.1484 1669.2 16.6602 1669.66 16.3398C1670.01 16.0859 1670.37 15.959 1670.75 15.959C1671.36 15.959 1671.9 16.2695 1672.39 16.8906C1672.99 17.6602 1673.29 18.7031 1673.29 20.0195C1673.29 20.9414 1673.16 21.7246 1672.9 22.3691C1672.63 23.0137 1672.29 23.4824 1671.88 23.7754C1671.47 24.0645 1671.07 24.209 1670.69 24.209C1669.93 24.209 1669.3 23.7617 1668.79 22.8672C1668.37 22.1133 1668.16 21.2051 1668.16 20.1426ZM1669.3 20.2891C1669.3 21.3828 1669.44 22.2754 1669.71 22.9668C1669.93 23.5488 1670.26 23.8398 1670.71 23.8398C1670.92 23.8398 1671.13 23.7461 1671.36 23.5586C1671.59 23.3672 1671.76 23.0488 1671.88 22.6035C1672.06 21.9316 1672.15 20.9844 1672.15 19.7617C1672.15 18.8555 1672.05 18.0996 1671.87 17.4941C1671.72 17.0449 1671.54 16.7266 1671.32 16.5391C1671.16 16.4102 1670.97 16.3457 1670.74 16.3457C1670.47 16.3457 1670.24 16.4648 1670.03 16.7031C1669.75 17.0273 1669.56 17.5371 1669.46 18.2324C1669.36 18.9277 1669.3 19.6133 1669.3 20.2891ZM1674.16 20.1426C1674.16 19.2363 1674.29 18.457 1674.57 17.8047C1674.84 17.1484 1675.2 16.6602 1675.66 16.3398C1676.01 16.0859 1676.37 15.959 1676.75 15.959C1677.36 15.959 1677.9 16.2695 1678.39 16.8906C1678.99 17.6602 1679.29 18.7031 1679.29 20.0195C1679.29 20.9414 1679.16 21.7246 1678.9 22.3691C1678.63 23.0137 1678.29 23.4824 1677.88 23.7754C1677.47 24.0645 1677.07 24.209 1676.69 24.209C1675.93 24.209 1675.3 23.7617 1674.79 22.8672C1674.37 22.1133 1674.16 21.2051 1674.16 20.1426ZM1675.3 20.2891C1675.3 21.3828 1675.44 22.2754 1675.71 22.9668C1675.93 23.5488 1676.26 23.8398 1676.71 23.8398C1676.92 23.8398 1677.13 23.7461 1677.36 23.5586C1677.59 23.3672 1677.76 23.0488 1677.88 22.6035C1678.06 21.9316 1678.15 20.9844 1678.15 19.7617C1678.15 18.8555 1678.05 18.0996 1677.87 17.4941C1677.72 17.0449 1677.54 16.7266 1677.32 16.5391C1677.16 16.4102 1676.97 16.3457 1676.74 16.3457C1676.47 16.3457 1676.24 16.4648 1676.03 16.7031C1675.75 17.0273 1675.56 17.5371 1675.46 18.2324C1675.36 18.9277 1675.3 19.6133 1675.3 20.2891Z" fill="black"/>
<path d="M21.4814 2.7207V12.2407" stroke="#979797" stroke-width="2.07036" stroke-linecap="round"/>
<path d="M226.769 2.7207V12.2407" stroke="#979797" stroke-width="2.07036" stroke-linecap="round"/>
<path d="M124.796 2.7207V12.2407" stroke="#979797" stroke-width="2.07036" stroke-linecap="round"/>
<path d="M433.399 2.7207V12.2407" stroke="#979797" stroke-width="2.07036" stroke-linecap="round"/>
<path d="M330.083 2.7207V12.2407" stroke="#979797" stroke-width="2.07036" stroke-linecap="round"/>
<path d="M535.372 2.7207V12.2407" stroke="#979797" stroke-width="2.07036" stroke-linecap="round"/>
<path d="M742.001 2.7207V12.2407" stroke="#979797" stroke-width="2.07036" stroke-linecap="round"/>
<path d="M947.29 2.7207V12.2407" stroke="#979797" stroke-width="2.07036" stroke-linecap="round"/>
<path d="M1153.92 2.7207V12.2407" stroke="#979797" stroke-width="2.07036" stroke-linecap="round"/>
<path d="M1359.21 2.7207V12.2407" stroke="#979797" stroke-width="2.07036" stroke-linecap="round"/>
<path d="M1565.84 2.7207V12.2407" stroke="#979797" stroke-width="2.07036" stroke-linecap="round"/>
<path d="M638.687 2.7207V12.2407" stroke="#979797" stroke-width="2.07036" stroke-linecap="round"/>
<path d="M845.317 2.7207V12.2407" stroke="#979797" stroke-width="2.07036" stroke-linecap="round"/>
<path d="M1050.6 2.7207V12.2407" stroke="#979797" stroke-width="2.07036" stroke-linecap="round"/>
<path d="M1255.89 2.7207V12.2407" stroke="#979797" stroke-width="2.07036" stroke-linecap="round"/>
<path d="M1462.52 2.7207V12.2407" stroke="#979797" stroke-width="2.07036" stroke-linecap="round"/>
<path d="M1670.5 2.7207V12.2407" stroke="#979797" stroke-width="2.07036" stroke-linecap="round"/>
<path d="M920.454 4.08008V32.6401" stroke="#979797" stroke-width="1.03518"/>
<path d="M1489.36 4.08008V32.6401" stroke="#979797" stroke-width="1.03518"/>
</g>
<defs>
<clipPath id="clip0_0_380">
<rect width="1700" height="32.64" fill="white"/>
</clipPath>
</defs>
</svg>
