<?xml version="1.0" encoding="UTF-8"?>
<svg width="86px" height="43px" viewBox="0 0 86 43" version="1.1" xmlns="http://www.w3.org/2000/svg" xmlns:xlink="http://www.w3.org/1999/xlink">
    <title>编组 132</title>
    <defs>
        <path d="M3.2832,0 L70.7168,0 C72.5300613,7.27531783e-15 74,1.46993871 74,3.2832 L74,22.4988342 C74,24.3120955 72.5300613,25.7820342 70.7168,25.7820342 L42.9070486,25.7820342 L42.9070486,25.7820342 L35.9877907,31 L28.2167587,25.7820342 L3.2832,25.7820342 C1.46993871,25.7820342 5.79536577e-14,24.3120955 0,22.4988342 L0,3.2832 C-2.22060464e-16,1.46993871 1.46993871,-5.55087724e-16 3.2832,0 Z" id="path-1"></path>
        <filter x="-16.2%" y="-19.4%" width="132.4%" height="177.4%" filterUnits="objectBoundingBox" id="filter-2">
            <feOffset dx="0" dy="6" in="SourceAlpha" result="shadowOffsetOuter1"></feOffset>
            <feGaussianBlur stdDeviation="3" in="shadowOffsetOuter1" result="shadowBlurOuter1"></feGaussianBlur>
            <feComposite in="shadowBlurOuter1" in2="SourceAlpha" operator="out" result="shadowBlurOuter1"></feComposite>
            <feColorMatrix values="0 0 0 0 0   0 0 0 0 0   0 0 0 0 0  0 0 0 0.269831731 0" type="matrix" in="shadowBlurOuter1"></feColorMatrix>
        </filter>
    </defs>
    <g id="页面-1" stroke="none" stroke-width="1" fill="none" fill-rule="evenodd">
        <g id="编组-132" transform="translate(6.000000, 0.000000)">
            <g id="编组-17">
                <g id="Rectangle-Copy-19">
                    <use fill="black" fill-opacity="1" filter="url(#filter-2)" xlink:href="#path-1"></use>
                    <use fill-opacity="0.837031" fill="#FFFFFF" fill-rule="evenodd" xlink:href="#path-1"></use>
                </g>
                <g id="编组-148" transform="translate(6.644049, 3.444444)">
                    <g id="编组-126" transform="translate(43.000000, 0.000000)">
                        <g id="编组-145">
                            <rect id="矩形" fill="#37542D" x="0" y="0" width="17.1215208" height="17.2222222" rx="8.5607604"></rect>
                            <path d="M10.2863189,7.42226744 C10.4531341,7.42226744 10.5883635,7.56548445 10.5883635,7.74213574 C10.5883635,7.91877809 10.4531341,8.06200404 10.2863104,8.06200404 L6.84363105,8.06200404 C6.67680734,8.06200404 6.541578,7.91877809 6.541578,7.74213574 C6.541578,7.56549338 6.67680734,7.42226744 6.84363105,7.42226744 L10.2863104,7.42226744 L10.2863189,7.42226744 Z M10.2863189,9.24528444 C10.4531341,9.24528444 10.5883635,9.38849252 10.5883635,9.56514381 C10.5883635,9.74178616 10.4531341,9.88500317 10.2863104,9.88500317 L6.84363105,9.88500317 C6.67680734,9.88500317 6.541578,9.74178616 6.541578,9.56513487 C6.541578,9.38849252 6.67680734,9.24528444 6.84363105,9.24528444 L10.2863104,9.24528444 L10.2863189,9.24528444 Z M11.4301249,3.76736111 C11.9130952,3.76736111 12.3060931,4.1836009 12.3060931,4.6951132 L12.3060931,11.9889146 C12.3060931,12.5004269 11.9130952,12.9166667 11.4301249,12.9166667 L5.69139594,12.9166667 C5.20842557,12.9166667 4.81542773,12.5004269 4.81542773,11.9889146 L4.81542773,4.6951132 C4.81542773,4.1836009 5.20842557,3.76736111 5.69139594,3.76736111 L11.4301249,3.76736111 Z M6.85430905,4.40723173 L6.85430905,5.2869053 L10.2672117,5.2869053 L10.2672117,4.40723173 L6.85430905,4.40723173 Z M6.25011841,4.40723173 L5.69139594,4.40723173 C5.54166718,4.40723173 5.41960991,4.53650141 5.41960991,4.6951132 L5.41960991,11.9889146 C5.41960991,12.1477229 5.54156572,12.276796 5.69139594,12.276796 L11.4301249,12.276796 C11.5802172,12.276796 11.7019109,12.1479106 11.7019109,11.9889146 L11.7019109,4.6951132 C11.7019109,4.5363942 11.5800396,4.40723173 11.4301249,4.40723173 L10.8714108,4.40723173 L10.8714108,5.30292552 C10.8714108,5.64698944 10.6072508,5.92677592 10.2823875,5.92677592 L6.83913327,5.92677592 C6.51427005,5.92677592 6.25010996,5.64698944 6.25010996,5.30292552 L6.25010996,4.40723173 L6.25011841,4.40723173 Z" id="形状" fill="#FFFFFF" fill-rule="nonzero"></path>
                        </g>
                        <g id="shijiangongdanguanli" transform="translate(4.815428, 3.767361)"></g>
                    </g>
                    <g id="编组-141">
                        <g id="编组-147">
                            <rect id="矩形" fill="#37542D" x="0" y="0" width="17.1215208" height="17.2222222" rx="8.5607604"></rect>
                            <path d="M2.16302207,12.6117921 L2.1401901,12.6117921 C2.1401901,12.6117921 3.42146664,13.4118618 4.87331144,13.4118618 C4.99955881,13.4118618 5.12580618,13.4041565 5.25339662,13.3913143 C5.54081085,13.3617772 5.8309112,13.2988504 6.11698238,13.1858389 C6.35738961,13.0908066 6.59376767,12.9623844 6.82208739,12.7928673 C6.98056813,12.6747189 7.30961714,12.2984421 7.44929509,11.9979344 L6.43797304,11.0309159 C6.43528692,11.0309159 4.75915158,12.6117921 2.16302207,12.6117921 Z M6.55750513,12.4679593 C6.08340595,12.8211201 5.51663582,13.0009111 4.87465449,13.0009111 C4.47710957,13.0009111 4.09030911,12.9328474 3.74514342,12.8390992 C5.02373384,12.5385915 5.9531294,11.9388602 6.41514107,11.5908363 L6.91341528,12.0672823 C6.78582484,12.2445048 6.63003021,12.414022 6.55750513,12.4679593 Z M14.0396766,4.18986986 C14.0396766,4.18986986 11.3871387,6.85462872 10.8512589,7.36574874 C10.3167221,7.87686875 8.80712588,9.07761551 7.74745378,9.7698107 C6.68643861,10.4607217 6.67703721,10.7933349 6.67703721,10.7933349 L7.18336977,11.2774863 L7.68970232,11.7616377 C7.68970232,11.7616377 8.03621107,11.7526481 8.76011888,10.7381134 C9.48268364,9.72357874 10.7384421,8.28139841 11.2743219,7.77027839 C11.8088587,7.25915838 14.5957023,4.72153742 14.5957023,4.72153742 L14.3176894,4.45570364 L14.0396766,4.18986986 L14.0396766,4.18986986 Z M15.0335389,4.08970062 L14.8643137,3.92917297 L14.6964316,3.76736111 L14.5272064,3.92917297 L14.4063312,3.81230885 L14.237106,3.97283649 L14.5272064,4.25151248 L14.8186498,4.52890424 L14.9865319,4.36709238 L14.8643137,4.25151248 L15.0335389,4.08970062 Z" id="形状" fill="#FFFFFF" fill-rule="nonzero"></path>
                        </g>
                        <g id="maobi" transform="translate(2.140190, 3.767361)"></g>
                    </g>
                </g>
            </g>
            <g id="编组-200" transform="translate(28.000000, 4.000000)">
                <g id="编组-111" fill="#37542D">
                    <rect id="矩形" x="0" y="0" width="17" height="17" rx="8.5"></rect>
                </g>
                <g id="编组-20" transform="translate(4.781250, 3.189208)">
                    <line x1="0.764435092" y1="0.00737831538" x2="1.07703389" y2="10.0829556" id="路径-5" stroke="#FFFFFF" stroke-width="0.5" stroke-linecap="round" stroke-linejoin="round" transform="translate(0.920734, 5.045148) rotate(1.777054) translate(-0.920734, -5.045148) "></line>
                    <g id="编组-11" transform="translate(0.000000, 0.772240)" fill-rule="nonzero">
                        <path d="M7.77107186,0.753004302 L1.7272151,0.753004302 C1.69472124,0.753004302 1.67305867,0.757063624 1.67305867,0.763152608 L1.67305867,1.23301917 C1.67305867,1.23910816 1.69472124,1.24316748 1.7272151,1.24316748 L7.77107186,1.24316748 C7.80356571,1.24316748 7.82522828,1.23910816 7.82522828,1.23301917 L7.82522828,0.763152608 C7.82522828,0.758078455 7.79815007,0.753004302 7.77107186,0.753004302 Z" id="路径" fill="#FFFFFF"></path>
                        <path d="M0.931721442,1.99515695 C1.40746124,2.01646839 1.81268429,1.68969294 1.92392199,1.24316748 L2.07389424,1.24316748 C2.07985341,1.24316748 2.08382618,1.23910816 2.08382618,1.23301917 L2.08382618,0.763152608 C2.08382618,0.757063624 2.07985341,0.753004302 2.07389424,0.753004302 L1.92392199,0.753004302 C1.81665706,0.320686468 1.43229109,0 0.97641516,0 C0.433138184,0 -0.00783983655,0.455658938 0.000105713369,1.01280093 C0.00705806955,1.53848318 0.417247084,1.97181585 0.931721442,1.99515695 Z" id="路径" fill="#FFFFFF"></path>
                        <path d="M0.975421966,0.490163178 C1.24954344,0.490163178 1.47301203,0.718500062 1.47301203,0.998593306 C1.47301203,1.27868655 1.24954344,1.50702343 0.975421966,1.50702343 C0.701300494,1.50702343 0.478825096,1.27868655 0.478825096,0.998593306 C0.478825096,0.718500062 0.701300494,0.490163178 0.975421966,0.490163178 Z" id="路径" fill="#37542D"></path>
                    </g>
                    <g id="编组-14" transform="translate(0.000000, 6.915263)" fill-rule="nonzero">
                        <path d="M1.87210539,1.24316748 L7.913225,1.24316748 C7.94654,1.24316748 7.96875,1.23910816 7.96875,1.23301917 L7.96875,0.763152608 C7.96875,0.757063624 7.94654,0.753004302 7.913225,0.753004302 L1.87210539,0.753004302 C1.83879039,0.753004302 1.81658039,0.757063624 1.81658039,0.763152608 L1.81658039,1.23301917 C1.81658039,1.23910816 1.84434289,1.24316748 1.87210539,1.24316748 Z" id="路径" fill="#FFFFFF"></path>
                        <path d="M0.97730264,0 C0.438991633,0 0,0.447540293 0,0.998593306 C0,1.54863149 0.438991633,1.99718661 0.97730264,1.99718661 C1.43317857,1.99718661 1.81655135,1.67650014 1.92381627,1.24418231 L2.17012832,1.24418231 C2.17608748,1.24418231 2.18006026,1.24012299 2.18006026,1.234034 L2.18006026,0.763152608 C2.18006026,0.757063624 2.17608748,0.753004302 2.17012832,0.753004302 L1.92480947,0.753004302 C1.81754454,0.320686468 1.43317857,0 0.97730264,0 Z" id="路径" fill="#FFFFFF"></path>
                        <path d="M0.97730264,1.5060086 C0.703181168,1.5060086 0.479712577,1.27767172 0.479712577,0.997578476 C0.479712577,0.705307264 0.723045043,0.468851735 1.015044,0.491178008 C1.25837647,0.509444959 1.45502883,0.709366586 1.47290632,0.958000082 C1.49475658,1.25636028 1.26433563,1.5060086 0.97730264,1.5060086 Z" id="路径" fill="#37542D"></path>
                    </g>
                    <g id="编组-7" transform="translate(3.960043, 4.841837) scale(-1, 1) translate(-3.960043, -4.841837) translate(0.000000, 3.843751)" fill-rule="nonzero">
                        <path d="M0.0563901889,1.24418231 L6.09577942,1.24418231 C6.12961353,1.24418231 6.15216961,1.24012299 6.15216961,1.234034 L6.15216961,0.764167439 C6.15216961,0.758078455 6.12961353,0.754019133 6.09577942,0.754019133 L0.0563901889,0.754019133 C0.0225560756,0.754019133 0,0.758078455 0,0.764167439 L0,1.234034 C0,1.23910816 0.0281950945,1.24418231 0.0563901889,1.24418231 Z" id="路径" fill="#FFFFFF"></path>
                        <path d="M6.94377406,0 C6.48789813,0 6.10353216,0.320686468 5.99726043,0.753004302 L5.76584628,0.753004302 C5.75988712,0.753004302 5.75591435,0.757063624 5.75591435,0.763152608 L5.75591435,1.23301917 C5.75591435,1.23910816 5.75988712,1.24316748 5.76584628,1.24316748 L5.99626723,1.24316748 C6.10353216,1.67548531 6.48690494,1.99617178 6.94278087,1.99617178 C7.48109187,1.99617178 7.92008519,1.54863149 7.92008519,0.997578476 C7.9210767,0.448555123 7.48307826,0 6.94377406,0 L6.94377406,0 Z" id="路径" fill="#FFFFFF"></path>
                        <path d="M6.94377406,1.50702343 C6.66965259,1.50702343 6.44717719,1.27868655 6.44717719,0.998593306 C6.44717719,0.718500062 6.67064578,0.490163178 6.94377406,0.490163178 C7.21789553,0.490163178 7.44136412,0.718500062 7.44136412,0.998593306 C7.44136412,1.27868655 7.21888873,1.50702343 6.94377406,1.50702343 Z" id="路径" fill="#37542D"></path>
                    </g>
                </g>
            </g>
        </g>
    </g>
</svg>