<svg width="144" height="50" viewBox="0 0 144 50" fill="none" xmlns="http://www.w3.org/2000/svg">
<path opacity="0.251907" fill-rule="evenodd" clip-rule="evenodd" d="M90.5832 49.9336C103.476 49.9336 136.551 49.7143 140.89 41.974C145.123 34.4239 143.418 24.3228 140.89 22.7348C133.07 17.822 126.568 9.95795 116.927 5.08563C111.793 2.49075 105.768 0.744434 98.1791 0.744434C73.4925 5.08563 56.5496 0.160099 46.907 2.75601C37.2645 5.35192 36.0386 11.9788 18.5129 11.9788C0.987274 11.9788 -2.99954 33.3308 2.64178 37.4923C8.28311 41.6538 11.3882 37.5952 23.17 41.974C34.9517 46.3527 43.7987 37.6716 54.7775 41.974C65.7562 46.2764 77.6908 49.9336 90.5832 49.9336Z" fill="#F8E4A8"/>
<path opacity="0.251907" fill-rule="evenodd" clip-rule="evenodd" d="M91.2572 43.0219C100.948 43.0219 125.924 41.2099 129.186 36.0497C132.368 31.0164 131.086 24.2823 129.186 23.2236C120.177 18.2041 114.122 19.6983 107.706 14.8681C101.291 10.0378 65.4213 7.86874 58.1736 9.59935C50.926 11.33 50.3759 16.0529 37.203 16.0529C24.0301 16.0529 19.1842 27.6199 23.4245 30.3942C27.6647 33.1686 36.582 31.6385 45.4375 34.5577C54.2931 37.4768 56.0538 38.282 64.3058 41.1502C72.5578 44.0185 81.5668 43.0219 91.2572 43.0219Z" fill="#F8E4A8"/>
<path opacity="0.251907" fill-rule="evenodd" clip-rule="evenodd" d="M103.33 37.393C107.964 37.393 119.909 36.2353 121.469 32.9384C122.991 29.7226 122.378 25.4202 121.469 24.7437C117.161 21.5368 114.265 22.4915 111.196 19.4054C108.128 16.3193 90.9736 14.9335 87.5074 16.0392C84.0412 17.1449 83.7781 20.1624 77.4782 20.1624C71.1783 20.1624 68.8607 27.5526 70.8886 29.3251C72.9165 31.0976 77.1812 30.1201 81.4164 31.9851C85.6515 33.8502 86.4936 34.3646 90.4401 36.1971C94.3866 38.0297 98.6952 37.393 103.33 37.393Z" fill="#F8E4A8"/>
</svg>
