<?xml version="1.0" encoding="UTF-8"?>
<svg width="12px" height="12px" viewBox="0 0 12 12" version="1.1" xmlns="http://www.w3.org/2000/svg" xmlns:xlink="http://www.w3.org/1999/xlink">
    <title>24gl-expand</title>
    <g id="页面-1" stroke="none" stroke-width="1" fill="none" fill-rule="evenodd">
        <g id="3.3" transform="translate(-552.000000, -525.000000)" fill="#5C5C66" fill-rule="nonzero">
            <g id="24gl-expand" transform="translate(552.000000, 525.000000)">
                <path d="M8.10018984,4.20009876 C7.97883328,4.20009876 7.86941756,4.12702344 7.82297376,4.01490569 C7.77652996,3.90278793 7.80220678,3.77373244 7.88802863,3.68793019 L10.9760385,0.600014067 L9.30021798,0.600014067 C9.13452867,0.600014067 9.00021094,0.465696343 9.00021094,0.300007034 C9.00021094,0.134317724 9.13452867,-3.99689656e-16 9.30021798,-3.99689656e-16 L11.7039306,-3.99689656e-16 C11.7804914,0.000893237253 11.8537997,0.0310888795 11.9087791,0.0843769775 L11.915623,0.0912208926 C11.9689111,0.146200312 11.9991068,0.219508623 12,0.296069448 L12,2.70006328 C12,2.86575259 11.8656823,3.00007031 11.699993,3.00007031 C11.5343037,3.00007031 11.3999859,2.86575259 11.3999859,2.70006328 L11.3999859,1.02424276 L8.31235107,4.11225263 C8.25613751,4.16859954 8.17978209,4.20021467 8.10018984,4.20009876 Z M11.7035556,12.0002813 C11.7801164,11.999388 11.8534247,11.9691924 11.9084041,11.9159043 L11.915248,11.9090604 C11.9685361,11.8540809 11.9987317,11.7807726 11.999625,11.7042118 L11.999625,9.30021798 C11.999625,9.13452867 11.8653073,9.00021094 11.699618,9.00021094 C11.5339286,9.00021094 11.3996109,9.13452867 11.3996109,9.30021798 L11.3996109,10.9760385 L8.31235107,7.88802863 C8.19517766,7.77085523 8.00520204,7.77085523 7.88802864,7.88802864 C7.77085523,8.00520204 7.77085523,8.19517766 7.88802863,8.31235107 L10.9760385,11.4002672 L9.30021798,11.4002672 C9.13452867,11.4002672 9.00021094,11.5345849 9.00021094,11.7002742 C9.00021094,11.8659635 9.13452867,12.0002813 9.30021798,12.0002813 L11.7035556,12.0002813 L11.7035556,12.0002813 Z M4.11225263,4.11225263 C4.16852968,4.05598843 4.20014687,3.97967009 4.20014687,3.90009141 C4.20014687,3.82051273 4.16852968,3.74419439 4.11225263,3.68793019 L1.02424276,0.600014067 L2.70006328,0.600014067 C2.86575259,0.600014067 3.00007031,0.465696343 3.00007031,0.300007034 C3.00007031,0.134317724 2.86575259,-3.99689656e-16 2.70006328,-3.99689656e-16 L0.296350705,-3.99689656e-16 C0.219789879,0.000893237253 0.146481568,0.0310888795 0.0915021492,0.0843769775 L0.0846582341,0.0912208926 C0.0313701361,0.146200312 0.00117449384,0.219508623 0.000281256592,0.296069448 L0.000281256592,2.70006328 C0.000281256592,2.86575259 0.134598981,3.00007031 0.30028829,3.00007031 C0.4659776,3.00007031 0.600295324,2.86575259 0.600295324,2.70006328 L0.600295324,1.02424276 L3.68793019,4.11225263 C3.74419439,4.16852968 3.82051273,4.20014687 3.90009141,4.20014687 C3.97967009,4.20014687 4.05598843,4.16852968 4.11225263,4.11225263 Z M0.300007041,12.0002813 L2.70006328,12.0002813 C2.86575259,12.0002813 3.00007031,11.8659635 3.00007031,11.7002742 C3.00007031,11.5345849 2.86575259,11.4002672 2.70006328,11.4002672 L1.02424276,11.4002672 L4.11225263,8.31235107 C4.22942603,8.19517766 4.22942602,8.00520204 4.11225262,7.88802864 C3.99507922,7.77085523 3.8051036,7.77085523 3.68793019,7.88802863 L0.600014067,10.9760385 L0.600014067,9.30021798 C0.600014067,9.13452867 0.465696343,9.00021094 0.300007034,9.00021094 C0.134317724,9.00021094 -3.99689656e-16,9.13452867 -3.99689656e-16,9.30021798 L-3.99689656e-16,11.7039306 C0.000893237253,11.7804914 0.0310888795,11.8537997 0.0843769775,11.9087791 L0.0912208926,11.915623 C0.146200312,11.9689111 0.219508623,11.9991068 0.296069448,12 L0.300007041,12 L0.300007041,12.0002813 Z" id="形状"></path>
            </g>
        </g>
    </g>
</svg>